<svg xmlns="http://www.w3.org/2000/svg" xmlns:xlink="http://www.w3.org/1999/xlink" viewBox="0 0 199.83 194.19"><defs><style>.cls-1{fill:url(#linear-gradient);}.cls-2{fill:#91b3fa;}.cls-3{fill:#bdd0fb;}.cls-4{fill:url(#linear-gradient-2);}.cls-5{fill:url(#linear-gradient-3);}.cls-6{fill:url(#linear-gradient-4);}.cls-7{opacity:0.6;}.cls-11,.cls-8{fill:#fff;}.cls-9{fill:url(#linear-gradient-5);}.cls-10{fill:url(#linear-gradient-6);}.cls-11,.cls-12{opacity:0.78;}.cls-13{fill:url(#linear-gradient-7);}.cls-14{fill:url(#linear-gradient-8);}.cls-15{fill:url(#linear-gradient-9);}.cls-16{fill:url(#linear-gradient-10);}.cls-17{fill:url(#linear-gradient-11);}.cls-18{fill:url(#linear-gradient-12);}.cls-19{fill:url(#linear-gradient-13);}.cls-20{fill:url(#linear-gradient-14);}.cls-21{fill:url(#linear-gradient-15);}.cls-22{fill:url(#linear-gradient-16);}.cls-23{fill:url(#linear-gradient-17);}.cls-24{fill:url(#linear-gradient-18);}.cls-25{fill:url(#linear-gradient-19);}.cls-26{fill:url(#linear-gradient-20);}.cls-27{fill:url(#linear-gradient-21);}.cls-28{fill:url(#linear-gradient-22);}.cls-29{fill:url(#linear-gradient-23);}.cls-30{fill:url(#linear-gradient-24);}.cls-31{fill:url(#linear-gradient-25);}.cls-32{fill:url(#linear-gradient-26);}.cls-33{fill:url(#linear-gradient-27);}.cls-34{fill:url(#linear-gradient-28);}.cls-35{fill:url(#linear-gradient-29);}.cls-36{fill:url(#linear-gradient-30);}</style><linearGradient id="linear-gradient" x1="226.72" y1="215.92" x2="72.97" y2="78" gradientUnits="userSpaceOnUse"><stop offset="0" stop-color="#dae3fe"/><stop offset="1" stop-color="#e9effd"/></linearGradient><linearGradient id="linear-gradient-2" x1="139.16" y1="73.48" x2="157" y2="73.48" xlink:href="#linear-gradient"/><linearGradient id="linear-gradient-3" x1="-2472.1" y1="168.34" x2="-2432.07" y2="48.25" gradientTransform="matrix(-1, 0, 0, 1, -2354.99, 0)" gradientUnits="userSpaceOnUse"><stop offset="0" stop-color="#09005d"/><stop offset="1" stop-color="#1a0f91"/></linearGradient><linearGradient id="linear-gradient-4" x1="11.91" y1="169.53" x2="190.41" y2="72.66" gradientUnits="userSpaceOnUse"><stop offset="0" stop-color="#ff928e"/><stop offset="1" stop-color="#fe7062"/></linearGradient><linearGradient id="linear-gradient-5" x1="-2379.5" y1="161.29" x2="-2556.48" y2="204.34" gradientTransform="matrix(1, 0, 0, -1, 2554.81, 359.26)" xlink:href="#linear-gradient-3"/><linearGradient id="linear-gradient-6" x1="152.82" y1="14.4" x2="194.91" y2="-30.95" gradientUnits="userSpaceOnUse"><stop offset="0" stop-color="#4f52ff"/><stop offset="1" stop-color="#4042e2"/></linearGradient><linearGradient id="linear-gradient-7" x1="-3581.66" y1="172.34" x2="-3570.02" y2="172.34" gradientTransform="matrix(-1, 0, 0, 1, -3427.75, 0)" xlink:href="#linear-gradient-6"/><linearGradient id="linear-gradient-8" x1="-3581.66" y1="170.06" x2="-3570.35" y2="170.06" gradientTransform="matrix(-1, 0, 0, 1, -3427.75, 0)" xlink:href="#linear-gradient-3"/><linearGradient id="linear-gradient-9" x1="154.38" y1="164.2" x2="175.78" y2="148" gradientUnits="userSpaceOnUse"><stop offset="0" stop-color="#febbba"/><stop offset="1" stop-color="#ff928e"/></linearGradient><linearGradient id="linear-gradient-10" x1="-3604.87" y1="172.09" x2="-3600.41" y2="172.09" gradientTransform="matrix(-1, 0, 0, 1, -3427.75, 0)" xlink:href="#linear-gradient-6"/><linearGradient id="linear-gradient-11" x1="-3604.84" y1="168.65" x2="-3598.29" y2="168.65" gradientTransform="matrix(-1, 0, 0, 1, -3427.75, 0)" xlink:href="#linear-gradient-3"/><linearGradient id="linear-gradient-12" x1="173.43" y1="162.88" x2="192.66" y2="148.85" xlink:href="#linear-gradient-9"/><linearGradient id="linear-gradient-13" x1="194.71" y1="72.33" x2="164.6" y2="130.02" xlink:href="#linear-gradient-6"/><linearGradient id="linear-gradient-14" x1="-3552.16" y1="82.34" x2="-3641.99" y2="160.47" gradientTransform="matrix(-1, 0, 0, 1, -3427.75, 0)" xlink:href="#linear-gradient-6"/><linearGradient id="linear-gradient-15" x1="-3588.23" y1="149.63" x2="-3586.35" y2="145.87" gradientTransform="matrix(-1, 0, 0, 1, -3427.75, 0)" gradientUnits="userSpaceOnUse"><stop offset="0" stop-color="#53d8ff"/><stop offset="1" stop-color="#3840f7"/></linearGradient><linearGradient id="linear-gradient-16" x1="-3595.96" y1="118.07" x2="-3609.91" y2="130.42" gradientTransform="matrix(-1, 0, 0, 1, -3427.75, 0)" xlink:href="#linear-gradient-9"/><linearGradient id="linear-gradient-17" x1="-3559.64" y1="74.06" x2="-3649.07" y2="151.84" gradientTransform="matrix(-1, 0, 0, 1, -3427.75, 0)" xlink:href="#linear-gradient-6"/><linearGradient id="linear-gradient-18" x1="-3545.59" y1="90.22" x2="-3635.01" y2="168" gradientTransform="matrix(-1, 0, 0, 1, -3427.75, 0)" xlink:href="#linear-gradient-6"/><linearGradient id="linear-gradient-19" x1="-3557.33" y1="108.19" x2="-3546.35" y2="108.19" gradientTransform="matrix(-1, 0, 0, 1, -3427.75, 0)" xlink:href="#linear-gradient-9"/><linearGradient id="linear-gradient-20" x1="-3568.01" y1="78.83" x2="-3568.13" y2="99.34" gradientTransform="matrix(-1, 0, 0, 1, -3427.75, 0)" xlink:href="#linear-gradient-9"/><linearGradient id="linear-gradient-21" x1="-3878.7" y1="1284.53" x2="-3888.8" y2="1297.89" gradientTransform="matrix(-0.99, -0.14, -0.14, 0.99, -3521.72, -1749.72)" xlink:href="#linear-gradient-9"/><linearGradient id="linear-gradient-22" x1="-3886.41" y1="1287.75" x2="-3874.35" y2="1287.75" gradientTransform="matrix(-0.99, -0.14, -0.14, 0.99, -3521.72, -1749.72)" xlink:href="#linear-gradient-3"/><linearGradient id="linear-gradient-23" x1="-3893.49" y1="1295.11" x2="-3885.39" y2="1286.8" gradientTransform="matrix(-0.99, -0.14, -0.14, 0.99, -3521.72, -1749.72)" xlink:href="#linear-gradient-9"/><linearGradient id="linear-gradient-24" x1="-3547.51" y1="106.9" x2="-3543.58" y2="106.9" gradientTransform="matrix(-1, 0, 0, 1, -3427.75, 0)" xlink:href="#linear-gradient-9"/><linearGradient id="linear-gradient-25" x1="-3503.67" y1="76.36" x2="-3669.6" y2="197.41" gradientTransform="matrix(-1, 0, 0, 1, -3427.75, 0)" xlink:href="#linear-gradient-3"/><linearGradient id="linear-gradient-26" x1="-3497.85" y1="103.3" x2="-3476" y2="84.3" gradientTransform="matrix(-1, 0, 0, 1, -3427.75, 0)" xlink:href="#linear-gradient-3"/><linearGradient id="linear-gradient-27" x1="-3478.75" y1="75.42" x2="-3559.67" y2="158.58" gradientTransform="matrix(-1, 0, 0, 1, -3427.75, 0)" xlink:href="#linear-gradient-4"/><linearGradient id="linear-gradient-28" x1="-3528.09" y1="77.85" x2="-3601.13" y2="152.9" gradientTransform="matrix(-1, 0, 0, 1, -3427.75, 0)" xlink:href="#linear-gradient-6"/><linearGradient id="linear-gradient-29" x1="-3526.21" y1="84.44" x2="-3599.24" y2="159.5" gradientTransform="matrix(-1, 0, 0, 1, -3427.75, 0)" xlink:href="#linear-gradient-6"/><linearGradient id="linear-gradient-30" x1="-3577.97" y1="113.24" x2="-3591.92" y2="125.59" gradientTransform="matrix(-1, 0, 0, 1, -3427.75, 0)" xlink:href="#linear-gradient-9"/></defs><g id="Layer_2" data-name="Layer 2"><g id="Layer_1-2" data-name="Layer 1"><path class="cls-1" d="M175.49,168.18c-5.18,5.34-6.27,6.11-9.82,8.48C131.05,199.77,81,194.19,68.73,191.91,49,188.24,39.3,186.94,25,174-7.55,144.62-6,83.31,18.89,45.33c2.95-4.5,27.33-39.44,67-44.63,1-.12,46.91-6.19,77.91,19.78A92.35,92.35,0,0,1,182,41.13C206.2,78.52,206.28,136.44,175.49,168.18Z"/><path class="cls-2" d="M184,20a.92.92,0,0,1,1.76,0c3,8.58,8.54,32.46-10,59.52-23.27,34-22.6,51.11-17.39,64.06a45.63,45.63,0,0,1-12.08-28.15C143.46,72.08,179.59,35.31,184,20Z"/><path class="cls-3" d="M182.57,33.66c-1.36,4.42-2.81,8.81-4.42,13.14s-3.3,8.62-5.15,12.85-3.8,8.4-5.92,12.5-4.37,8.12-6.66,12.13-4.58,8.08-6.49,12.37a47.32,47.32,0,0,0-3.87,13.57c-.13,1.18-.24,2.36-.29,3.53s-.08,2.35-.07,3.53a48.88,48.88,0,0,0,4.73,20.51.89.89,0,0,0,1.63-.73h0c-.45-1.05-.9-2.1-1.29-3.17-.2-.53-.38-1.06-.57-1.6s-.37-1.08-.52-1.62A47.34,47.34,0,0,1,152.2,124a51.88,51.88,0,0,1-.19-13.58,45.7,45.7,0,0,1,1.35-6.64,51.07,51.07,0,0,1,2.31-6.41c1.82-4.18,4.07-8.21,6.31-12.25s4.46-8.13,6.51-12.3q1.55-3.12,3-6.3c.48-1.06.94-2.12,1.41-3.19s.9-2.13,1.34-3.21q2.63-6.45,4.85-13c1.45-4.41,2.79-8.85,4-13.33a.23.23,0,0,0-.17-.29A.25.25,0,0,0,182.57,33.66Z"/><path class="cls-3" d="M142,112a2.32,2.32,0,0,1-3.79-.69,70.81,70.81,0,0,1,2.46-60.77c12.12-23.61,16.44-37.56,18-44a1.46,1.46,0,0,1,2.76-.23C167.45,20.55,183.43,69,142,112Z"/><path class="cls-4" d="M139.91,111.13a.56.56,0,0,1-.13,0,.64.64,0,0,1-.62-.66c0-.4,1.24-40.69,16.61-74.27a.64.64,0,0,1,.85-.31.63.63,0,0,1,.32.85c-15.25,33.34-16.48,73.37-16.49,73.77A.65.65,0,0,1,139.91,111.13Z"/><path class="cls-5" d="M13.75,172.69a3.14,3.14,0,0,0,3.13,3.14h169.5a3.14,3.14,0,0,0,3.13-3.14l1.41-97.4a5.46,5.46,0,0,0-5.75-4.83L19.53,66.17a7.91,7.91,0,0,0-8.11,8.08Z"/><path class="cls-6" d="M16.84,169.69a3,3,0,0,0,3,3H182.29a3,3,0,0,0,3-3l1.34-88.42a7.3,7.3,0,0,0-7.65-7.12L20.18,69.89a5.55,5.55,0,0,0-5.7,5.68Z"/><g class="cls-7"><path class="cls-8" d="M183.5,127.68h0a.44.44,0,0,1-.43-.44l.11-7.17a.43.43,0,0,1,.43-.43h0a.44.44,0,0,1,.43.44l-.11,7.18A.42.42,0,0,1,183.5,127.68Z"/><path class="cls-8" d="M183.76,110.11h0a.44.44,0,0,1-.43-.44l.41-27.47a5.17,5.17,0,0,0-1.48-3.86,7.31,7.31,0,0,0-4.8-1.64l-50.74-1.36a.44.44,0,0,1,0-.87l50.71,1.36a8.05,8.05,0,0,1,5.42,1.88,6,6,0,0,1,1.73,4.5l-.4,27.47A.43.43,0,0,1,183.76,110.11Z"/></g><rect class="cls-9" y="175.35" width="199.83" height="8.56" rx="3.96" transform="translate(199.83 359.26) rotate(180)"/><path class="cls-2" d="M125.08,24,24.5,23.37a5.76,5.76,0,0,0-5.78,6L25.64,172.3H137.56l6.21-127.66Z"/><path class="cls-10" d="M129.26,44a5.75,5.75,0,0,1-5.54-6.2l1.08-13.65,19,20.38Z"/><path class="cls-11" d="M71.78,51.26c9,0,43.69-.13,52.44-.15a2.1,2.1,0,0,1,1.94,2.32h0a2.13,2.13,0,0,1-2,2.19l-52.42.45a2.06,2.06,0,0,1-1.94-2l0-.3A2.18,2.18,0,0,1,71.78,51.26Z"/><path class="cls-11" d="M71.37,61.28c9,0,43.69-.12,52.44-.15a2.12,2.12,0,0,1,1.94,2.32h0a2.15,2.15,0,0,1-2,2.2l-52.42.44a2.06,2.06,0,0,1-1.94-2l0-.3A2.18,2.18,0,0,1,71.37,61.28Z"/><path class="cls-11" d="M40.06,75.57c13.95,0,67.47,0,81,0,1.7,0,3.09,1.06,3.06,2.33h0c0,1.22-1.34,2.18-3,2.19l-80.94.31c-1.56,0-2.89-.88-3.06-2l0-.3C36.91,76.71,38.28,75.56,40.06,75.57Z"/><path class="cls-11" d="M39.42,86.08c10.85,0,52.52-.28,63-.34a2.31,2.31,0,0,1,2.36,2.32h0a2.31,2.31,0,0,1-2.32,2.2l-63,.64a2.33,2.33,0,0,1-2.37-2l0-.3A2.29,2.29,0,0,1,39.42,86.08Z"/><path class="cls-11" d="M39.93,99.86c13.94,0,67.46,0,81,0,1.71,0,3.09,1.06,3.06,2.33h0c0,1.22-1.34,2.18-3,2.19l-80.94.31c-1.56,0-2.89-.88-3.06-2l0-.3C36.77,101,38.14,99.86,39.93,99.86Z"/><path class="cls-11" d="M38.71,110.55c10.91,0,52.77,0,63.34,0a2.31,2.31,0,0,1,2.36,2.33h0a2.3,2.3,0,0,1-2.34,2.18l-63.31.25a2.32,2.32,0,0,1-2.36-2l0-.29A2.29,2.29,0,0,1,38.71,110.55Z"/><path class="cls-11" d="M39.24,124.64c13.94,0,67.47,0,81,0,1.71,0,3.09,1.06,3.06,2.33h0c0,1.22-1.33,2.18-3,2.19l-80.94.31a2.91,2.91,0,0,1-3.06-2l0-.3C36.08,125.79,37.45,124.64,39.24,124.64Z"/><path class="cls-11" d="M38.4,135.21c10.9,0,52.76,0,63.33,0a2.31,2.31,0,0,1,2.37,2.33h0a2.31,2.31,0,0,1-2.35,2.18l-63.3.25a2.33,2.33,0,0,1-2.37-2l0-.29A2.29,2.29,0,0,1,38.4,135.21Z"/><path class="cls-11" d="M40.06,149.14c13.95,0,67.47,0,81,0,1.7,0,3.09,1.05,3.06,2.33h0c0,1.21-1.34,2.18-3,2.19L40.21,154c-1.56,0-2.89-.88-3.06-2.05l0-.29C36.91,150.29,38.28,149.14,40.06,149.14Z"/><path class="cls-11" d="M39.27,160.86c10.77,0,52.1-.06,62.54-.07a2.3,2.3,0,0,1,2.34,2.33h0a2.29,2.29,0,0,1-2.32,2.18l-62.5.37a2.32,2.32,0,0,1-2.34-2l0-.3A2.28,2.28,0,0,1,39.27,160.86Z"/><g class="cls-12"><path class="cls-8" d="M50.09,44.9,44.43,65.76l-1.54,0-10-25.59A4,4,0,0,0,31.5,38a13.25,13.25,0,0,0-3.89-.46v-.4l15.55.56v.39a17.65,17.65,0,0,0-3.82.15c-.71.16-1.07.52-1.07,1.07a2.57,2.57,0,0,0,.28,1L45.64,58.7l4.09-14.89-.95-3.11a3.39,3.39,0,0,0-1.31-2.13,12.86,12.86,0,0,0-3.95-.49v-.39l15.29.55v.38a16.7,16.7,0,0,0-3.72.15c-.7.16-1,.54-1,1.15a2.69,2.69,0,0,0,.17.95l5.71,18.18,4.84-13.17a10.68,10.68,0,0,0,.74-3.39c0-2.42-1.75-3.69-5.27-3.81v-.39l11.28.41v.38A4.63,4.63,0,0,0,67,42c-.14.3-.68,1.68-1.62,4.12L58.12,66l-1.46,0Z"/></g><path class="cls-13" d="M142.6,171.77c2,.18,5.46.46,8.18.58a7.85,7.85,0,0,0,3.13-.31v.17a.57.57,0,0,1-.54.54,97.42,97.42,0,0,1-10.71,0,.4.4,0,0,1-.33-.61A4.44,4.44,0,0,1,142.6,171.77Z"/><path class="cls-14" d="M150.78,172.35c-2.72-.12-6.18-.4-8.18-.58,2-2.4,8.18-4,8.18-4h1.76a7.3,7.3,0,0,1,1.37,4.29A7.85,7.85,0,0,1,150.78,172.35Z"/><path class="cls-15" d="M152.84,164.88l-.17,3.25a.74.74,0,0,1-.63.7,2.84,2.84,0,0,1-1.32-.11.86.86,0,0,1-.59-.67l-.57-3.17Z"/><path class="cls-16" d="M175.67,172.32a1.59,1.59,0,0,0,1.42-1h0a1.13,1.13,0,0,1-.76,1.29,4.86,4.86,0,0,1-2.09.32,2.08,2.08,0,0,1-1.58-.72h0A5.31,5.31,0,0,0,175.67,172.32Z"/><path class="cls-17" d="M171.59,164.86H173c2.21-.05,3.59,4.61,4.05,6.41a1.59,1.59,0,0,1-1.42,1,5.31,5.31,0,0,1-3-.16,13.84,13.84,0,0,1-2.07-5.21A1.83,1.83,0,0,1,171.59,164.86Z"/><path class="cls-18" d="M172.85,161.84l.81,3.2a.86.86,0,0,1-.45,1,3.12,3.12,0,0,1-1.67.41.73.73,0,0,1-.59-.49l-1.19-3.37Z"/><path class="cls-19" d="M173.81,162.76c-1,.89-4.26,1-4.26,1C157.82,135.61,153,131.61,153,131.61c1.7,10.63.28,34.16.28,34.16a7.1,7.1,0,0,1-4.44,0,181,181,0,0,0-6-44.54c7.93-.18,12.15-2.89,13.53-4C163,127.9,173.81,162.76,173.81,162.76Z"/><path class="cls-20" d="M154.38,84.86c1.5,7.49,1,20.89.61,27-.1,1.72,1.1,4.1,2.07,5.73a.5.5,0,0,1-.2.71,35.32,35.32,0,0,1-13.5,3.74.89.89,0,0,1-.91-.68,177.74,177.74,0,0,0-10.22-28.92C138.29,82.76,154.38,84.86,154.38,84.86Z"/><path class="cls-21" d="M152.22,130.94a.46.46,0,0,0,.2-.05.38.38,0,0,0,.12-.52,11.77,11.77,0,0,0-4.65-4,.37.37,0,0,0-.5.18.38.38,0,0,0,.17.5,11.18,11.18,0,0,1,4.34,3.75A.37.37,0,0,0,152.22,130.94Z"/><path class="cls-22" d="M163.8,106.35A25.83,25.83,0,0,1,159,117.68L158,116.8A33.45,33.45,0,0,0,158.5,106,13,13,0,0,1,163.8,106.35Z"/><path class="cls-23" d="M152.71,94.1l1.67-9.24s11.2,8.57,9.42,21.49a13,13,0,0,0-5.3-.38C158,101.82,156.46,97.32,152.71,94.1Z"/><path class="cls-24" d="M132.23,92.44l4.33,9.31c-.7,5.62-3.72,8-7,9a19.68,19.68,0,0,0-1.45-6.07C132.29,100.38,132.23,92.44,132.23,92.44Z"/><path class="cls-25" d="M128.13,104.67a19.68,19.68,0,0,1,1.45,6.07c-8.69,3.37-11-3.17-11-3.17l1.61-.28A9.1,9.1,0,0,0,128.13,104.67Z"/><path class="cls-26" d="M136.22,80.94l2.08,7.68a1.5,1.5,0,0,0,2,1c.89-.36,2-.85,3-1.37a2,2,0,0,0,.71-2.89l-4.34-6.47Z"/><path class="cls-27" d="M131.65,75.11c0,.14,1.74,8.76,1.74,8.76l4.9-1.11-.45-8.42S132,72.91,131.65,75.11Z"/><path class="cls-28" d="M136.74,76.22l.58,4.41a.49.49,0,0,1,0,.17c0,.35-.3,1.52-1.49,1.19a5.56,5.56,0,0,0-2.76-.36.61.61,0,0,0-.42.72,27.51,27.51,0,0,0,1.12,4,.63.63,0,0,0,.76.36A20.1,20.1,0,0,0,138.85,85a.6.6,0,0,0,.3-.56c0-1.11-.17-4.5-.06-5.45s1.19-1.42,1.67-1.62a.6.6,0,0,0,.34-.34A1.61,1.61,0,0,0,140,74.64a.62.62,0,0,1-.39-.8,1.62,1.62,0,0,0-.91-2.24,2.29,2.29,0,0,0-2.72.66.62.62,0,0,1-.79.09.5.5,0,0,0-.56,0,.62.62,0,0,1-.87-.26A1.86,1.86,0,0,0,131.61,71c-2.19.38-2.44,2.81-1.86,4.24s2.94.88,4.12.16a2.66,2.66,0,0,1,2.57.34A.6.6,0,0,1,136.74,76.22Z"/><path class="cls-29" d="M139.28,80.56s-.9-2.53,0-3.15,2.3-.3,2,1.54C140.93,81.23,139.28,80.56,139.28,80.56Z"/><path class="cls-30" d="M119.24,108.77c-.44.34-1.94-.38-2.85-.87a1,1,0,0,1-.51-1.25c.22-.69.59-1.59,1-1.7C117.67,104.76,121,107.36,119.24,108.77Z"/><path class="cls-31" d="M193,129.89,78.6,89.21l-6,16.81,114.36,41.82a5.32,5.32,0,0,0,6.44-2.33c1.34-2.29,2.62-5.88,2.69-11.25A4.57,4.57,0,0,0,193,129.89Z"/><path class="cls-32" d="M43.21,84.86,59,86.8A13.78,13.78,0,0,1,55.87,95L42.68,86.31A.79.79,0,0,1,43.21,84.86Z"/><path class="cls-33" d="M78.6,89.21a22,22,0,0,1-6,16.81L55.87,95A13.78,13.78,0,0,0,59,86.8Z"/><path class="cls-34" d="M191.58,135.05a.35.35,0,0,0,.32-.22.34.34,0,0,0-.2-.43L82.25,95.72a.33.33,0,0,0-.43.2.34.34,0,0,0,.2.43L191.47,135Z"/><path class="cls-35" d="M189.7,141.65a.34.34,0,0,0,.11-.66L80.36,102.31a.33.33,0,0,0-.43.21.35.35,0,0,0,.2.43l109.45,38.68Z"/><path class="cls-36" d="M158.4,116.65l-5.05-.42-2.19,2s.52.72,2.14.31a23.74,23.74,0,0,1,3.83-.52s2.24,1,2.27-.87Z"/></g></g></svg>