<svg xmlns="http://www.w3.org/2000/svg" viewBox="0 0 191.75 194.88"><defs><style>.cls-1{fill:#f5f5f5;}.cls-2{fill:#e1e1e1;}.cls-3{fill:#ececec;}.cls-4{fill:#00dfbf;}.cls-12,.cls-5{opacity:0.15;}.cls-11,.cls-16,.cls-18,.cls-19,.cls-20,.cls-23,.cls-6{fill:#fff;}.cls-7{fill:#2b454e;}.cls-8{fill:#1a2e35;}.cls-9{fill:#375a64;}.cls-10{fill:#fafafa;}.cls-11,.cls-24{opacity:0.3;}.cls-13{opacity:0.2;}.cls-14{fill:#ff9090;}.cls-15{opacity:0.1;}.cls-16{opacity:0.35;}.cls-17{opacity:0.05;}.cls-18{opacity:0.95;}.cls-19{opacity:0.8;}.cls-20,.cls-26{opacity:0.7;}.cls-21{fill:#ffaaa8;}.cls-22{fill:#c76668;}.cls-23,.cls-25{opacity:0.4;}.cls-27{opacity:0.25;}</style></defs><g id="Layer_2" data-name="Layer 2"><g id="Layer_1-2" data-name="Layer 1"><ellipse id="Floor" class="cls-1" cx="96.04" cy="136.31" rx="95.71" ry="58.57"/><path id="Shadow" class="cls-2" d="M144.47,160.61a2.86,2.86,0,0,1-1.43-.36l-16.92-9.77a1.75,1.75,0,0,1,0-3.13l28-16.18a3,3,0,0,1,2.86,0l16.92,9.77a1.75,1.75,0,0,1,0,3.13l-28,16.18A2.84,2.84,0,0,1,144.47,160.61Z"/><path id="Shadow-2" data-name="Shadow" class="cls-2" d="M108.91,182a27.26,27.26,0,0,1-6.34-.72,23.46,23.46,0,0,1-5.6-2.07l0,0c-.34-.19-.78-.45-1.34-.8s-1.07-.68-1.63-1-1.08-.71-1.57-1.05-.9-.63-1.19-.86a11.45,11.45,0,0,1-3.26-3.86,7.63,7.63,0,0,1-.68-4.94,10.11,10.11,0,0,1,2.57-4.79,20,20,0,0,1,5.64-4.14,36.57,36.57,0,0,1,7.9-3.18,29.93,29.93,0,0,1,7.18-1h.21a23.55,23.55,0,0,1,6.22.81,27.32,27.32,0,0,1,5.51,2.2c.67.37,1.39.81,2.17,1.32s1.44,1,2,1.41a6.64,6.64,0,0,1,2.2,2.58,4.82,4.82,0,0,1,.39,2.72h.3a3.53,3.53,0,0,1,2.14.69,2.57,2.57,0,0,1,1.07,2.51,14.52,14.52,0,0,1-.52,2.18,8.78,8.78,0,0,1-1.56,2.8,16.93,16.93,0,0,1-2.83,2.73,31.29,31.29,0,0,1-4.62,2.9,30.77,30.77,0,0,1-7.19,2.77,30.3,30.3,0,0,1-7,.89Zm-1.5-14.49.26.18a5.15,5.15,0,0,0,2.23.87l.39,0a2.86,2.86,0,0,0,.92-.15l-.24-.16a5.32,5.32,0,0,0-2.25-.89,2.66,2.66,0,0,0-.39,0A2.62,2.62,0,0,0,107.41,167.54Z"/><path id="Shadow-3" data-name="Shadow" class="cls-2" d="M58.75,174.23l-55-31.7a1.28,1.28,0,0,1,0-2.43L115.4,75.64a4.66,4.66,0,0,1,4.21,0l55,31.71a1.28,1.28,0,0,1,0,2.42L63,174.23A4.64,4.64,0,0,1,58.75,174.23Z"/><g id="Clouds"><path class="cls-3" d="M55.06,12.93l-2.8,1.62c0-.13,0-.25,0-.38v-.81c0-1.44-1-2-2.26-1.3a4.24,4.24,0,0,0-1.35,1.29c-.21-1.81-1.63-2.49-3.36-1.49a7.47,7.47,0,0,0-3.39,5.87v1.21a3.28,3.28,0,0,0,.28,1.41l-2.32,1.34a2.77,2.77,0,0,0-1.26,2.18c0,.8.56,1.12,1.26.72l15.18-8.76a2.79,2.79,0,0,0,1.25-2.18C56.31,12.85,55.75,12.53,55.06,12.93Z"/><path class="cls-3" d="M36.54,5.49,35,6.08V2.68c0-2.7-2.16-3.35-4.49-2h0A9.34,9.34,0,0,0,26.28,8V8.5a2.3,2.3,0,0,0-2,.31h0a6.72,6.72,0,0,0-3,5.27v.23l-2.16,1.24a4.41,4.41,0,0,0-2,3.47c0,1.28.89,1.8,2,1.16L36.54,10.12a4.44,4.44,0,0,0,2-3.47C38.55,5.37,37.65,4.85,36.54,5.49Z"/></g><g id="Plants"><path class="cls-4" d="M13.47,130.15l2.91-1.68a46.87,46.87,0,0,0,1-13.67c-1-9.1-7-12.53-9.24-11.74s-2.94,3.43.83,8.85C11.24,115.11,14,121.78,13.47,130.15Z"/><g class="cls-5"><path d="M13.47,130.15l2.91-1.68a46.87,46.87,0,0,0,1-13.67c-1-9.1-7-12.53-9.24-11.74s-2.94,3.43.83,8.85C11.24,115.11,14,121.78,13.47,130.15Z"/></g><path class="cls-6" d="M14.68,126.62h0a.21.21,0,0,1-.16-.24c1.59-8.4-1.34-17.83-5-21.76a.19.19,0,0,1,0-.28.19.19,0,0,1,.28,0c3.7,4,6.69,13.58,5.08,22.11A.21.21,0,0,1,14.68,126.62Z"/><path class="cls-4" d="M5.43,135.83c-.46.24-1.68-.81-2-1.07a4.17,4.17,0,0,1-1.34-1.69,4,4,0,0,1-.23-2.42,7.91,7.91,0,0,1,.37-1.26c.14-.41.28-.82.41-1.22a3.16,3.16,0,0,0,.25-1.24,3.24,3.24,0,0,0-1.45-2A3.16,3.16,0,0,1,0,122.49a3.62,3.62,0,0,1,1-2.09c.52-.6,1.12-1.11,1.6-1.74a2.56,2.56,0,0,0,.59-1.56,2.6,2.6,0,0,0-.29-1,13.23,13.23,0,0,1-1-2A2,2,0,0,1,2.37,112a2.34,2.34,0,0,1,1.78-.35,4,4,0,0,1,1.6.66c1.58,1,2.4,2.94,4.09,3.72a16.1,16.1,0,0,0,2.05.61,2.61,2.61,0,0,1,1.66,1.26c.56,1.3-.69,2.79-.31,4.15.33,1.2,1.46,1.71,2,2.81a2.56,2.56,0,0,1,.23,1.57,7.67,7.67,0,0,1-.79,2.58,23.68,23.68,0,0,1-1.55,2.39S5.5,135.8,5.43,135.83Z"/><path class="cls-6" d="M9.89,133.51h0a.21.21,0,0,1-.19-.22c.74-8-2.58-17-5.2-19.72a.2.2,0,0,1,0-.28.19.19,0,0,1,.28,0c2.67,2.76,6.06,11.94,5.32,20A.2.2,0,0,1,9.89,133.51Z"/><path class="cls-6" d="M9.09,123.66H9a27.26,27.26,0,0,0-5.76-1.23.2.2,0,0,1-.18-.22.2.2,0,0,1,.22-.18,27.48,27.48,0,0,1,5.86,1.25.2.2,0,0,1,.12.26A.18.18,0,0,1,9.09,123.66Z"/></g><g id="Device"><g id="Mobile"><path class="cls-7" d="M7.35,140.51,58.52,170a5.51,5.51,0,0,0,5.34.1l103-59.48a6.1,6.1,0,0,0,2.94-4.68,6.13,6.13,0,0,0-2.94-4.68l-51-29.43a6.52,6.52,0,0,0-5.87,0L7.35,131.15a5.19,5.19,0,0,0,0,9.36Z"/><path class="cls-8" d="M58.52,170,7.35,140.51a5.19,5.19,0,0,1,0-9.36L61.3,100v70.78A5.35,5.35,0,0,1,58.52,170Z"/><path class="cls-9" d="M59.74,164.78a5.76,5.76,0,0,0,5.18,0l102-58.87c2.19-1.27,2.19-3.34,0-4.6l-51-29.44a6.54,6.54,0,0,0-5.88,0L7.35,131.15c-1.61.93-1.61,2.46,0,3.39Z"/><path class="cls-7" d="M64.69,158.85a6.16,6.16,0,0,0,5.58,0L158,108.2c1.55-.89,1.55-2.34,0-3.23l-48-27.69a6.25,6.25,0,0,0-5.59,0L16.72,127.94c-1.53.89-1.53,2.34,0,3.22Z"/><path class="cls-8" d="M107.43,76.63a5.58,5.58,0,0,1,2.62.65L158,105c1.55.89,1.55,2.34,0,3.23l-9.5,5.49L107.43,87.45Z"/><path class="cls-10" d="M104.43,79.38a6.19,6.19,0,0,1,5.59,0l48,27.69a2.59,2.59,0,0,1,.73.58,2.89,2.89,0,0,1-.7.55L70.27,158.85a6.16,6.16,0,0,1-5.58,0l-48-27.69a2.88,2.88,0,0,1-.72-.57,2.61,2.61,0,0,1,.69-.55Z"/><path class="cls-8" d="M140.48,92,132,87.11c-.51-.29-.53-.75-.06-1a2,2,0,0,1,1.78,0L142.2,91c.51.29.54.75.06,1A2,2,0,0,1,140.48,92Z"/><path class="cls-8" d="M125.88,83.61a.53.53,0,0,1,0-1,2,2,0,0,1,1.73,0,.53.53,0,0,1,0,1A2,2,0,0,1,125.88,83.61Z"/><path class="cls-8" d="M122.44,81.61a.52.52,0,0,1,0-1,1.87,1.87,0,0,1,1.72,0,.52.52,0,0,1,0,1A1.87,1.87,0,0,1,122.44,81.61Z"/><path class="cls-8" d="M150,97.53a.52.52,0,0,1,0-1,1.87,1.87,0,0,1,1.72,0,.52.52,0,0,1,0,1A1.87,1.87,0,0,1,150,97.53Z"/><path class="cls-8" d="M146.56,95.54a.53.53,0,0,1,0-1,1.93,1.93,0,0,1,1.72,0,.53.53,0,0,1,0,1A1.93,1.93,0,0,1,146.56,95.54Z"/></g><g id="Mail_Notification" data-name="Mail Notification"><path class="cls-4" d="M62.54,144.71v.18a1,1,0,0,0,.47.81l10,5.76a1,1,0,0,0,.93,0l16.53-9.54a1,1,0,0,0,.46-.81v-.18a1,1,0,0,0-.46-.81l-10-5.76a1,1,0,0,0-.93,0L63,143.9A1,1,0,0,0,62.54,144.71Z"/><path class="cls-4" d="M62.54,144.71v.18a1,1,0,0,0,.47.81l10,5.76a1,1,0,0,0,.93,0l16.53-9.54a1,1,0,0,0,.46-.81v-.18a1,1,0,0,0-.46-.81l-10-5.76a1,1,0,0,0-.93,0L63,143.9A1,1,0,0,0,62.54,144.71Z"/><path class="cls-11" d="M90.45,140.12l-10-5.76a1,1,0,0,0-.93,0l-6.08,3.51v13.7h0a1,1,0,0,0,.46-.11l16.53-9.54a1,1,0,0,0,.46-.81v-.18A1,1,0,0,0,90.45,140.12Z"/><path class="cls-12" d="M90.45,140.12l-10-5.76a1,1,0,0,0-.93,0l-6.08,3.51v13.7h0a1,1,0,0,0,.46-.11l16.53-9.54a1,1,0,0,0,.46-.81v-.18A1,1,0,0,0,90.45,140.12Z"/><path class="cls-11" d="M73.46,137.87,63,143.9a1,1,0,0,0-.47.81v.18a1,1,0,0,0,.47.81l10,5.76a1,1,0,0,0,.47.11h0Z"/><path class="cls-13" d="M73.46,137.87,63,143.9a1,1,0,0,0-.47.81v.18a1,1,0,0,0,.47.81l10,5.76a1,1,0,0,0,.47.11h0Z"/><path class="cls-4" d="M71.39,149.28,63,144.44a.28.28,0,0,1,0-.54l16.53-9.54a1,1,0,0,1,.93,0l10,5.76a.28.28,0,0,1,0,.54l-2.74,1.58-1,.55L73.92,150.2a1,1,0,0,1-.93,0l-.81-.47Z"/><path class="cls-11" d="M71.39,149.28,63,144.44a.28.28,0,0,1,0-.54l16.53-9.54a1,1,0,0,1,.93,0l10,5.76a.28.28,0,0,1,0,.54l-2.74,1.58-1,.55L73.92,150.2a1,1,0,0,1-.93,0l-.81-.47Z"/><path class="cls-12" d="M79,141.24l11.45-1.12-11.35.64,1.37-6.4a1,1,0,0,0-.51-.11l-2.14,8.66-15,1.24a.31.31,0,0,0,.19.29l12.11-.71-1.66,6.58,2.13-6.6h0l2.07-.12a1.11,1.11,0,0,0,.68-.29h0a1.14,1.14,0,0,0,.35-.6Z"/><path class="cls-11" d="M66.4,143.85l11.42-.94.41-1.64.23-.91,1.5-6.11a1,1,0,0,0-.42.11l-8.27,4.77L63,143.9a.34.34,0,0,0-.19.25l2.29-.19Z"/><path class="cls-14" d="M78.11,133a4.19,4.19,0,0,1,3.78,0,1.15,1.15,0,0,1,0,2.18,4.13,4.13,0,0,1-3.78,0A1.15,1.15,0,0,1,78.11,133Z"/><path class="cls-10" d="M78.68,134.44a.11.11,0,0,1-.08,0,.08.08,0,0,1,0,0l.16-.69,0-.06s0,0,0-.06l.39-.22.08,0,.09,0,2,1.17a.05.05,0,0,1,0,.05s0,0,0,0l-.41.23a.11.11,0,0,1-.08,0s-.07,0-.09,0L79.44,134l-.09.38a.07.07,0,0,1,0,.05h-.09Z"/></g><g id="Notification"><path class="cls-4" d="M97.31,137.42l-11.23-6.48a.28.28,0,0,1,0-.54l40.75-23.53a1.08,1.08,0,0,1,.93,0L139,113.36c.26.15.26.39,0,.53L98.24,137.42A1,1,0,0,1,97.31,137.42Z"/><path class="cls-10" d="M95.15,130.1a.27.27,0,0,1-.12,0h-.09l-2.33-.27,1.38.8s0,0,0,.05,0,0,0,.06l-.27.15a.15.15,0,0,1-.09,0s-.07,0-.09,0l-2.17-1.25a.05.05,0,0,1,0-.1l.24-.14a.2.2,0,0,1,.11,0h.09l2.34.26-1.38-.79a.07.07,0,0,1,0-.06s0,0,0-.05l.27-.16.09,0,.09,0,2.17,1.26a.06.06,0,0,1,0,.1Z"/><path class="cls-10" d="M95,129.17a1.22,1.22,0,0,1-.3-.24.48.48,0,0,1-.12-.26.37.37,0,0,1,.07-.26.72.72,0,0,1,.27-.24,1.34,1.34,0,0,1,.41-.15,1.61,1.61,0,0,1,.44-.05,3.11,3.11,0,0,1,.44.06,1.45,1.45,0,0,1,.38.16l.16.09a.06.06,0,0,1,0,.1l-1.13.65a.58.58,0,0,0,.17.06H96a.57.57,0,0,0,.18,0l.17-.07a.49.49,0,0,0,.15-.12.14.14,0,0,0,.05-.09.16.16,0,0,1,0-.06.11.11,0,0,1,.05,0l.27-.16.09,0,.09,0a.26.26,0,0,1,.07.1.25.25,0,0,1,0,.17A.66.66,0,0,1,97,129a1.14,1.14,0,0,1-.28.22,1.84,1.84,0,0,1-.41.16,1.6,1.6,0,0,1-.44,0,1.77,1.77,0,0,1-.46-.07A1.72,1.72,0,0,1,95,129.17Zm.32-.76a.33.33,0,0,0-.14.11.17.17,0,0,0,0,.11.19.19,0,0,0,0,.1l.07.08.76-.44-.13-.05-.16,0a.65.65,0,0,0-.19,0A.69.69,0,0,0,95.33,128.41Z"/><path class="cls-10" d="M98.84,127.15l-.65-.73,0,0s0,0,0-.05l.26-.15.09,0,.09,0,0,0,1,1.18a.14.14,0,0,1,0,.06s0,0,0,0l-.25.15-.09,0-.09,0L98,127.31l.57.7s0,0,0,.05,0,0,0,.05l-.25.15a.17.17,0,0,1-.1,0l-.08,0-2.06-.6h0s0,0,0,0,0,0,0-.06l.25-.14a.16.16,0,0,1,.09,0l.09,0,1.26.38-.64-.74s0,0,0-.05a.05.05,0,0,1,0,0l.26-.15.09,0h.08Z"/><path class="cls-10" d="M100.36,126.08a1.22,1.22,0,0,1-.3-.24.48.48,0,0,1-.12-.26.37.37,0,0,1,.07-.26.72.72,0,0,1,.27-.24,1.34,1.34,0,0,1,.41-.15,1.61,1.61,0,0,1,.44-.05,3.11,3.11,0,0,1,.44.06,1.68,1.68,0,0,1,.39.16l.15.09a.06.06,0,0,1,0,.1l-1.12.65a.44.44,0,0,0,.16.06h.19l.18,0,.17-.07a.49.49,0,0,0,.15-.12.14.14,0,0,0,0-.09.16.16,0,0,1,0-.06l0,0,.27-.16.09,0,.09,0a.26.26,0,0,1,.07.1.25.25,0,0,1,0,.17.57.57,0,0,1-.12.21,1.14,1.14,0,0,1-.28.22,1.84,1.84,0,0,1-.41.16,1.6,1.6,0,0,1-.44,0,1.69,1.69,0,0,1-.45-.07A1.78,1.78,0,0,1,100.36,126.08Zm.32-.76a.4.4,0,0,0-.14.11.25.25,0,0,0,0,.11.19.19,0,0,0,0,.1l.07.08.76-.44-.13,0-.16,0-.18,0A.64.64,0,0,0,100.68,125.32Z"/><path class="cls-10" d="M102.11,124.26a.29.29,0,0,1,0-.2.53.53,0,0,1,.19-.17,1.18,1.18,0,0,1,.42-.15,1.48,1.48,0,0,1,.42,0,.2.2,0,0,1,0-.13.37.37,0,0,1,0-.14.52.52,0,0,1,.1-.11.45.45,0,0,1,.13-.1,1.5,1.5,0,0,1,.38-.15,1.62,1.62,0,0,1,.38,0,1.55,1.55,0,0,1,.36.08,2,2,0,0,1,.33.16l.9.52a.05.05,0,0,1,0,.1l-.25.15-.09,0-.09,0-.89-.51a1,1,0,0,0-.4-.14.67.67,0,0,0-.34.09c-.09.06-.14.12-.14.19s.06.15.2.23l.9.52s0,0,0,.06,0,0,0,0l-.25.14a.16.16,0,0,1-.09,0,.12.12,0,0,1-.09,0l-.89-.51a.93.93,0,0,0-.4-.13.67.67,0,0,0-.34.09.22.22,0,0,0-.14.19c0,.07.07.15.22.24l.88.51a.05.05,0,0,1,0,.1l-.25.15-.09,0-.09,0-1.57-.9s0,0,0,0a.07.07,0,0,1,0-.06l.26-.14a.12.12,0,0,1,.09,0,.16.16,0,0,1,.09,0Z"/><path class="cls-10" d="M105,122.88a.27.27,0,0,1-.09-.12.25.25,0,0,1,0-.17.7.7,0,0,1,.1-.19,1.17,1.17,0,0,1,.26-.2,1.54,1.54,0,0,1,.35-.15,1.43,1.43,0,0,1,.75,0,1.51,1.51,0,0,1,.35.14l1,.57s0,0,0,.05,0,0,0,.06l-.26.14s0,0-.09,0a.15.15,0,0,1-.09,0l-.11-.06a.27.27,0,0,1,0,.21.82.82,0,0,1-.27.24,1.88,1.88,0,0,1-.3.12,1,1,0,0,1-.3,0,1,1,0,0,1-.29,0,1.06,1.06,0,0,1-.25-.09c-.15-.09-.22-.19-.2-.31a.68.68,0,0,1,.27-.35l.45-.37a.38.38,0,0,0-.29-.06.76.76,0,0,0-.28.09.48.48,0,0,0-.1.09.16.16,0,0,0,0,.09.08.08,0,0,1,0,0,.1.1,0,0,1,0,0l-.31.18a.1.1,0,0,1-.07,0A.06.06,0,0,1,105,122.88Zm1.5.23a.63.63,0,0,0,.17-.14.31.31,0,0,0,.07-.14.27.27,0,0,0,0-.12.24.24,0,0,0-.11-.09l0,0-.38.31a.32.32,0,0,0-.13.15.1.1,0,0,0,.06.11.27.27,0,0,0,.18,0A.68.68,0,0,0,106.52,123.11Z"/><path class="cls-10" d="M106.23,121l.09,0,.09,0,.26.15s0,0,0,.06,0,0,0,0l-.29.16a.15.15,0,0,1-.18,0l-.26-.15a.05.05,0,0,1,0-.1Zm2.36,1.28s0,0,0,0,0,0,0,.06l-.25.14-.09,0s-.07,0-.09,0l-1.57-.9a.05.05,0,0,1,0,0s0,0,0,0l.26-.15.09,0,.09,0Z"/><path class="cls-10" d="M109.49,121.71s0,0,0,.06,0,0,0,0l-.25.14a.16.16,0,0,1-.09,0,.17.17,0,0,1-.1,0l-2.2-1.27a.06.06,0,0,1,0-.1l.26-.15.09,0,.09,0Z"/><path class="cls-10" d="M96.18,131.9l33.25-19.19a1.49,1.49,0,0,1,1.34-.09c.33.19.26.54-.14.78L97.37,132.6a1.5,1.5,0,0,1-1.33.08C95.71,132.49,95.77,132.14,96.18,131.9Z"/><path class="cls-10" d="M98.52,133.25l33.25-19.2a1.5,1.5,0,0,1,1.33-.08c.33.19.27.54-.14.77l-33.25,19.2a1.46,1.46,0,0,1-1.34.08C98,133.83,98.11,133.49,98.52,133.25Z"/></g></g><g id="Character_Envelope" data-name="Character Envelope"><polygon id="Shadow-4" data-name="Shadow" class="cls-2" points="49.15 145.71 31.78 135.69 109.58 90.77 127.3 100.59 49.15 145.71"/><g id="Back"><path class="cls-4" d="M44.45,83.2l74-42.72,3,1.71a3.12,3.12,0,0,1,1.39,2.41V99.18a3.09,3.09,0,0,1-1.39,2.41L50.19,142.7a3,3,0,0,1-2.78,0l-1.57-.9a3.1,3.1,0,0,1-1.39-2.41Z"/><path class="cls-13" d="M44.45,83.2l74-42.72,3,1.71a3.12,3.12,0,0,1,1.39,2.41V99.18a3.09,3.09,0,0,1-1.39,2.41L50.19,142.7a3,3,0,0,1-2.78,0l-1.57-.9a3.1,3.1,0,0,1-1.39-2.41Z"/><path class="cls-4" d="M118,35.69l.3-.17-1.15-.67h0l-.3-.14L84.31,22.64a2.24,2.24,0,0,0-2.5.8L45.39,76.63a6.31,6.31,0,0,0-.94,3V83.2l1.13.66,72.86-43.38V37A2.36,2.36,0,0,0,118,35.69Z"/><path class="cls-15" d="M83.32,23.7a2,2,0,0,0-.38.39L46.52,77.29a5.49,5.49,0,0,0-.68,1.52l-1.13-.66a6.29,6.29,0,0,1,.29-.8,0,0,0,0,0,0,0c.05-.11.1-.21.16-.32l0,0a3.37,3.37,0,0,1,.19-.32L81.81,23.44a2,2,0,0,1,.19-.22l.19-.18Z"/><path class="cls-16" d="M118.32,35.52a2.2,2.2,0,0,0-.31-.15L85.44,23.3a2.22,2.22,0,0,0-2.12.4L82.19,23a2.27,2.27,0,0,1,2.12-.4l32.57,12.07a1.4,1.4,0,0,1,.3.15Z"/><path class="cls-4" d="M45.19,77c.07-.11.13-.22.2-.32C45.32,76.73,45.26,76.84,45.19,77Z"/><path class="cls-4" d="M82,23.22l.19-.18A1.62,1.62,0,0,0,82,23.22Z"/><path class="cls-4" d="M44.71,78.15a6.29,6.29,0,0,1,.29-.8A6.29,6.29,0,0,0,44.71,78.15Z"/><path class="cls-4" d="M45,77.32c.05-.11.1-.21.16-.32C45.11,77.11,45.06,77.21,45,77.32Z"/><path class="cls-13" d="M45,77.35v0Z"/><polygon class="cls-13" points="44.71 78.15 44.71 78.15 44.71 78.15 44.71 78.15"/><polygon class="cls-13" points="82.19 23.04 82.19 23.04 82.19 23.04 82.19 23.04"/><path class="cls-13" d="M45.17,77a.08.08,0,0,0,0,0A.08.08,0,0,1,45.17,77Z"/><path class="cls-13" d="M81.81,23.44a2,2,0,0,1,.19-.22A2,2,0,0,0,81.81,23.44Z"/><path class="cls-4" d="M82.94,24.09,46.52,77.29a6.24,6.24,0,0,0-.94,3v3.54l74-42.72V37.61A2.58,2.58,0,0,0,118,35.36L85.44,23.3A2.24,2.24,0,0,0,82.94,24.09Z"/><path class="cls-17" d="M119.57,37.61a2.43,2.43,0,0,0-.4-1.25L45.84,78.81h0a5.73,5.73,0,0,0-.25,1.5v3.54l74-42.72Z"/></g><g id="Paper"><path class="cls-4" d="M116.41,22.61a.85.85,0,0,0-.35-.77l-2.26-1.31a.87.87,0,0,0-.85.09l-60.69,35a2.65,2.65,0,0,0-1.2,2.08v72.67a.85.85,0,0,0,.35.78l2.26,1.3a.84.84,0,0,0,.85-.08l60.69-35a2.65,2.65,0,0,0,1.2-2.08Z"/><path class="cls-18" d="M116.41,22.61a.85.85,0,0,0-.35-.77l-2.26-1.31a.87.87,0,0,0-.85.09l-60.69,35a2.65,2.65,0,0,0-1.2,2.08v72.67a.85.85,0,0,0,.35.78l2.26,1.3a.84.84,0,0,0,.85-.08l60.69-35a2.65,2.65,0,0,0,1.2-2.08Z"/><path class="cls-4" d="M54.52,132.41l60.69-35a2.65,2.65,0,0,0,1.2-2.08V22.61c0-.76-.54-1.07-1.21-.69L54.52,57A2.62,2.62,0,0,0,53.32,59v72.68C53.32,132.48,53.85,132.79,54.52,132.41Z"/><path class="cls-19" d="M54.52,132.41l60.69-35a2.65,2.65,0,0,0,1.2-2.08V22.61c0-.76-.54-1.07-1.21-.69L54.52,57A2.62,2.62,0,0,0,53.32,59v72.68C53.32,132.48,53.85,132.79,54.52,132.41Z"/><path class="cls-4" d="M53.31,131.72a.92.92,0,0,0,.29.73l-2.18-1.26a.83.83,0,0,1-.36-.77V57.73a2.45,2.45,0,0,1,.36-1.18l2.25,1.3A2.45,2.45,0,0,0,53.31,59Z"/><path class="cls-20" d="M53.31,131.72a.92.92,0,0,0,.29.73l-2.18-1.26a.83.83,0,0,1-.36-.77V57.73a2.45,2.45,0,0,1,.36-1.18l2.25,1.3A2.45,2.45,0,0,0,53.31,59Z"/><path class="cls-17" d="M53.31,131.72a.92.92,0,0,0,.29.73l-2.18-1.26a.83.83,0,0,1-.36-.77V57.73a2.45,2.45,0,0,1,.36-1.18l2.25,1.3A2.45,2.45,0,0,0,53.31,59Z"/></g><g id="Character"><path class="cls-7" d="M75.46,76.79c-.26,6.76.19,21.25.19,21.25s7.17,2.16,12,1.35S103,91.21,103,91.21l-1.73-15.68Z"/><path class="cls-8" d="M92.1,97.79l1.17-11a14.88,14.88,0,0,0,6-6.5c-4.16,5.45-8.49,4.56-8.49,4.56V98.37C91.24,98.19,91.67,98,92.1,97.79Z"/><path class="cls-9" d="M104.11,56.41c1.16-5.88,1.68-13.7-3.44-15.14A21,21,0,0,0,96,41.16l-5.52.27c-3.08.4-7.39,1-8.52,1.29-3,.72-3.84,5.57-5.17,16.3A140,140,0,0,0,75.2,77.53c5.42,4.86,22.37,3,26.23-.21C101.59,69.9,102,67.15,104.11,56.41Z"/><path class="cls-7" d="M89.49,39.43c0,1.07,1.18,2.89,3.08,4.16s3.52,1.79,3.73,2.32a3.09,3.09,0,0,0-2.38,2.16c-.64,1.47-.63,1.52-2.82,0S87,43.06,87,41.9s1.72-3.41,2.56-3.22Z"/><path class="cls-7" d="M96.3,45.91a7.52,7.52,0,0,0,1.32-3.21c.08-.76.28-2.76.28-2.76a1.52,1.52,0,0,1,.76.49,11.07,11.07,0,0,1,1.36,4.1,10.31,10.31,0,0,1-.81,3.92c-.45.77-.76-.58-1-1.1A2.31,2.31,0,0,0,96.3,45.91Z"/><path class="cls-7" d="M95.43,47.45a51.7,51.7,0,0,1-.34,7.42A7.88,7.88,0,0,0,98,54.8s-.74.91-3.44.49A78.11,78.11,0,0,0,95.43,47.45Z"/><path class="cls-8" d="M106.9,25.08a7.69,7.69,0,0,0-15.34-.59L88.06,22a2.71,2.71,0,0,0-2.24.83c-1,1-.37,4.1.88,7.13a61.78,61.78,0,0,0,1.75,6.42,2.5,2.5,0,0,0,1.47,1.15l-.12-3.36,14-1-1.39-1A7.66,7.66,0,0,0,106.9,25.08Z"/><path class="cls-21" d="M89.59,30.18c-.44.27-.84-.66-1.64-1.14s-2.22-1.12-3.23.57S85.61,34,87,34.48a2.06,2.06,0,0,0,2.79-.83l-.43,8.55c2.8,5.09,11.09,4.76,8.27.5L98,39.4a15.48,15.48,0,0,0,3.28.12c1.79-.3,2.89-1.73,3.41-3.68.82-3.12,1.12-5.64.29-11.75-.91-6.69-8.72-6.64-12.89-3.93S89.59,30.18,89.59,30.18Z"/><path class="cls-8" d="M106.64,17.84a2.91,2.91,0,0,0-1.89-.21,2.29,2.29,0,0,0-1.37-2.3,2.65,2.65,0,0,0-2.89.39,1.34,1.34,0,0,0-1.11-1.52,3.62,3.62,0,0,0-2.06.33c-1,.38-1.95.8-2.95,1.13a26.07,26.07,0,0,0-5.21,1.87,3.48,3.48,0,0,0-1,.84,2.76,2.76,0,0,0-.45,1.75,4.14,4.14,0,0,0,.09.6,1.47,1.47,0,0,0-2.45.37L88,22.46c-.07.54-.14,1.07-.19,1.6a14.52,14.52,0,0,0-.1,4.46,1.12,1.12,0,0,0,.18.47,8.55,8.55,0,0,1,1.37,1.34c.21.25.45.65.78.75a.8.8,0,0,0,.92-.42A1.44,1.44,0,0,0,91,30c-.09-.87-.17-1.74-.26-2.61a1.6,1.6,0,0,1,0-.69,2.07,2.07,0,0,1,.64-.68,3,3,0,0,0,1-2.09,3,3,0,0,1,.07-.74c0-.19.2-.47.41-.47.41,0,2.62.48,3.18.55,2.9.4,6,.48,8.56-.95,1-.55,2.68-1.7,2.85-2.93A1.64,1.64,0,0,0,106.64,17.84Z"/><path class="cls-14" d="M98,39.4a30.68,30.68,0,0,1-5.41-1.47,4.51,4.51,0,0,1-2-1.88,6.35,6.35,0,0,0,1.13,2.24c1,1.29,6.13,2.17,6.13,2.17Z"/><path class="cls-8" d="M97.79,29.46a.75.75,0,1,1-.76-.77A.77.77,0,0,1,97.79,29.46Z"/><path class="cls-8" d="M96.33,26.67l-1.76.85A1,1,0,0,1,95,26.18,1,1,0,0,1,96.33,26.67Z"/><path class="cls-22" d="M96.35,34.15l3.18,1.14a1.66,1.66,0,0,1-2.13,1.08A1.77,1.77,0,0,1,96.35,34.15Z"/><path class="cls-14" d="M98.36,36.41A1.68,1.68,0,0,0,96.5,35l-.2,0a1.72,1.72,0,0,0,1.1,1.33A1.66,1.66,0,0,0,98.36,36.41Z"/><path class="cls-8" d="M104.67,27.25l-1.7-.89a.92.92,0,0,1,1.27-.4A1,1,0,0,1,104.67,27.25Z"/><path class="cls-8" d="M103.8,29.34a.75.75,0,0,1-.73.78.77.77,0,0,1-.77-.77.76.76,0,0,1,.74-.78A.75.75,0,0,1,103.8,29.34Z"/><polygon class="cls-14" points="99.98 28.87 100.13 33.72 102.99 33.06 99.98 28.87"/></g><g id="Front"><path class="cls-4" d="M120.91,99.91a.38.38,0,0,1-.08.11L90,90.24a5.32,5.32,0,0,0-6.66,2.06l-33,49-1.22.7h0a1,1,0,0,1-.94.11L82.1,91.6a5.33,5.33,0,0,1,6.67-2Z"/><path class="cls-23" d="M80.3,97.1l.08-.06-30,44.25-1.22.7h0a1,1,0,0,1-.95.1L79.12,96.39Z"/><path class="cls-23" d="M120.91,99.91l-.07.11L90,90.24a5.31,5.31,0,0,0-6.66,2.06l-1.22-.71a5.32,5.32,0,0,1,6.65-2Z"/><path class="cls-4" d="M122.76,44.26h0c-.07-.4-.28-.52-.55-.33a1.82,1.82,0,0,0-.36.37l-.15.22L91.27,90.77,86.73,97.1a2.59,2.59,0,0,1-2.5.94l-3.92-.93-29.94-11a1.6,1.6,0,0,0-.61,0,.9.9,0,0,0-.23.08l1.13-.66L79.36,96l3.78,1.35a2.55,2.55,0,0,0,2.5-.94l4.55-6.32,30.57-46.47a1.27,1.27,0,0,1,.34-.32l-2.64-1.52,1.11-.64,1.83,1A3.2,3.2,0,0,1,122.76,44.26Z"/><path class="cls-23" d="M91.27,90.77,86.73,97.1a2.59,2.59,0,0,1-2.5.94L80.3,97.1l.08-.06.19-.3,2.57.61a2.59,2.59,0,0,0,2.5-.94l4.5-6.26Z"/><path class="cls-15" d="M121.4,42.19l-1.83-1-1.11.63,2.64,1.53h0a1.3,1.3,0,0,0-.34.32L90.18,90.09l0,.06h0l1.13.62L121.7,44.51l.15-.21a1.59,1.59,0,0,1,.36-.37c.27-.19.48-.08.55.32h0A3.2,3.2,0,0,0,121.4,42.19Z"/><path class="cls-4" d="M51,87,44.45,83.2v56.19a3.1,3.1,0,0,0,1.39,2.41l1.57.9a3,3,0,0,0,2.78,0l.79-.45Z"/><path class="cls-12" d="M51,87,44.45,83.2v56.19a3.1,3.1,0,0,0,1.39,2.41l1.57.9a3,3,0,0,0,2.78,0l.79-.45Z"/><path class="cls-4" d="M122.79,44.6V99.18a2.89,2.89,0,0,1-.43,1.41,3,3,0,0,1-.82.92l-.05,0-.09.07L50.2,142.7h0a1,1,0,0,1-.95.12.86.86,0,0,1-.42-.67,2,2,0,0,1,0-.25V87.32a1.21,1.21,0,0,1,1.57-1.23l29.94,11,3.92.93a2.59,2.59,0,0,0,2.5-.94l4.54-6.33L121.7,44.52l.15-.22C122.37,43.58,122.79,43.72,122.79,44.6Z"/><path class="cls-4" d="M121.4,101.6l.09-.06.05,0a3.12,3.12,0,0,0,1.25-2.29L91.27,90.77l21.11,16Z"/><path class="cls-13" d="M121.4,101.6l.09-.06.05,0a3.12,3.12,0,0,0,1.25-2.29L91.27,90.77l21.11,16Z"/><path class="cls-4" d="M48.8,141.9a1,1,0,0,0,.44.91,1,1,0,0,0,.95-.1h0l24.51-14.15,5.6-31.44L48.8,141Z"/><path class="cls-12" d="M83.33,92.29,49.24,142.81a1,1,0,0,1-.44-.91V141L82.11,91.6h0Z"/><path class="cls-4" d="M122.36,100.59a2.89,2.89,0,0,1-.82.91l-.05,0L50.2,142.7h0a1,1,0,0,1-.95.1L83.33,92.28A5.38,5.38,0,0,1,90,90.22Z"/><path class="cls-12" d="M44.71,78.15l1.13.66a5.51,5.51,0,0,0-.26,1.52v3.52l-1.13-.65V79.67A5.57,5.57,0,0,1,44.71,78.15Z"/><polygon class="cls-4" points="50.66 85.48 49.53 86.14 48.39 85.47 45.58 83.86 46.67 83.21 50.66 85.48"/><path class="cls-15" d="M50.71,85.5l-4-2.29-1.09.65,2.81,1.62,1.14.66h0l.22-.07a1.58,1.58,0,0,1,.61,0l2.27.84,26.14,9.62.4-.6Z"/></g><g id="Arm"><path class="cls-21" d="M81.91,42.72c-3.63.26-6.11,1.12-8.45,6.74C72,53.09,66,66.14,65.45,68.29c-.67,2.54-2.19,21.79-2.19,21.79l3.46,1.29s-1.18,4.15-2.18,6.51c-1.16,2.73,4.48,2.16,6.29-.32s3-5.8,2.06-7a16.74,16.74,0,0,0-2.75-2.54l3.79-17.17L81.87,54S85.86,45.68,81.91,42.72Z"/><path class="cls-14" d="M70.14,88.05a7.54,7.54,0,0,0-3.51-1,6.78,6.78,0,0,1,3.67,0Z"/><path class="cls-7" d="M82.74,42.55c-2,0-5.84-.11-8.3,4.34s-6,12.89-6,12.89,1.45,3.56,9.2,4.31l5.93-12.63S85.06,45.67,82.74,42.55Z"/></g><g id="Arm-2" data-name="Arm"><path class="cls-21" d="M109,45.46c3.06,2.42,8,6.21,10.44,7.73,1.83-2.21,5.19-6.68,6-7.66a26.16,26.16,0,0,1,4.31-3.28l1.24,5s-6.21,11.45-8.45,13.57-4.09,1.31-8.72-.82c-4.37-2-9.12-4.49-9.12-4.49.94-8.32.3-12.82-3.67-14.23C103.72,41.57,106.45,43.44,109,45.46Z"/><path class="cls-7" d="M117,51.52c-1.6.44-4.91,5.14-4.3,8.12l-8.42-4.17c1-5.74,1.23-12.84-3.61-14.2a7.27,7.27,0,0,0-1.42-.18h0a7.83,7.83,0,0,1,6.52,1.74C108.31,44.73,117,51.52,117,51.52Z"/><path class="cls-14" d="M119.46,53.19c-1.2,1.06-1.59,3-1.83,3.72a6.62,6.62,0,0,1,1.14-4.17Z"/><path class="cls-7" d="M131.19,36.71,134.08,35s.33,15.58.34,16.08a1.69,1.69,0,0,0,.61,1l-2.89,1.75a1.75,1.75,0,0,1-.61-1C131.52,52.29,131.19,36.71,131.19,36.71Z"/><path class="cls-21" d="M134.22,41.45s.83.2,1.14,1.48.48,3.75-.26,4.56a2.34,2.34,0,0,1-2.42.87c-1.25-.55-.87-3.09.14-3.68,1.6-.94,1.41-2,1.41-2Z"/><path class="cls-9" d="M127.64,36.75l1.26,1.55.23,11-1.28,2.14,4.29,2.36a1.58,1.58,0,0,1-.61-1l-.29-14.06Z"/><polygon class="cls-4" points="127.85 51.43 127.86 52.11 132.16 54.47 132.14 53.79 127.85 51.43"/><polygon class="cls-4" points="132.16 54.47 135.04 52.72 135.03 52.05 132.14 53.79 132.16 54.47"/><polygon class="cls-15" points="132.16 54.47 135.04 52.72 135.03 52.05 132.14 53.79 132.16 54.47"/><path class="cls-4" d="M128.48,29.13h0a1.93,1.93,0,0,0-1.82.74l0,0a6,6,0,0,0-1.23,5.33v0a1.88,1.88,0,0,0,1.34,1.47h0l2.5.6,1.53-7.64Z"/><path class="cls-20" d="M128.48,29.13h0a1.93,1.93,0,0,0-1.82.74l0,0a6,6,0,0,0-1.23,5.33v0a1.88,1.88,0,0,0,1.34,1.47h0l2.5.6,1.53-7.64Z"/><path class="cls-17" d="M126.76,36.73h0l2.5.6.5-2.53-4.54-1a4.77,4.77,0,0,0,.19,1.48v0A1.88,1.88,0,0,0,126.76,36.73Z"/><path class="cls-4" d="M133.54,29.34h0a2.24,2.24,0,0,0-2,.72l-.22.21-.24.29c-.13.16-.25.33-.37.51a7.18,7.18,0,0,0-.55,1.07,8.23,8.23,0,0,0-.62,3.27,5.92,5.92,0,0,0,.23,1.55,2.44,2.44,0,0,0,1.56,1.82l-2.38-.55h0a2.73,2.73,0,0,1-1.87-1.89,5.87,5.87,0,0,1-.24-1.48,8.36,8.36,0,0,1,.62-3.34,6.38,6.38,0,0,1,.56-1.07,4,4,0,0,1,.36-.52l.24-.28a2.13,2.13,0,0,1,.22-.21,2.67,2.67,0,0,1,2.3-.66h.07l.09,0Z"/><path class="cls-15" d="M128.92,38.24h0a2.73,2.73,0,0,1-1.87-1.89,5.87,5.87,0,0,1-.24-1.48l2.7.55a5.92,5.92,0,0,0,.23,1.55,2.44,2.44,0,0,0,1.56,1.82Z"/><path class="cls-4" d="M135.15,31.18a7.57,7.57,0,0,1-1.55,6.69,2.4,2.4,0,0,1-2.26.93h0A2.44,2.44,0,0,1,129.74,37a7.6,7.6,0,0,1,1.55-6.69,2.09,2.09,0,0,1,3.86.9Z"/><path class="cls-13" d="M135.15,31.18a7.57,7.57,0,0,1-1.55,6.69,2.4,2.4,0,0,1-2.26.93h0A2.44,2.44,0,0,1,129.74,37a7.6,7.6,0,0,1,1.55-6.69,2.09,2.09,0,0,1,3.86.9Z"/><path class="cls-4" d="M145.05,27.57s-2.79,2.71-4.13,8.47a22.29,22.29,0,0,0-.5,3.14,15.86,15.86,0,0,0,.49,6.28,19.77,19.77,0,0,0-6.35-5.53,33.08,33.08,0,0,0-3.16-1.34h0A2.22,2.22,0,0,1,130,36.91a6.15,6.15,0,0,1-.22-2,8.2,8.2,0,0,1,.2-1.38,6.85,6.85,0,0,1,1.52-3.06,2.21,2.21,0,0,1,2-.86h0a33,33,0,0,0,3.43.19A19.62,19.62,0,0,0,145.05,27.57Z"/><path class="cls-20" d="M145.05,27.57s-2.79,2.71-4.13,8.47a22.29,22.29,0,0,0-.5,3.14,15.86,15.86,0,0,0,.49,6.28,19.77,19.77,0,0,0-6.35-5.53,33.08,33.08,0,0,0-3.16-1.34h0A2.22,2.22,0,0,1,130,36.91a6.15,6.15,0,0,1-.22-2,8.2,8.2,0,0,1,.2-1.38,6.85,6.85,0,0,1,1.52-3.06,2.21,2.21,0,0,1,2-.86h0a33,33,0,0,0,3.43.19A19.62,19.62,0,0,0,145.05,27.57Z"/><path class="cls-17" d="M140.42,39.18a15.86,15.86,0,0,0,.49,6.28,19.77,19.77,0,0,0-6.35-5.53,33.08,33.08,0,0,0-3.16-1.34h0A2.22,2.22,0,0,1,130,36.91a6.15,6.15,0,0,1-.22-2C132.63,35.36,137.4,36.44,140.42,39.18Z"/><path class="cls-4" d="M152.73,30.39a16,16,0,0,1,.28,7.33h0a17.27,17.27,0,0,1-4,8.59c-3.56,3.8-7.67,2.85-9.19-2.13a13.7,13.7,0,0,1-.56-3.69A19.36,19.36,0,0,1,141.59,31c.21-.39.44-.77.68-1.13l.31-.45h0l.46-.6c.16-.2.33-.39.51-.58C147.1,24.46,151.22,25.41,152.73,30.39Z"/><path class="cls-15" d="M153,37.72a17.27,17.27,0,0,1-4,8.59c-3.56,3.8-7.67,2.85-9.19-2.13a13.7,13.7,0,0,1-.56-3.69h0c.49.55,1.82,1.15,2.09.37a12.64,12.64,0,0,0,.5,3.27,5.63,5.63,0,0,0,1.94,3.06,2.67,2.67,0,0,0,2.4.33,6.2,6.2,0,0,0,2.6-1.78,16,16,0,0,0,3.55-7.37S152.72,38.52,153,37.72Z"/><path class="cls-4" d="M152.29,30.83a15.56,15.56,0,0,1,.09,7.54,16,16,0,0,1-3.55,7.37,6.2,6.2,0,0,1-2.6,1.78,2.67,2.67,0,0,1-2.4-.33,5.63,5.63,0,0,1-1.94-3.06,12.64,12.64,0,0,1-.5-3.27c0-.44,0-.89,0-1.34a17.59,17.59,0,0,1,.28-2.37c0-.16.06-.33.1-.49s.11-.53.18-.8a18.87,18.87,0,0,1,.88-2.63v0a16,16,0,0,1,.79-1.61,10.92,10.92,0,0,1,.65-1.05c.1-.14.19-.28.29-.41s.25-.32.38-.47.25-.29.37-.43A6.22,6.22,0,0,1,148,27.44C149.84,26.86,151.46,28.13,152.29,30.83Z"/><path class="cls-24" d="M152.29,30.83a15.56,15.56,0,0,1,.09,7.54,16,16,0,0,1-3.55,7.37,6.2,6.2,0,0,1-2.6,1.78,2.67,2.67,0,0,1-2.4-.33,5.63,5.63,0,0,1-1.94-3.06,12.64,12.64,0,0,1-.5-3.27c0-.44,0-.89,0-1.34a17.59,17.59,0,0,1,.28-2.37c0-.16.06-.33.1-.49s.11-.53.18-.8a18.87,18.87,0,0,1,.88-2.63v0a16,16,0,0,1,.79-1.61,10.92,10.92,0,0,1,.65-1.05c.1-.14.19-.28.29-.41s.25-.32.38-.47.25-.29.37-.43A6.22,6.22,0,0,1,148,27.44C149.84,26.86,151.46,28.13,152.29,30.83Z"/><path class="cls-4" d="M146,34.08l-1.18,6a34.21,34.21,0,0,0-3.45-.07c0-.15,0-.3,0-.45a17.59,17.59,0,0,1,.28-2.37c0-.16.06-.32.1-.49s.11-.53.18-.8a19.32,19.32,0,0,1,.88-2.63,0,0,0,0,0,0,0l.16-.37A18.85,18.85,0,0,0,146,34.08Z"/><g class="cls-25"><path class="cls-6" d="M146,34.08l-1.18,6a34.21,34.21,0,0,0-3.45-.07c0-.15,0-.3,0-.45a17.59,17.59,0,0,1,.28-2.37c0-.16.06-.32.1-.49s.11-.53.18-.8a19.32,19.32,0,0,1,.88-2.63,0,0,0,0,0,0,0l.16-.37A18.85,18.85,0,0,0,146,34.08Z"/></g><path class="cls-4" d="M145.06,40c-.62.19-1.14-.2-1.4-1v0a4.8,4.8,0,0,1,1-4.22l0,0a1.94,1.94,0,0,1,.78-.53c.62-.19,1.15.2,1.4,1v0a4.79,4.79,0,0,1-1,4.21v0a1.93,1.93,0,0,1-.79.53Z"/><g class="cls-26"><path class="cls-6" d="M145.06,40c-.62.19-1.14-.2-1.4-1v0a4.8,4.8,0,0,1,1-4.22l0,0a1.94,1.94,0,0,1,.78-.53c.62-.19,1.15.2,1.4,1v0a4.79,4.79,0,0,1-1,4.21v0a1.93,1.93,0,0,1-.79.53Z"/></g><path class="cls-2" d="M143.62,24.64a.64.64,0,0,1-.8-.43l-1.82-6a.65.65,0,1,1,1.24-.38l1.81,6A.65.65,0,0,1,143.62,24.64Z"/><path class="cls-2" d="M138.64,27.74a.64.64,0,0,1-.63-.14l-4.55-4.26a.64.64,0,1,1,.88-.94l4.55,4.26a.65.65,0,0,1,0,.91A.66.66,0,0,1,138.64,27.74Z"/><path class="cls-2" d="M141.76,58.19a.62.62,0,0,1-.33,0,.64.64,0,0,1-.49-.77l1.41-6.07a.64.64,0,0,1,1.25.29l-1.4,6.07A.65.65,0,0,1,141.76,58.19Z"/><path class="cls-2" d="M153.07,55.62a.66.66,0,0,1-.81-.43l-1.81-6a.64.64,0,1,1,1.23-.38l1.82,6A.66.66,0,0,1,153.07,55.62Z"/><path class="cls-2" d="M159.78,47.48a.64.64,0,0,1-.63-.15l-4.56-4.25a.64.64,0,1,1,.88-.94L160,46.39a.65.65,0,0,1,0,.91A.61.61,0,0,1,159.78,47.48Z"/><path class="cls-2" d="M164.05,39.45a.61.61,0,0,1-.33,0l-6.07-1.4a.65.65,0,1,1,.29-1.26L164,38.21a.64.64,0,0,1,0,1.24Z"/><path class="cls-2" d="M163.74,30.36l-6,1.82a.65.65,0,0,1-.38-1.24l6-1.81a.63.63,0,0,1,.8.43A.64.64,0,0,1,163.74,30.36Z"/><path class="cls-2" d="M154.67,27.2a.65.65,0,0,1-.66-1.06l4.26-4.56a.65.65,0,1,1,.94.89L155,27A.79.79,0,0,1,154.67,27.2Z"/><path class="cls-2" d="M149.49,24.44a.73.73,0,0,1-.33,0,.65.65,0,0,1-.48-.78l1.4-6.07a.65.65,0,0,1,1.26.29L149.93,24A.65.65,0,0,1,149.49,24.44Z"/><path class="cls-21" d="M125.46,45.53c1.23-1.56,1.28-2.53,2.24-3.3a3.33,3.33,0,0,1,3.35-.4c1.07.31,2.33.15,2.77.55.12.08-.07.78-.57,1a5.89,5.89,0,0,1-2.32.23c-1.64,0-.29,1.63-1.88,3.27C128.38,48.07,125.46,45.53,125.46,45.53Z"/></g></g><g id="Paper_Plane" data-name="Paper Plane"><polygon class="cls-4" points="163.22 70.27 178.35 60.58 185.01 62.72 163.22 70.27"/><polygon class="cls-4" points="163.22 70.27 176.29 59.37 173.39 56.02 163.22 70.27"/><polygon class="cls-4" points="176.29 59.37 176.29 61.9 163.22 70.27 176.29 59.37"/><polygon class="cls-27" points="176.29 59.37 176.29 61.9 163.22 70.27 176.29 59.37"/><path class="cls-2" d="M179.4,57.91a.48.48,0,0,1-.33-.15.44.44,0,0,1,.05-.61c.26-.22.52-.46.77-.7a.43.43,0,1,1,.59.62c-.26.25-.53.49-.81.73A.43.43,0,0,1,179.4,57.91Z"/><path class="cls-2" d="M181.65,55.66a.43.43,0,0,1-.29-.1.45.45,0,0,1,0-.61c.45-.51.89-1.05,1.3-1.61a.43.43,0,1,1,.69.51c-.43.58-.88,1.14-1.34,1.67A.47.47,0,0,1,181.65,55.66Zm2.5-3.38a.41.41,0,0,1-.23-.07.42.42,0,0,1-.13-.59c.36-.57.71-1.18,1-1.8a.43.43,0,1,1,.76.4c-.34.64-.69,1.26-1.07,1.86A.42.42,0,0,1,184.15,52.28Zm2-3.73a.47.47,0,0,1-.17,0,.43.43,0,0,1-.22-.57c.28-.63.54-1.27.78-1.93a.43.43,0,0,1,.8.3c-.25.67-.51,1.33-.8,2A.42.42,0,0,1,186.12,48.55Zm1.45-4h-.13a.45.45,0,0,1-.29-.54c.2-.66.37-1.33.53-2a.42.42,0,0,1,.51-.32.43.43,0,0,1,.32.51c-.16.69-.34,1.39-.53,2.07A.44.44,0,0,1,187.57,44.59Zm.92-4.11h-.07a.42.42,0,0,1-.35-.49c.11-.68.2-1.37.26-2.06a.43.43,0,1,1,.85.08c-.06.71-.16,1.42-.27,2.12A.42.42,0,0,1,188.49,40.48Zm.4-4.2h0a.43.43,0,0,1-.42-.44c0-.33,0-.66,0-1s0-.73,0-1.09a.42.42,0,0,1,.41-.44.4.4,0,0,1,.44.41c0,.37,0,.75,0,1.12s0,.68,0,1A.43.43,0,0,1,188.89,36.28Zm-.15-4.21a.43.43,0,0,1-.42-.39c-.07-.69-.17-1.38-.29-2.06a.43.43,0,0,1,.35-.49.42.42,0,0,1,.49.35c.13.69.22,1.4.3,2.12a.44.44,0,0,1-.38.47ZM188,27.91a.42.42,0,0,1-.41-.32c-.17-.67-.37-1.34-.59-2a.43.43,0,0,1,.27-.54.42.42,0,0,1,.54.27c.23.67.43,1.36.61,2.05a.43.43,0,0,1-.31.52Zm-1.35-4a.43.43,0,0,1-.39-.26c-.28-.63-.58-1.26-.9-1.86a.43.43,0,1,1,.75-.41c.34.63.65,1.28.93,1.93a.43.43,0,0,1-.22.57A.47.47,0,0,1,186.66,23.92Zm-2-3.71a.43.43,0,0,1-.35-.19,20.42,20.42,0,0,0-1.22-1.67.42.42,0,0,1,.07-.6.43.43,0,0,1,.6.06c.44.56.87,1.14,1.26,1.74a.42.42,0,0,1-.12.59A.4.4,0,0,1,184.66,20.21ZM182,16.92a.43.43,0,0,1-.31-.13c-.46-.49-1-1-1.49-1.45a.44.44,0,0,1,0-.6.43.43,0,0,1,.61,0c.53.48,1.05,1,1.53,1.49a.42.42,0,0,1,0,.6A.42.42,0,0,1,182,16.92Zm-3.12-2.83a.46.46,0,0,1-.27-.09c-.53-.42-1.09-.84-1.67-1.24a.43.43,0,1,1,.49-.7c.59.41,1.16.84,1.71,1.27a.42.42,0,0,1,.07.6A.39.39,0,0,1,178.91,14.09Zm-3.47-2.4a.46.46,0,0,1-.22-.06c-.58-.36-1.19-.71-1.81-1a.43.43,0,0,1,.41-.76c.63.34,1.25.7,1.85,1.07a.42.42,0,0,1,.14.58A.42.42,0,0,1,175.44,11.69Zm-3.71-2a.39.39,0,0,1-.18,0c-.62-.3-1.27-.58-1.91-.85A.43.43,0,1,1,170,8c.66.27,1.31.57,1.95.87a.43.43,0,0,1-.19.81ZM128.56,8.62a.43.43,0,0,1-.14-.83c.67-.24,1.34-.47,2-.68a.43.43,0,0,1,.54.27.43.43,0,0,1-.28.54c-.65.21-1.32.44-2,.68Zm39.28-.57-.14,0c-.65-.24-1.31-.47-2-.68a.43.43,0,0,1-.28-.54.42.42,0,0,1,.54-.27c.68.21,1.36.44,2,.68a.43.43,0,0,1,.26.55A.44.44,0,0,1,167.84,8.05Zm-35.26-.72a.43.43,0,0,1-.12-.84c.67-.19,1.36-.38,2-.55a.43.43,0,0,1,.21.83c-.68.17-1.36.35-2,.54Zm31.24-.55-.11,0c-.66-.18-1.34-.35-2-.5a.44.44,0,0,1-.32-.52.43.43,0,0,1,.51-.32c.7.16,1.39.33,2.06.52a.43.43,0,0,1,.31.52A.45.45,0,0,1,163.82,6.78ZM136.67,6.3a.44.44,0,0,1-.42-.34.43.43,0,0,1,.33-.51L138.66,5a.43.43,0,0,1,.5.35.42.42,0,0,1-.35.49c-.68.13-1.37.26-2.05.41Zm23-.46h-.08c-.67-.12-1.37-.24-2.06-.34a.42.42,0,1,1,.12-.84c.71.1,1.41.22,2.1.34a.44.44,0,0,1,.34.5A.43.43,0,0,1,159.71,5.84Zm-18.89-.29a.44.44,0,0,1-.43-.37.43.43,0,0,1,.37-.48c.7-.1,1.41-.2,2.1-.27a.42.42,0,0,1,.47.37.43.43,0,0,1-.38.48c-.68.07-1.38.16-2.07.26Zm14.72-.32h0c-.68-.07-1.38-.13-2.09-.18a.43.43,0,0,1-.39-.46.43.43,0,0,1,.45-.4c.72,0,1.43.12,2.12.19a.43.43,0,0,1,0,.85ZM145,5.08a.43.43,0,0,1,0-.85c.71-.05,1.42-.1,2.12-.12a.41.41,0,0,1,.45.41.43.43,0,0,1-.41.44L145,5.08Zm6.32-.14h0l-1.82,0h-.27a.43.43,0,1,1,0-.85h.27l1.85,0a.43.43,0,0,1,0,.85Z"/><path class="cls-2" d="M125.56,9.78A.43.43,0,0,1,125.4,9l1-.4a.44.44,0,0,1,.56.24.43.43,0,0,1-.24.56l-1,.4A.45.45,0,0,1,125.56,9.78Z"/></g><g id="Paper_Plane-2" data-name="Paper Plane"><polygon class="cls-4" points="30.36 48.76 50.02 39.12 35.84 52.6 30.36 48.76"/><polygon class="cls-4" points="50.02 39.12 28.35 46.25 22.86 42.4 50.02 39.12"/><polygon class="cls-4" points="28.35 46.25 29.2 51.76 30.36 48.76 50.02 39.12 28.35 46.25"/><polygon class="cls-27" points="28.35 46.25 29.2 51.76 30.36 48.76 50.02 39.12 28.35 46.25"/><polygon class="cls-4" points="29.2 51.76 32.19 50.04 30.36 48.76 29.2 51.76"/><polygon class="cls-27" points="30.36 48.76 32.19 50.04 31.71 50.31 30.36 48.76"/><path class="cls-2" d="M31.84,106.46a.32.32,0,0,1-.14,0l-2-.75a.44.44,0,0,1-.24-.56.43.43,0,0,1,.56-.24c.63.25,1.3.5,2,.75a.43.43,0,0,1-.14.83Zm-4-1.58a.47.47,0,0,1-.17,0c-.67-.3-1.32-.6-2-.91a.42.42,0,0,1-.19-.57.43.43,0,0,1,.57-.2c.62.31,1.27.61,1.92.89a.43.43,0,0,1-.17.82ZM24,103a.54.54,0,0,1-.21,0c-.63-.35-1.26-.72-1.86-1.09a.42.42,0,0,1,.44-.72c.59.36,1.21.72,1.83,1.06a.42.42,0,0,1,.17.58A.42.42,0,0,1,24,103Zm-3.64-2.24a.43.43,0,0,1-.24-.08c-.6-.42-1.18-.85-1.73-1.29a.43.43,0,1,1,.53-.67c.54.43,1.11.85,1.69,1.26a.43.43,0,0,1,.11.59A.45.45,0,0,1,20.4,100.76ZM17.07,98.1a.4.4,0,0,1-.29-.12c-.54-.49-1.06-1-1.55-1.51a.43.43,0,1,1,.63-.59c.47.5,1,1,1.49,1.47a.43.43,0,0,1-.28.75ZM14.14,95a.41.41,0,0,1-.33-.16c-.45-.56-.89-1.15-1.29-1.74a.43.43,0,1,1,.71-.48c.39.57.81,1.14,1.24,1.69a.43.43,0,0,1-.06.6A.44.44,0,0,1,14.14,95Zm-2.39-3.53a.44.44,0,0,1-.38-.22c-.35-.62-.68-1.27-1-1.93a.43.43,0,1,1,.77-.36c.3.64.62,1.27,1,1.87a.43.43,0,0,1-.37.64ZM10,87.58a.41.41,0,0,1-.4-.27c-.25-.67-.48-1.36-.68-2.06a.43.43,0,0,1,.29-.53A.42.42,0,0,1,9.7,85c.2.68.42,1.35.66,2a.43.43,0,0,1-.25.55A.39.39,0,0,1,10,87.58Zm-1.19-4.1a.43.43,0,0,1-.42-.33C8.2,82.46,8.07,81.74,8,81a.43.43,0,1,1,.85-.13c.11.7.24,1.4.39,2.08a.42.42,0,0,1-.33.5ZM8.1,79.26a.42.42,0,0,1-.42-.38c-.08-.69-.13-1.41-.18-2.15a.43.43,0,0,1,.4-.45.44.44,0,0,1,.46.4c0,.72.1,1.43.17,2.11a.43.43,0,0,1-.38.47ZM7.88,75h0a.44.44,0,0,1-.42-.44c0-.72.06-1.45.13-2.17a.43.43,0,1,1,.85.09c-.07.69-.11,1.4-.12,2.1A.44.44,0,0,1,7.88,75Zm.43-4.25H8.23a.44.44,0,0,1-.35-.5c.13-.71.29-1.42.48-2.12a.43.43,0,0,1,.83.22C9,69,8.85,69.71,8.73,70.4A.44.44,0,0,1,8.31,70.75Zm1.1-4.13-.14,0A.44.44,0,0,1,9,66.05c.24-.68.51-1.36.81-2a.42.42,0,0,1,.56-.21.42.42,0,0,1,.22.56c-.28.64-.55,1.3-.78,2A.43.43,0,0,1,9.41,66.62Zm1.74-3.9a.54.54,0,0,1-.21,0,.43.43,0,0,1-.17-.58c.35-.64.72-1.27,1.11-1.87a.43.43,0,0,1,.72.47c-.38.58-.74,1.19-1.08,1.8A.42.42,0,0,1,11.15,62.72Zm2.33-3.58a.41.41,0,0,1-.26-.09.43.43,0,0,1-.08-.6c.44-.57.91-1.13,1.4-1.66a.42.42,0,0,1,.6,0,.43.43,0,0,1,0,.6c-.47.52-.93,1.06-1.35,1.61A.44.44,0,0,1,13.48,59.14ZM16.35,56a.43.43,0,0,1-.31-.13.44.44,0,0,1,0-.61c.53-.49,1.09-1,1.65-1.41a.43.43,0,1,1,.53.67c-.55.43-1.08.89-1.59,1.37A.43.43,0,0,1,16.35,56Zm3.36-2.64a.43.43,0,0,1-.24-.79c.6-.39,1.22-.77,1.85-1.12a.43.43,0,1,1,.42.74c-.61.34-1.22.71-1.8,1.1A.48.48,0,0,1,19.71,53.34Zm3.73-2.07a.42.42,0,0,1-.39-.25.43.43,0,0,1,.21-.57c.66-.29,1.33-.57,2-.81a.42.42,0,0,1,.55.25.43.43,0,0,1-.26.55c-.65.24-1.31.5-1.94.79A.39.39,0,0,1,23.44,51.27Z"/></g><g id="At"><path class="cls-4" d="M130.65,165.14a.41.41,0,0,0-.21-.38,1.41,1.41,0,0,0-.95-.28,2.23,2.23,0,0,0-1,.24l-1.72.91a2.89,2.89,0,0,0,.31-.78,2.33,2.33,0,0,0,.07-.64c0-.36,0-2.36,0-2.55a2.81,2.81,0,0,0-.25-1.17,4.56,4.56,0,0,0-1.53-1.73c-.53-.41-1.16-.85-1.9-1.33s-1.4-.89-2-1.23a24.86,24.86,0,0,0-5.06-2,21.13,21.13,0,0,0-5.85-.73,27.19,27.19,0,0,0-6.65,1,34.29,34.29,0,0,0-7.44,3,18,18,0,0,0-5,3.68,8,8,0,0,0-2.07,3.76,6.43,6.43,0,0,0-.1,1.14c0,.42,0,2.22,0,2.58a5.45,5.45,0,0,0,.61,2.49,9.07,9.07,0,0,0,2.65,3.12c.25.2.61.46,1.09.79s1,.67,1.54,1,1.07.7,1.58,1,.94.58,1.26.76a21.15,21.15,0,0,0,5.08,1.87,25.32,25.32,0,0,0,6,.66,28.08,28.08,0,0,0,6.49-.82,31.6,31.6,0,0,0,11-5.28,15.17,15.17,0,0,0,2.49-2.38,6.81,6.81,0,0,0,1.19-2.11,12.78,12.78,0,0,0,.45-1.86v-.09C130.66,167.6,130.65,165.16,130.65,165.14Zm-6.41,3.07a7,7,0,0,1-1,1.11,14.87,14.87,0,0,1-1.66,1.3c-.69.46-1.55,1-2.6,1.53a20.93,20.93,0,0,1-4.53,1.77,19.86,19.86,0,0,1-4.51.64,18.53,18.53,0,0,1-4.25-.37,15.82,15.82,0,0,1-3.82-1.32c-.35-.17-.76-.4-1.25-.7s-1-.62-1.47-.95-1-.64-1.42-.95a9.8,9.8,0,0,1-1-.77,6.65,6.65,0,0,1-1.85-2.4,2.49,2.49,0,0,1-.11-.29,6.15,6.15,0,0,1,1.45-2.21,13.91,13.91,0,0,1,3.47-2.47,29.86,29.86,0,0,1,5-2.14,20,20,0,0,1,2.58-.61l-.44.23a.81.81,0,0,0-.48.56.56.56,0,0,0,.3.56l.29.19a9.16,9.16,0,0,0-2.28,0,8.3,8.3,0,0,0-2.74,1,5.75,5.75,0,0,0-2.07,1.67,2.79,2.79,0,0,0-.57,1.64v2.63a1.93,1.93,0,0,0,0,.24,3.92,3.92,0,0,0,.87,2,9.16,9.16,0,0,0,2.25,2,13.25,13.25,0,0,0,3.12,1.52,13.69,13.69,0,0,0,3.33.68,12.1,12.1,0,0,0,3.3-.18,10.66,10.66,0,0,0,3-1.06,11.28,11.28,0,0,0,1.84-1.16,4.56,4.56,0,0,0,.93-1,1.82,1.82,0,0,0,.3-.84,6.66,6.66,0,0,0,0-.77,11.3,11.3,0,0,0,2.6-.18,11.68,11.68,0,0,0,3.44-1.28l.2-.11C124.48,167.84,124.37,168,124.24,168.21ZM109,165.69a8,8,0,0,1,4.12,2,5.47,5.47,0,0,1-.5.31,5,5,0,0,1-2.94.53,7.16,7.16,0,0,1-3.16-1.21,6,6,0,0,1-1-.76,4.42,4.42,0,0,1,.45-.28A4.93,4.93,0,0,1,109,165.69Zm11.92-2.53a4.29,4.29,0,0,1-1.53.33,2.9,2.9,0,0,1-1.78-.46l-5.79-3.79a17.59,17.59,0,0,1,1.74.3,18.2,18.2,0,0,1,4.06,1.52,20.64,20.64,0,0,1,1.89,1.11C120,162.5,120.46,162.83,120.9,163.16Z"/><path class="cls-13" d="M130.65,165.14a.41.41,0,0,0-.21-.38,1.41,1.41,0,0,0-.95-.28,2.23,2.23,0,0,0-1,.24l-1.72.91a2.89,2.89,0,0,0,.31-.78,2.33,2.33,0,0,0,.07-.64c0-.36,0-2.36,0-2.55a2.81,2.81,0,0,0-.25-1.17,4.56,4.56,0,0,0-1.53-1.73c-.53-.41-1.16-.85-1.9-1.33s-1.4-.89-2-1.23a24.86,24.86,0,0,0-5.06-2,21.13,21.13,0,0,0-5.85-.73,27.19,27.19,0,0,0-6.65,1,34.29,34.29,0,0,0-7.44,3,18,18,0,0,0-5,3.68,8,8,0,0,0-2.07,3.76,6.43,6.43,0,0,0-.1,1.14c0,.42,0,2.22,0,2.58a5.45,5.45,0,0,0,.61,2.49,9.07,9.07,0,0,0,2.65,3.12c.25.2.61.46,1.09.79s1,.67,1.54,1,1.07.7,1.58,1,.94.58,1.26.76a21.15,21.15,0,0,0,5.08,1.87,25.32,25.32,0,0,0,6,.66,28.08,28.08,0,0,0,6.49-.82,31.6,31.6,0,0,0,11-5.28,15.17,15.17,0,0,0,2.49-2.38,6.81,6.81,0,0,0,1.19-2.11,12.78,12.78,0,0,0,.45-1.86v-.09C130.66,167.6,130.65,165.16,130.65,165.14Zm-6.41,3.07a7,7,0,0,1-1,1.11,14.87,14.87,0,0,1-1.66,1.3c-.69.46-1.55,1-2.6,1.53a20.93,20.93,0,0,1-4.53,1.77,19.86,19.86,0,0,1-4.51.64,18.53,18.53,0,0,1-4.25-.37,15.82,15.82,0,0,1-3.82-1.32c-.35-.17-.76-.4-1.25-.7s-1-.62-1.47-.95-1-.64-1.42-.95a9.8,9.8,0,0,1-1-.77,6.65,6.65,0,0,1-1.85-2.4,2.49,2.49,0,0,1-.11-.29,6.15,6.15,0,0,1,1.45-2.21,13.91,13.91,0,0,1,3.47-2.47,29.86,29.86,0,0,1,5-2.14,20,20,0,0,1,2.58-.61l-.44.23a.81.81,0,0,0-.48.56.56.56,0,0,0,.3.56l.29.19a9.16,9.16,0,0,0-2.28,0,8.3,8.3,0,0,0-2.74,1,5.75,5.75,0,0,0-2.07,1.67,2.79,2.79,0,0,0-.57,1.64v2.63a1.93,1.93,0,0,0,0,.24,3.92,3.92,0,0,0,.87,2,9.16,9.16,0,0,0,2.25,2,13.25,13.25,0,0,0,3.12,1.52,13.69,13.69,0,0,0,3.33.68,12.1,12.1,0,0,0,3.3-.18,10.66,10.66,0,0,0,3-1.06,11.28,11.28,0,0,0,1.84-1.16,4.56,4.56,0,0,0,.93-1,1.82,1.82,0,0,0,.3-.84,6.66,6.66,0,0,0,0-.77,11.3,11.3,0,0,0,2.6-.18,11.68,11.68,0,0,0,3.44-1.28l.2-.11C124.48,167.84,124.37,168,124.24,168.21ZM109,165.69a8,8,0,0,1,4.12,2,5.47,5.47,0,0,1-.5.31,5,5,0,0,1-2.94.53,7.16,7.16,0,0,1-3.16-1.21,6,6,0,0,1-1-.76,4.42,4.42,0,0,1,.45-.28A4.93,4.93,0,0,1,109,165.69Zm11.92-2.53a4.29,4.29,0,0,1-1.53.33,2.9,2.9,0,0,1-1.78-.46l-5.79-3.79a17.59,17.59,0,0,1,1.74.3,18.2,18.2,0,0,1,4.06,1.52,20.64,20.64,0,0,1,1.89,1.11C120,162.5,120.46,162.83,120.9,163.16Z"/><path class="cls-15" d="M94.78,166.81a6.15,6.15,0,0,1,1.45-2.21,13.91,13.91,0,0,1,3.47-2.47,29.86,29.86,0,0,1,5-2.14,20,20,0,0,1,2.58-.61l1.55-.83a2.06,2.06,0,0,1,1-.21,1.66,1.66,0,0,1,.91.23l1,.67a17.59,17.59,0,0,1,1.74.3,18.2,18.2,0,0,1,4.06,1.52,20.64,20.64,0,0,1,1.89,1.11c.51.33,1,.66,1.41,1a1.92,1.92,0,0,0,.25-.12,1.54,1.54,0,0,0,.89-1c.09-.39-.19-.82-.82-1.29s-1.1-.81-1.73-1.23-1.26-.77-1.89-1.1a18.2,18.2,0,0,0-4.06-1.52,15.11,15.11,0,0,0-4.25-.39,18.55,18.55,0,0,0-4.55.84,29.06,29.06,0,0,0-5,2.14A14.17,14.17,0,0,0,96.23,162a6,6,0,0,0-1.56,2.58,3.94,3.94,0,0,0,.22,2.55,5.49,5.49,0,0,0,.74,1.24,5.49,5.49,0,0,1-.74-1.24A2.49,2.49,0,0,1,94.78,166.81Z"/><path class="cls-15" d="M112.14,164.29a7.59,7.59,0,0,0-3.16-1.23,5,5,0,0,0-3,.56c-.9.47-1.29,1-1.19,1.67a2.26,2.26,0,0,0,.74,1.24h0a4.42,4.42,0,0,1,.45-.28,4.93,4.93,0,0,1,3-.55,8,8,0,0,1,4.12,2l-.23.15c.75-.46,1.09-1,1-1.53S113.21,165,112.14,164.29Z"/><path class="cls-15" d="M108.91,171.62a13.67,13.67,0,0,1-6.45-2.2,9.16,9.16,0,0,1-2.25-2,4,4,0,0,1-.87-2,2.41,2.41,0,0,1,0-.38s0,.09,0,.13v2.63a1.93,1.93,0,0,0,0,.24,3.92,3.92,0,0,0,.87,2,9.16,9.16,0,0,0,2.25,2,13.25,13.25,0,0,0,3.12,1.52,13.69,13.69,0,0,0,3.33.68Z"/><path class="cls-15" d="M118.34,166.62a6.49,6.49,0,0,1,0,.76l0,1.86a11.3,11.3,0,0,0,2.6-.18v-2.63A11.37,11.37,0,0,1,118.34,166.62Z"/><path class="cls-15" d="M103.06,177A21.16,21.16,0,0,1,98,175.13q-.48-.27-1.26-.75c-.51-.32-1-.66-1.58-1s-1.06-.7-1.54-1-.84-.59-1.09-.79a9.07,9.07,0,0,1-2.65-3.12,5.53,5.53,0,0,1-.61-2.51V166c0,.42,0,2.22,0,2.58a5.45,5.45,0,0,0,.61,2.49,9.07,9.07,0,0,0,2.65,3.12c.25.2.61.46,1.09.79s1,.67,1.54,1,1.07.7,1.58,1,.94.58,1.26.76a21.15,21.15,0,0,0,5.08,1.87,25.32,25.32,0,0,0,6,.66v-2.62A25.32,25.32,0,0,1,103.06,177Z"/><path class="cls-4" d="M125.38,158.76a4.56,4.56,0,0,1,1.53,1.73,2.69,2.69,0,0,1,.18,1.73,3.44,3.44,0,0,1-.92,1.61,6.58,6.58,0,0,1-1.79,1.33,11.63,11.63,0,0,1-3.44,1.27,11.37,11.37,0,0,1-2.6.19,6.49,6.49,0,0,1,0,.76,1.82,1.82,0,0,1-.3.85,4.33,4.33,0,0,1-.93,1,10.59,10.59,0,0,1-1.84,1.17,11,11,0,0,1-3,1.06,13,13,0,0,1-3.3.18,13.67,13.67,0,0,1-6.45-2.2,9.16,9.16,0,0,1-2.25-2,4,4,0,0,1-.87-2,2.73,2.73,0,0,1,.56-1.89,5.75,5.75,0,0,1,2.07-1.67,8.3,8.3,0,0,1,2.74-1,9.16,9.16,0,0,1,2.28,0l-.29-.19a.56.56,0,0,1-.3-.56.81.81,0,0,1,.48-.56l2-1.06a2.06,2.06,0,0,1,1-.21,1.66,1.66,0,0,1,.91.23l6.82,4.46a2.9,2.9,0,0,0,1.78.46,3.91,3.91,0,0,0,1.78-.45,1.54,1.54,0,0,0,.89-1c.09-.39-.19-.82-.82-1.29s-1.1-.81-1.73-1.23-1.26-.77-1.89-1.1a18.2,18.2,0,0,0-4.06-1.52,15.11,15.11,0,0,0-4.25-.39,18.55,18.55,0,0,0-4.55.84,29.06,29.06,0,0,0-5,2.14A14.17,14.17,0,0,0,96.23,162a6,6,0,0,0-1.56,2.58,3.94,3.94,0,0,0,.22,2.55,6.65,6.65,0,0,0,1.85,2.4,9.8,9.8,0,0,0,1,.77c.44.31.92.63,1.42.95s1,.65,1.47.95.9.53,1.25.7a15.82,15.82,0,0,0,3.82,1.32,18.53,18.53,0,0,0,4.25.37,19.86,19.86,0,0,0,4.51-.64,20.93,20.93,0,0,0,4.53-1.77c1-.56,1.91-1.07,2.6-1.53a14.87,14.87,0,0,0,1.66-1.3,7,7,0,0,0,1-1.11,7.14,7.14,0,0,0,.56-1,3.49,3.49,0,0,1,.3-.59,1.52,1.52,0,0,1,.56-.43l2.84-1.51a2.23,2.23,0,0,1,1-.24,1.41,1.41,0,0,1,.95.28.42.42,0,0,1,.21.45,12.89,12.89,0,0,1-.45,1.87,6.81,6.81,0,0,1-1.19,2.11,15.6,15.6,0,0,1-2.49,2.38,31.86,31.86,0,0,1-11,5.27,28.1,28.1,0,0,1-6.49.83,25.32,25.32,0,0,1-6-.66A21.16,21.16,0,0,1,98,175.13q-.48-.27-1.26-.75c-.51-.32-1-.66-1.58-1s-1.06-.7-1.54-1-.84-.59-1.09-.79a9.07,9.07,0,0,1-2.65-3.12,5.53,5.53,0,0,1-.51-3.59,8,8,0,0,1,2.07-3.76,18,18,0,0,1,5-3.68,34.29,34.29,0,0,1,7.44-3,27.19,27.19,0,0,1,6.65-1,21.13,21.13,0,0,1,5.85.73,24.86,24.86,0,0,1,5.06,2c.61.34,1.28.74,2,1.23S124.85,158.35,125.38,158.76Zm-18.88,8.52a7.16,7.16,0,0,0,3.16,1.21,5,5,0,0,0,2.94-.53c.94-.51,1.37-1.07,1.28-1.69s-.67-1.28-1.74-2a7.59,7.59,0,0,0-3.16-1.23,5,5,0,0,0-3,.56c-.9.47-1.29,1-1.19,1.67S105.45,166.6,106.5,167.28Z"/></g><g id="Mail"><path class="cls-4" d="M126,147.11v.31a1.77,1.77,0,0,0,.79,1.37l16.92,9.77a1.76,1.76,0,0,0,1.58,0l28-16.18a1.73,1.73,0,0,0,.79-1.37v-.31a1.74,1.74,0,0,0-.79-1.37l-16.92-9.77a1.76,1.76,0,0,0-1.58,0l-28,16.18A1.75,1.75,0,0,0,126,147.11Z"/><path class="cls-4" d="M126,147.11v.31a1.77,1.77,0,0,0,.79,1.37l16.92,9.77a1.76,1.76,0,0,0,1.58,0l28-16.18a1.73,1.73,0,0,0,.79-1.37v-.31a1.74,1.74,0,0,0-.79-1.37l-16.92-9.77a1.76,1.76,0,0,0-1.58,0l-28,16.18A1.75,1.75,0,0,0,126,147.11Z"/><path class="cls-13" d="M144.47,135.52l-17.71,10.22a1.75,1.75,0,0,0-.79,1.37v.31a1.77,1.77,0,0,0,.79,1.37l16.92,9.77a1.71,1.71,0,0,0,.79.19h0Z"/><path class="cls-12" d="M144.47,135.52l-17.71,10.22a1.75,1.75,0,0,0-.79,1.37v.31a1.77,1.77,0,0,0,.79,1.37l16.92,9.77a1.71,1.71,0,0,0,.79.19h0Z"/><path class="cls-13" d="M173.28,139.33l-16.92-9.77a1.76,1.76,0,0,0-1.58,0l-10.31,6v23.23h0a1.68,1.68,0,0,0,.79-.19l28-16.18a1.73,1.73,0,0,0,.79-1.37v-.31A1.74,1.74,0,0,0,173.28,139.33Z"/><path class="cls-4" d="M141,154.86l-14.21-8.21a.48.48,0,0,1,0-.91l28-16.18a1.76,1.76,0,0,1,1.58,0l16.92,9.77a.48.48,0,0,1,0,.91l-4.65,2.69-1.63.94-21.74,12.55a1.76,1.76,0,0,1-1.58,0l-1.38-.79Z"/><path class="cls-12" d="M153.87,141.23l19.41-1.9-19.23,1.09,2.31-10.86a1.73,1.73,0,0,0-.86-.18l-3.63,14.68-25.43,2.1a.52.52,0,0,0,.32.49l20.54-1.19-2.83,11.15,3.62-11.2h0l3.5-.2a1.9,1.9,0,0,0,1.16-.48h0a1.87,1.87,0,0,0,.6-1Z"/><path class="cls-11" d="M132.51,145.66l19.36-1.6.69-2.77.39-1.55,2.55-10.36a1.66,1.66,0,0,0-.72.18l-14,8.09-14,8.09a.6.6,0,0,0-.32.42l3.89-.32Z"/></g></g></g></svg>