<svg xmlns="http://www.w3.org/2000/svg" viewBox="0 0 196.53 195.85"><defs><style>.cls-1{fill:#e1e1e1;}.cls-2{fill:#fafafa;}.cls-3{fill:#ececec;}.cls-4{fill:#1a2e35;}.cls-5{fill:#375a64;}.cls-6{fill:#ff4f5b;}.cls-7{opacity:0.3;}.cls-8{fill:#fff;}.cls-9{opacity:0.5;}.cls-10{fill:#ffbf9d;}.cls-11{opacity:0.2;}.cls-12{fill:#f5f5f5;}.cls-13{fill:#1c1c1b;}.cls-14{opacity:0.7;}</style></defs><g id="Layer_2" data-name="Layer 2"><g id="Layer_1-2" data-name="Layer 1"><path class="cls-1" d="M187.78,40.72c0-.08.36-.14.8-.14s.79.06.79.14-.35.14-.79.14S187.78,40.79,187.78,40.72Z"/><path class="cls-1" d="M184.59,40.72c0-.08.35-.14.79-.14s.8.06.8.14-.36.14-.8.14S184.59,40.79,184.59,40.72Z"/><path class="cls-1" d="M181.39,40.72c0-.08.36-.14.8-.14s.8.06.8.14-.36.14-.8.14S181.39,40.79,181.39,40.72Z"/><path class="cls-1" d="M178.2,40.72c0-.08.36-.14.8-.14s.8.06.8.14-.36.14-.8.14S178.2,40.79,178.2,40.72Z"/><path class="cls-1" d="M175,40.72c0-.08.35-.14.79-.14s.8.06.8.14-.35.14-.8.14S175,40.79,175,40.72Z"/><path class="cls-1" d="M171.81,40.72c0-.08.36-.14.8-.14s.8.06.8.14-.36.14-.8.14S171.81,40.79,171.81,40.72Z"/><path class="cls-1" d="M168.62,40.72c0-.08.36-.14.8-.14s.8.06.8.14-.36.14-.8.14S168.62,40.79,168.62,40.72Z"/><path class="cls-1" d="M165.43,40.72c0-.08.36-.14.8-.14s.79.06.79.14-.35.14-.79.14S165.43,40.79,165.43,40.72Z"/><path class="cls-1" d="M162.24,40.72c0-.08.35-.14.79-.14s.8.06.8.14-.36.14-.8.14S162.24,40.79,162.24,40.72Z"/><path class="cls-1" d="M159,40.72c0-.08.36-.14.8-.14s.8.06.8.14-.36.14-.8.14S159,40.79,159,40.72Z"/><path class="cls-1" d="M155.85,40.72c0-.08.36-.14.8-.14s.8.06.8.14-.36.14-.8.14S155.85,40.79,155.85,40.72Z"/><path class="cls-1" d="M152.66,40.72c0-.08.35-.14.8-.14s.79.06.79.14-.35.14-.79.14S152.66,40.79,152.66,40.72Z"/><path class="cls-1" d="M150.38,39.8c.08,0,.14.36.14.8v.12l-.14-.14c.39,0,.68.07.68.14s-.29.12-.68.13h-.13V40.6C150.24,40.16,150.31,39.8,150.38,39.8Z"/><path class="cls-1" d="M150.38,36.61c.08,0,.14.35.14.79s-.06.8-.14.8-.14-.35-.14-.8S150.31,36.61,150.38,36.61Z"/><path class="cls-1" d="M150.38,33.41c.08,0,.14.36.14.8s-.06.8-.14.8-.14-.36-.14-.8S150.31,33.41,150.38,33.41Z"/><path class="cls-1" d="M150.38,30.22c.08,0,.14.36.14.8s-.06.8-.14.8-.14-.36-.14-.8S150.31,30.22,150.38,30.22Z"/><path class="cls-1" d="M150.38,27c.08,0,.14.36.14.8s-.06.79-.14.79-.14-.35-.14-.79S150.31,27,150.38,27Z"/><path class="cls-1" d="M150.38,23.84c.08,0,.14.35.14.79s-.06.8-.14.8-.14-.36-.14-.8S150.31,23.84,150.38,23.84Z"/><path class="cls-1" d="M150.38,20.64c.08,0,.14.36.14.8s-.06.8-.14.8-.14-.36-.14-.8S150.31,20.64,150.38,20.64Z"/><path class="cls-1" d="M150.38,17.45c.08,0,.14.36.14.8s-.06.8-.14.8-.14-.36-.14-.8S150.31,17.45,150.38,17.45Z"/><path class="cls-1" d="M150.38,14.26c.08,0,.14.35.14.8s-.06.79-.14.79-.14-.35-.14-.79S150.31,14.26,150.38,14.26Z"/><path class="cls-1" d="M150.38,11.06c.08,0,.14.36.14.8s-.06.8-.14.8-.14-.36-.14-.8S150.31,11.06,150.38,11.06Z"/><path class="cls-1" d="M150.38,7.87c.08,0,.14.36.14.8s-.06.8-.14.8-.14-.36-.14-.8S150.31,7.87,150.38,7.87Z"/><path class="cls-1" d="M150.38,4.68c.08,0,.14.36.14.8s-.06.8-.14.8-.14-.36-.14-.8S150.31,4.68,150.38,4.68Z"/><path class="cls-1" d="M150.62,1.73s-.09.07-.24.09l.1-.09a2.88,2.88,0,0,1,0,.55c0,.44-.06.8-.14.8s-.14-.36-.14-.8a4,4,0,0,1,0-.55l0-.12.08,0C150.53,1.65,150.62,1.69,150.62,1.73Z"/><path class="cls-1" d="M153.81,1.73c0,.07-.35.13-.79.13s-.8-.06-.8-.13.35-.14.8-.14S153.81,1.65,153.81,1.73Z"/><path class="cls-1" d="M157,1.73c0,.07-.36.13-.8.13s-.8-.06-.8-.13.36-.14.8-.14S157,1.65,157,1.73Z"/><path class="cls-1" d="M160.2,1.73c0,.07-.36.13-.8.13s-.8-.06-.8-.13.36-.14.8-.14S160.2,1.65,160.2,1.73Z"/><path class="cls-1" d="M163.39,1.73c0,.07-.36.13-.8.13s-.79-.06-.79-.13.35-.14.79-.14S163.39,1.65,163.39,1.73Z"/><path class="cls-1" d="M166.59,1.73c0,.07-.36.13-.8.13s-.8-.06-.8-.13.36-.14.8-.14S166.59,1.65,166.59,1.73Z"/><path class="cls-1" d="M169.78,1.73c0,.07-.36.13-.8.13s-.8-.06-.8-.13.36-.14.8-.14S169.78,1.65,169.78,1.73Z"/><path class="cls-1" d="M173,1.73c0,.07-.36.13-.8.13s-.8-.06-.8-.13.36-.14.8-.14S173,1.65,173,1.73Z"/><path class="cls-1" d="M176.16,1.73c0,.07-.35.13-.79.13s-.8-.06-.8-.13.35-.14.8-.14S176.16,1.65,176.16,1.73Z"/><path class="cls-1" d="M179.36,1.73c0,.07-.36.13-.8.13s-.8-.06-.8-.13.36-.14.8-.14S179.36,1.65,179.36,1.73Z"/><path class="cls-1" d="M182.55,1.73c0,.07-.36.13-.8.13s-.8-.06-.8-.13.36-.14.8-.14S182.55,1.65,182.55,1.73Z"/><path class="cls-1" d="M185.74,1.73c0,.07-.36.13-.8.13s-.79-.06-.79-.13.35-.14.79-.14S185.74,1.65,185.74,1.73Z"/><path class="cls-1" d="M188.93,1.73c0,.07-.35.13-.79.13s-.8-.06-.8-.13.36-.14.8-.14S188.93,1.65,188.93,1.73Z"/><path class="cls-1" d="M189.37,4.48c-.07,0-.13-.36-.13-.8s.06-.8.13-.8.14.36.14.8S189.45,4.48,189.37,4.48Z"/><path class="cls-1" d="M189.37,7.67c-.07,0-.13-.36-.13-.8s.06-.8.13-.8.14.36.14.8S189.45,7.67,189.37,7.67Z"/><path class="cls-1" d="M189.37,10.86c-.07,0-.13-.35-.13-.79s.06-.8.13-.8.14.35.14.8S189.45,10.86,189.37,10.86Z"/><path class="cls-1" d="M189.37,14.06c-.07,0-.13-.36-.13-.8s.06-.8.13-.8.14.36.14.8S189.45,14.06,189.37,14.06Z"/><path class="cls-1" d="M189.37,17.25c-.07,0-.13-.36-.13-.8s.06-.8.13-.8.14.36.14.8S189.45,17.25,189.37,17.25Z"/><path class="cls-1" d="M189.37,20.44c-.07,0-.13-.36-.13-.8s.06-.79.13-.79.14.35.14.79S189.45,20.44,189.37,20.44Z"/><path class="cls-1" d="M189.37,23.63c-.07,0-.13-.35-.13-.79s.06-.8.13-.8.14.36.14.8S189.45,23.63,189.37,23.63Z"/><path class="cls-1" d="M189.37,26.83c-.07,0-.13-.36-.13-.8s.06-.8.13-.8.14.36.14.8S189.45,26.83,189.37,26.83Z"/><path class="cls-1" d="M189.37,30c-.07,0-.13-.36-.13-.8s.06-.8.13-.8.14.36.14.8S189.45,30,189.37,30Z"/><path class="cls-1" d="M189.37,33.21c-.07,0-.13-.35-.13-.79s.06-.8.13-.8.14.35.14.8S189.45,33.21,189.37,33.21Z"/><path class="cls-1" d="M189.37,36.41c-.07,0-.13-.36-.13-.8s.06-.8.13-.8.14.36.14.8S189.45,36.41,189.37,36.41Z"/><path class="cls-1" d="M189.37,39.6c-.07,0-.13-.36-.13-.8s.06-.8.13-.8.14.36.14.8S189.45,39.6,189.37,39.6Z"/><rect class="cls-1" x="187.93" y="38.88" width="2.89" height="2.89"/><rect class="cls-1" x="148.94" y="39.27" width="2.89" height="2.89"/><rect class="cls-1" x="187.93" width="2.89" height="2.89"/><rect class="cls-1" x="148.94" y="0.28" width="2.89" height="2.89"/><path class="cls-1" d="M37.49,51.38c5-4.42,5.5-11.64,4.58-18a6.94,6.94,0,0,0-.77-3.07,2.19,2.19,0,0,0-2.76-.83c-.75.46-1,1.42-1.35,2.23A6.32,6.32,0,0,1,35,34.37a2.36,2.36,0,0,1-2.16.44c-1-.4-1.22-1.66-1.33-2.72-.21-2-.41-3.94-.62-5.91a9.93,9.93,0,0,0-.66-3.11,3.29,3.29,0,0,0-2.31-2,2,2,0,0,0-2.31,1.61A8.5,8.5,0,0,0,25.68,24a1.1,1.1,0,0,1-.53,1.11,1.3,1.3,0,0,1-1.22-.35A14,14,0,0,1,21,21.23a20.07,20.07,0,0,0-2.79-3.67,5.74,5.74,0,0,0-4.12-1.74,3.44,3.44,0,0,0-3.25,2.72c-.22,1.53.82,2.95,1.9,4.05a23.26,23.26,0,0,0,5.43,4.14,2,2,0,0,1,.92.8c.31.68-.29,1.45-1,1.76a12.41,12.41,0,0,1-2.43.55,2.41,2.41,0,0,0-1.9,1.46c-.31,1.13.72,2.16,1.69,2.81a20.15,20.15,0,0,0,6.37,2.79,6.91,6.91,0,0,1,2.34.84,2,2,0,0,1,.87,2.17A2,2,0,0,1,23,41a13.91,13.91,0,0,1-2.42-.63c-1.51-.39-3.38-.08-4.17,1.28a3.37,3.37,0,0,0,0,3,7.86,7.86,0,0,0,1.89,2.44,20.51,20.51,0,0,0,9.35,5.14,14,14,0,0,0,9.88-.83"/><path class="cls-2" d="M38.09,56.1a46.67,46.67,0,0,0-2.69-8.53,96.75,96.75,0,0,0-4.88-9.79L29.1,35.29c-.46-.82-.92-1.64-1.42-2.4a48.73,48.73,0,0,0-3.13-4.25c-1.06-1.3-2.12-2.49-3.11-3.6s-2-2.13-2.85-3A37.81,37.81,0,0,0,14,18.14c-.57-.41-1-.72-1.34-.92L12.32,17l-.12-.07.11.09.35.24c.3.22.75.53,1.31,1a39,39,0,0,1,4.52,3.91c.9.89,1.84,1.91,2.83,3s2,2.31,3.09,3.61A49.79,49.79,0,0,1,27.52,33c.49.77.95,1.57,1.42,2.39s.93,1.66,1.41,2.5a98.75,98.75,0,0,1,4.89,9.76A48.48,48.48,0,0,1,38,56.12"/><path class="cls-2" d="M27.62,32.88a2.28,2.28,0,0,0,.05-.46c0-.3,0-.73.06-1.26,0-1.07,0-2.55,0-4.18s0-3.11.06-4.17c0-.53,0-1,.06-1.26a2.41,2.41,0,0,0,0-.47,2.56,2.56,0,0,0-.08.46c-.05.29-.09.73-.13,1.26-.09,1.07-.13,2.55-.11,4.18s0,3.06,0,4.17c0,.51,0,.93,0,1.27A2.35,2.35,0,0,0,27.62,32.88Z"/><path class="cls-2" d="M13.74,31.84a2.2,2.2,0,0,0,.55,0l1.5,0c1.26,0,3,.06,4.91.2s3.65.36,4.9.55l1.48.23a2.15,2.15,0,0,0,.54.07,4.06,4.06,0,0,0-.53-.14c-.35-.08-.85-.19-1.47-.3-1.24-.22-3-.45-4.9-.61s-3.67-.18-4.94-.14c-.63,0-1.14,0-1.49.08A5.5,5.5,0,0,0,13.74,31.84Z"/><path class="cls-2" d="M35.21,47.34a.62.62,0,0,0,.07-.18l.18-.51c.15-.45.36-1.11.6-1.93.48-1.63,1.08-3.9,1.71-6.41s1.2-4.8,1.65-6.43c.22-.8.4-1.46.54-1.94.06-.21.1-.39.14-.53a.67.67,0,0,0,0-.19.82.82,0,0,0-.08.18l-.17.51c-.16.45-.36,1.11-.6,1.93-.49,1.63-1.08,3.9-1.71,6.42s-1.2,4.79-1.65,6.43c-.22.79-.41,1.45-.54,1.93-.06.21-.11.39-.14.53A.67.67,0,0,0,35.21,47.34Z"/><path class="cls-2" d="M16.5,43.51s.06,0,.19.05l.54.12,2,.42c1.69.35,4,.85,6.59,1.42s4.92,1.06,6.62,1.37c.85.16,1.54.28,2,.35l.55.09h.2s-.06,0-.19-.05l-.54-.12-2-.42c-1.69-.35-4-.86-6.6-1.42S21,44.27,19.26,44c-.85-.16-1.54-.28-2-.35l-.55-.09Z"/><circle class="cls-1" cx="101.56" cy="139.06" r="56.79" transform="translate(-51.03 218.86) rotate(-81.47)"/><path class="cls-2" d="M101.56,183.88a44.82,44.82,0,1,1,44.82-44.82A44.87,44.87,0,0,1,101.56,183.88Zm0-89.19a44.37,44.37,0,1,0,44.36,44.37A44.42,44.42,0,0,0,101.56,94.69Z"/><path class="cls-2" d="M101.56,191a52,52,0,1,1,52-52A52,52,0,0,1,101.56,191Zm0-103.48a51.52,51.52,0,1,0,51.51,51.52A51.57,51.57,0,0,0,101.56,87.54Z"/><path class="cls-2" d="M101.56,177.92a38.86,38.86,0,1,1,38.86-38.86A38.91,38.91,0,0,1,101.56,177.92Zm0-77.27A38.41,38.41,0,1,0,140,139.06,38.45,38.45,0,0,0,101.56,100.65Z"/><path class="cls-2" d="M101.56,171.83a32.78,32.78,0,1,1,32.77-32.77A32.81,32.81,0,0,1,101.56,171.83Zm0-65.09a32.32,32.32,0,1,0,32.31,32.32A32.36,32.36,0,0,0,101.56,106.74Z"/><path class="cls-2" d="M101.56,165.59a26.53,26.53,0,1,1,26.53-26.53A26.56,26.56,0,0,1,101.56,165.59Zm0-52.61a26.08,26.08,0,1,0,26.07,26.08A26.11,26.11,0,0,0,101.56,113Z"/><path class="cls-2" d="M101.56,160a20.92,20.92,0,1,1,20.91-20.91A20.94,20.94,0,0,1,101.56,160Zm0-41.37A20.46,20.46,0,1,0,122,139.06,20.49,20.49,0,0,0,101.56,118.6Z"/><rect class="cls-3" x="97.3" y="2.25" width="22.04" height="22.04"/><rect class="cls-4" x="77.63" y="119.04" width="49.59" height="54.46" transform="translate(-10.4 7.86) rotate(-4.18)"/><polygon class="cls-5" points="123.67 144.75 122.94 128.69 79.74 132.74 81.39 149.42 123.67 144.75"/><path class="cls-5" d="M132.71,172.61l-55.37,3.72a3.49,3.49,0,0,1-3.72-3.26h0a3.5,3.5,0,0,1,3.26-3.73l55.36-3.72a3.5,3.5,0,0,1,3.73,3.26h0A3.5,3.5,0,0,1,132.71,172.61Z"/><rect class="cls-3" x="9.97" y="50.96" width="184.25" height="83.46"/><polygon class="cls-1" points="9.97 134.42 14.73 136.91 189.65 136.74 194.21 134.42 9.97 134.42"/><polygon class="cls-5" points="59.94 126.55 59.62 70.34 145.98 70.34 145.98 127.13 59.94 126.55"/><path class="cls-2" d="M77.77,115.85c3.34-.17,6.74.61,10.08,1l-1.79-.48a10.76,10.76,0,0,1,12-11.64c2.38.28,4.72,1.35,7.08,1,4.32-.73,6.54-5.88,10.65-7.42,5.25-2,11.36,2.64,16.54.48,2.09-.87,3.62-2.72,5.57-3.89,1.66-1,4.08-1.3,5.48-.14V82.63c-1.38,2.67-4.78,4-7.85,3.72-3.25-.27-6.22-1.9-9-3.53s-5.74-3.31-9-3.73c-4.6-.59-9.07,1.47-13.54,2.73-4,1.13-8.38,1.63-12.41.46l-.4-.13a6.65,6.65,0,0,1-1.68,1.19c-3.42,1.66-8-.57-11.13,1.6-1.87,1.3-2.52,3.74-3.9,5.56-2.54,3.36-8.66,4.33-12.18,2v27.77l0,3.6H64.1A17.78,17.78,0,0,1,77.77,115.85Zm52.9-24.77a2.07,2.07,0,0,1,.7-.34l.1,0,0,0a2,2,0,0,1,1.39,3.76,2,2,0,0,1-2-3.5Z"/><path class="cls-6" d="M143.35,94.71c-1.4-1.16-3.82-.87-5.48.14-2,1.17-3.48,3-5.57,3.89-5.18,2.16-11.29-2.45-16.54-.48-4.11,1.54-6.33,6.69-10.65,7.42-2.36.4-4.7-.67-7.08-1a10.76,10.76,0,0,0-12,11.64l1.79.48a17.41,17.41,0,0,0,7.64-.48c7.12-2.41,11-11.48,18.47-12.35,4.15-.47,8.28,1.83,12.39,1.13,3.34-.57,6-3,8.75-5s5.41-3.76,8.49-2.64V94.92A2.41,2.41,0,0,0,143.35,94.71Z"/><path class="cls-6" d="M135.1,100.2c-2.76,2-5.41,4.38-8.75,5-4.11.7-8.24-1.6-12.39-1.13-7.47.87-11.35,9.94-18.47,12.35a17.41,17.41,0,0,1-7.64.48c-3.34-.39-6.74-1.17-10.08-1a17.78,17.78,0,0,0-13.67,8h1.81a13.59,13.59,0,0,1,6.57-3.68,13.27,13.27,0,0,1,10.71,2.06c.7.5,1.36,1.08,2,1.64l13.6,0c.6-.34,1.2-.68,1.82-1,2.46-1.25,5.27-2.12,8-1.55a7,7,0,0,1,4.17,2.55l14.55,0a4,4,0,0,1,2.36-2.08c1.09-.33,2.36-.2,3.3-.86,1.09-.77,1.3-2.27,1.74-3.53a8.13,8.13,0,0,1,8.87-5.08V97.56C140.51,96.44,137.81,98.27,135.1,100.2ZM122.23,121a4.58,4.58,0,0,1-4.56-7.92l-.36.17a4.26,4.26,0,0,1,1.35-.71l.47-.14-.08,0a4.59,4.59,0,0,1,3.18,8.56Zm16.15-16.51a1.23,1.23,0,0,1-1.19-2.14l-.13.06a1.06,1.06,0,0,1,.43-.2l.06,0h0a1.31,1.31,0,0,1,1.35.53A1.29,1.29,0,0,1,138.38,104.46Z"/><path class="cls-6" d="M134.72,117.44c-.44,1.26-.65,2.76-1.74,3.53-.94.66-2.21.53-3.3.86a4,4,0,0,0-2.36,2.08h16.27V112.36A8.13,8.13,0,0,0,134.72,117.44Z"/><path class="cls-6" d="M72.48,120.16a13.59,13.59,0,0,0-6.57,3.68l19.3,0c-.66-.56-1.32-1.14-2-1.64A13.27,13.27,0,0,0,72.48,120.16Z"/><path class="cls-6" d="M108.6,121.34c-2.7-.57-5.51.3-8,1.55-.62.31-1.22.65-1.82,1h14A7,7,0,0,0,108.6,121.34Z"/><path class="cls-6" d="M103,76.73c-2.43.18-5-.24-7.19.89-1.93,1-3.11,3.06-4.69,4.54l.39.14c4,1.16,8.38.67,12.41-.47,4.47-1.26,8.94-3.31,13.54-2.72,3.24.41,6.15,2.11,9,3.73s5.79,3.25,9,3.52c3.07.26,6.47-1,7.86-3.72v-10h0l-34.91,0C108.23,75.08,105.38,76.55,103,76.73Z"/><path class="cls-6" d="M130,93.36a2,2,0,1,0,3.61-1.78,2.13,2.13,0,0,0-2.21-.85l0,0-.1,0a2.07,2.07,0,0,0-.7.34l.21-.09A2.09,2.09,0,0,0,130,93.36Z"/><path class="cls-6" d="M119.05,112.41l.08,0-.47.14a4.26,4.26,0,0,0-1.35.71l.36-.17a4.55,4.55,0,1,0,1.38-.64Z"/><g class="cls-7"><path class="cls-8" d="M119.05,112.41l.08,0-.47.14a4.26,4.26,0,0,0-1.35.71l.36-.17a4.55,4.55,0,1,0,1.38-.64Z"/></g><path class="cls-6" d="M138.88,102.69a1.31,1.31,0,0,0-1.35-.53h0l-.06,0a1.06,1.06,0,0,0-.43.2l.13-.06a1.23,1.23,0,1,0,1.69.37Z"/><path class="cls-6" d="M74.42,90.5c1.38-1.82,2-4.26,3.9-5.56,3.13-2.17,7.71.06,11.13-1.6a6.65,6.65,0,0,0,1.68-1.19c1.59-1.49,2.76-3.54,4.7-4.55,2.16-1.12,4.76-.71,7.19-.89s5.21-1.63,5.38-4H62.08l.07,19.75.09,0C65.76,94.83,71.88,93.86,74.42,90.5Z"/><g class="cls-7"><path class="cls-8" d="M143.35,94.71c-1.4-1.16-3.82-.87-5.48.14-2,1.17-3.48,3-5.57,3.89-5.18,2.16-11.29-2.45-16.54-.48-4.11,1.54-6.33,6.69-10.65,7.42-2.36.4-4.7-.67-7.08-1a10.76,10.76,0,0,0-12,11.64l1.79.48a17.41,17.41,0,0,0,7.64-.48c7.12-2.41,11-11.48,18.47-12.35,4.15-.47,8.28,1.83,12.39,1.13,3.34-.57,6-3,8.75-5s5.41-3.76,8.49-2.64V94.92A2.41,2.41,0,0,0,143.35,94.71Z"/></g><g class="cls-7"><path class="cls-8" d="M95.44,72.67H62.08l.07,19.75.09,0c3.52,2.36,9.64,1.39,12.18-2,1.38-1.82,2-4.26,3.9-5.56,3.13-2.17,7.71.06,11.13-1.6a6.65,6.65,0,0,0,1.68-1.19c1.59-1.49,2.76-3.54,4.7-4.55,2.16-1.12,4.76-.71,7.19-.89s5.21-1.63,5.38-4"/></g><path class="cls-4" d="M121,96.6c-.15-.58-1.23-4.78-3.2-12.48l0,0L82.12,93.23h0l0,0c1.1,4.34,2.17,8.56,3.17,12.49l0,0,35.74-9-35.72,9.12h-.05v0c-1-3.93-2.07-8.14-3.17-12.49v0h0l35.73-9.06h0v0C119.81,91.82,120.86,96,121,96.6Z"/><rect class="cls-5" x="120.5" y="96" width="0.95" height="0.95" transform="translate(-20.03 32.75) rotate(-14.25)"/><rect class="cls-5" x="84.8" y="105.2" width="0.95" height="0.95" transform="translate(-23.39 24.25) rotate(-14.25)"/><rect class="cls-5" x="117.32" y="83.46" width="0.95" height="0.95" transform="translate(-17.04 31.58) rotate(-14.25)"/><rect class="cls-5" x="99.3" y="88.04" width="0.95" height="0.95" transform="translate(-18.72 27.29) rotate(-14.25)"/><rect class="cls-5" x="102.49" y="100.57" width="0.95" height="0.95" transform="translate(-21.71 28.46) rotate(-14.25)"/><rect class="cls-5" x="83.16" y="98.75" width="0.95" height="0.95" transform="translate(-21.85 23.65) rotate(-14.25)"/><rect class="cls-5" x="118.89" y="89.67" width="0.95" height="0.95" transform="translate(-18.52 32.16) rotate(-14.25)"/><rect class="cls-5" x="81.63" y="92.71" width="0.95" height="0.95" transform="translate(-20.42 23.08) rotate(-14.25)"/><path class="cls-4" d="M90.88,94.27l-2.57.66L88,93.71,94.58,92l.31,1.22-2.57.65L94,100.45l-1.44.37Z"/><path class="cls-4" d="M101.8,95.78,97.16,97a1.85,1.85,0,0,0,2.28.94,2.2,2.2,0,0,0,1.44-1.06l1,.67a3.43,3.43,0,0,1-6.18-.64A3,3,0,0,1,98,93.07a3,3,0,0,1,3.77,2.3C101.75,95.48,101.78,95.65,101.8,95.78Zm-4.89.27,3.36-.86a1.66,1.66,0,0,0-2-1A1.7,1.7,0,0,0,96.91,96.05Z"/><path class="cls-4" d="M107.4,97l-2-1.66-1,2.44-1.53.38,1.55-3.59-3-2.35,1.54-.39,1.94,1.57,1-2.31,1.5-.38-1.48,3.46L109,96.64Z"/><path class="cls-4" d="M113.46,95.16a2.25,2.25,0,0,1-1.23.74,1.87,1.87,0,0,1-2.54-1.48L109,91.57l-1,.25-.28-1.11,1-.25-.34-1.35,1.38-.35.35,1.35,1.58-.4.28,1.11-1.58.4.71,2.81a.79.79,0,0,0,1,.68,1.22,1.22,0,0,0,.71-.44Z"/><path class="cls-4" d="M120.29,93.77s-8,2.08-17.85,4.59-17.87,4.51-17.88,4.49,8-2.08,17.85-4.59S120.28,93.75,120.29,93.77Z"/><path class="cls-4" d="M194.84,94.07a3.53,3.53,0,0,0,.72-.55,3.65,3.65,0,0,0,.88-2.4,4.1,4.1,0,0,0-.36-1.82,3.93,3.93,0,0,0-1.46-1.65,5.61,5.61,0,0,0-5.22-.26,23.15,23.15,0,0,0-5.46,3.76,16,16,0,0,1-3.13,2,9.62,9.62,0,0,1-3.87.88,10.2,10.2,0,0,1-7.62-3.34,9.28,9.28,0,0,1-2.14-3.95,6.15,6.15,0,0,1,.53-4.56,4.92,4.92,0,0,1,1.62-1.71,3.81,3.81,0,0,1,2.24-.65,3.28,3.28,0,0,1,2.09,1,4.39,4.39,0,0,1,1.1,2,5.62,5.62,0,0,1-.46,4.28,6,6,0,0,1-3.23,2.58,8,8,0,0,1-3.95.3,12.92,12.92,0,0,1-3.53-1.22c-2.16-1.09-4-2.43-5.73-3.46a14.75,14.75,0,0,0-5.07-2,7.58,7.58,0,0,0-4.06.41,5.89,5.89,0,0,0-2.16,1.44l-.26.29-.18.23a1.84,1.84,0,0,1-.15.18l.13-.2.17-.23.26-.31a6,6,0,0,1,2.16-1.49,7.7,7.7,0,0,1,4.11-.45,14.63,14.63,0,0,1,5.13,2c1.78,1,3.59,2.35,5.73,3.42a12.9,12.9,0,0,0,3.48,1.2,7.92,7.92,0,0,0,3.85-.3,5.79,5.79,0,0,0,3.11-2.5,5.43,5.43,0,0,0,.43-4.1,4.34,4.34,0,0,0-1-1.87,3,3,0,0,0-1.93-.88,3.53,3.53,0,0,0-2.1.61,4.84,4.84,0,0,0-1.55,1.63,5.91,5.91,0,0,0-.5,4.38,9,9,0,0,0,2.08,3.86,10,10,0,0,0,7.45,3.27,9.38,9.38,0,0,0,3.78-.85,15.72,15.72,0,0,0,3.1-2,23.07,23.07,0,0,1,5.52-3.77,5.75,5.75,0,0,1,5.36.31,3.94,3.94,0,0,1,1.48,1.71,4.09,4.09,0,0,1,.35,1.88,3.64,3.64,0,0,1-.94,2.42,1.68,1.68,0,0,1-.3.26,1.24,1.24,0,0,1-.24.16Z"/><g class="cls-7"><path d="M134.72,117.44c-.44,1.26-.65,2.76-1.74,3.53-.94.66-2.21.53-3.3.86a4,4,0,0,0-2.36,2.08h16.27V112.36A8.13,8.13,0,0,0,134.72,117.44Z"/></g><g class="cls-7"><path d="M138.88,102.69a1.31,1.31,0,0,0-1.35-.53h0l-.06,0a1.06,1.06,0,0,0-.43.2l.13-.06a1.23,1.23,0,1,0,1.69.37Z"/></g><g class="cls-7"><path d="M72.48,120.16a13.59,13.59,0,0,0-6.57,3.68l19.3,0c-.66-.56-1.32-1.14-2-1.64A13.27,13.27,0,0,0,72.48,120.16Z"/></g><g class="cls-7"><path d="M108.6,121.34c-2.7-.57-5.51.3-8,1.55-.62.31-1.22.65-1.82,1h14A7,7,0,0,0,108.6,121.34Z"/></g><path class="cls-6" d="M83.2,146.19c1.25-2.25,4.15-3,6.72-2.95s5.11.82,7.68.7c5.89-.27,11-5,16.87-4.79,3.53.1,7,2,10.45,1.32.84-.16,1.83-.42,2.45.17a1.53,1.53,0,0,1,0,1.93,4.18,4.18,0,0,1-1.66,1.26c-9,4.53-19.37,5-29.36,6.23a25.8,25.8,0,0,1-7.69.25c-2.53-.44-5-1.88-6.07-4.25"/><g class="cls-9"><path d="M83.2,146.19c1.25-2.25,4.15-3,6.72-2.95s5.11.82,7.68.7c5.89-.27,11-5,16.87-4.79,3.53.1,7,2,10.45,1.32.84-.16,1.83-.42,2.45.17a1.53,1.53,0,0,1,0,1.93,4.18,4.18,0,0,1-1.66,1.26c-9,4.53-19.37,5-29.36,6.23a25.8,25.8,0,0,1-7.69.25c-2.53-.44-5-1.88-6.07-4.25"/></g><path class="cls-10" d="M154.23,131.56,138,102.85l-1.33-2.57a3.85,3.85,0,0,0-3.11-2.07L130.88,98s.2-3-1.23-2.81c-.91.16-4.23,3-3.59,3.85s2.53-1.33,2.53-1.33l.72,5.33s-5-2.91-5.8-2.74a.76.76,0,0,0-.2,1.44,14,14,0,0,1,5.73,6.15h0l11.53,25.76-3.94,3.15L141.3,149l9.86-6.75A7.64,7.64,0,0,0,154.23,131.56Z"/><rect class="cls-4" x="120.68" y="97.5" width="0.54" height="0.1" transform="translate(58.76 -44.85) rotate(27.52)"/><path class="cls-4" d="M121.16,97.54l2,0L134.85,104a.87.87,0,0,1,.35,1.18h0a.87.87,0,0,1-1.19.36l-11.56-6.17-1.4-1.6A.14.14,0,0,1,121.16,97.54Z"/><polygon class="cls-5" points="133.69 103.36 132.86 104.94 132.39 104.7 133.22 103.1 133.69 103.36"/><path class="cls-10" d="M86.88,103.94c-.81-.08-3.9,2.67-3.9,2.67l-1.53-5.5s2,.18,2.6-.72-5-.82-5.13-.2a7.93,7.93,0,0,0,.32,2.27l-2.1.4a4.13,4.13,0,0,0-3.32,3.58l-.35,2.94.06,0L57.26,136.58a10.38,10.38,0,0,0,2.11,13.17l16.29,11.58,6.09-13.26-12-7.92,13.8-26.63s3.11-7.79,3.74-8.18A.75.75,0,0,0,86.88,103.94Z"/><path class="cls-6" d="M143.79,149.78l-.2-1.89a8.22,8.22,0,0,0-3.13-5.68h0a8.24,8.24,0,0,1-3.17-6.78l0-.79L129,139.76a17.76,17.76,0,0,0-2.48,2l0,0a376.06,376.06,0,0,0-43.63,4.07l-9.78-3.54.84.66a7.55,7.55,0,0,1-2.23,6.8h0a8.29,8.29,0,0,0-2.29,6.07l.08,1.9s5.84,3.81,10.09,5.24l.16,0a50.73,50.73,0,0,0,22.7,4.34c15.9-.65,29-9.11,30.68-10.27A96.09,96.09,0,0,0,143.79,149.78Z"/><path class="cls-4" d="M82.86,145.81s.07,0,.18.13l.46.43A12.87,12.87,0,0,1,85,148.16a10.92,10.92,0,0,1,1.49,3.12,9.88,9.88,0,0,1,.35,4.21,7.62,7.62,0,0,1-.64,2.11,14.11,14.11,0,0,1-1,1.76,9.29,9.29,0,0,1-2.44,2.45,7.57,7.57,0,0,1-2.1,1A3.53,3.53,0,0,1,80,163l-.21,0a7.57,7.57,0,0,1,.8-.28,8.8,8.8,0,0,0,2-1.05A9.44,9.44,0,0,0,85,159.24a14.48,14.48,0,0,0,1-1.74,7.21,7.21,0,0,0,.61-2,9.81,9.81,0,0,0-.32-4.12,11,11,0,0,0-1.42-3.09,13.63,13.63,0,0,0-1.42-1.81C83.07,146,82.85,145.82,82.86,145.81Z"/><g class="cls-11"><path d="M128.29,159.87c1.29-.92.65-2.8-.78-3.47s-3.12-.27-4.63.22c-4.86,1.59-9.45,3.92-14.3,5.52s-10.15,2.47-15.06,1c-3.41-1-5.71-3.25-9.25-2.84-1.61.18-2.11,2.22-4.49,2.72a52.44,52.44,0,0,0,10.69,3.36,49.63,49.63,0,0,0,13.34.83,59.76,59.76,0,0,0,13.48-2.7A67.58,67.58,0,0,0,128.29,159.87Z"/></g><g class="cls-11"><path d="M86.72,152.5s.42-4.32-2.19-6.93l-1.74.26S85.08,147.48,86.72,152.5Z"/></g><path class="cls-10" d="M95,141c-.09.24.88,10.23.88,10.23s5.07,7.07,13,.19l1-10.89Z"/><g class="cls-11"><path d="M95.87,151.25a29.34,29.34,0,0,1-3-6.8l1.93-.23.47.54Z"/></g><path class="cls-4" d="M137.72,154.08s-.06.06-.19.14l-.59.34a9.5,9.5,0,0,1-2.33.9,6.06,6.06,0,0,1-1.74.14,8.39,8.39,0,0,1-2-.41,8.74,8.74,0,0,1-3.75-2.55,8.23,8.23,0,0,1-1.27-2,13.83,13.83,0,0,1-.71-2.08,9.31,9.31,0,0,1-.28-3.7,5.47,5.47,0,0,1,.88-2.34,3.12,3.12,0,0,1,.42-.53c.1-.12.16-.18.16-.17a1.08,1.08,0,0,1-.13.2,5.6,5.6,0,0,0-1.16,2.86,9.56,9.56,0,0,0,.32,3.62,14.26,14.26,0,0,0,.71,2.05,8.22,8.22,0,0,0,1.24,1.93,7.85,7.85,0,0,0,7.22,2.81,10,10,0,0,0,2.33-.82C137.43,154.22,137.71,154.06,137.72,154.08Z"/><path class="cls-4" d="M126.37,151.56l-.09.06-.27.15-1.07.57c-.46.25-1,.56-1.71.86s-1.44.7-2.31,1.05-1.82.76-2.86,1.11-2.17.74-3.36,1.1a60.64,60.64,0,0,1-7.9,1.71,61.64,61.64,0,0,1-8.07.58l-1.81,0c-.59,0-1.16,0-1.71-.07-1.11,0-2.13-.14-3.07-.23s-1.78-.21-2.52-.3-1.37-.21-1.89-.3l-1.19-.22-.3-.07-.11,0s0,0,.11,0l.31,0,1.2.18c.52.08,1.15.18,1.89.25s1.58.21,2.52.27,2,.18,3.06.21c.55,0,1.12.06,1.7.06h1.81a65.09,65.09,0,0,0,8-.59,63.71,63.71,0,0,0,7.87-1.69c1.19-.35,2.32-.69,3.35-1.07s2-.74,2.86-1.09,1.64-.71,2.32-1,1.26-.58,1.73-.82l1.08-.53.29-.13Z"/><g class="cls-11"><path d="M100.35,154.05a3.29,3.29,0,0,0,.36,3,3.25,3.25,0,0,0,2.67,1.36,3.69,3.69,0,0,1,1.41.05c.54.21.83.76,1.18,1.21a4.22,4.22,0,0,0,7.54-2.4,1.45,1.45,0,0,1,.22-.93c.45-.53,1.28,0,1.9.3a3.59,3.59,0,0,0,4.55-1.54,4.91,4.91,0,0,0-.4-5,8,8,0,0,0-4.31-2.95,8,8,0,0,1-3.13-1.28c-1.23-1.09-1.34-2.94-1.37-4.58"/></g><path class="cls-4" d="M113.32,123a15.89,15.89,0,0,1,1.87,6.46,19.47,19.47,0,0,1-3.36,12.62h0c-1.89,2.9-7.57,6.5-9.26,7s-8.37-3.68-9.72-8.37-3.09-7.53-.79-15.71c2.36-8.39,13.66-8.69,13.66-8.69s7.59,0,9,4.4S113.32,123,113.32,123Z"/><path class="cls-4" d="M101.36,132.44a5.41,5.41,0,0,0-3.93,8.46c.93,1.36,2.48,2.28,3.2,3.76a6.9,6.9,0,0,1,.21,4.47,20.74,20.74,0,0,0-.78,4.47,4.19,4.19,0,0,0,2.06,3.8c1.38.65,3.38-.26,3.39-1.78a3.48,3.48,0,1,0,5.61-2.05,6.38,6.38,0,0,0,5-.56c1.44-.95,2.17-3.07,1.19-4.49-1.16-1.69-3.81-1.53-5.27-3-1.21-1.18-1.28-3.06-1.37-4.74a15.21,15.21,0,0,0-1.73-7,6.74,6.74,0,0,0-6-3.54"/><path class="cls-2" d="M105.73,155.52s-.09,0-.25-.11l-.27-.17-.36-.26a5.61,5.61,0,0,1-1.61-2.3,7.56,7.56,0,0,1-.45-1.9,9,9,0,0,1,.07-2.24,22.83,22.83,0,0,1,1.47-4.88,22.93,22.93,0,0,0,1.45-4.84,8.58,8.58,0,0,0,.07-2.19,7.17,7.17,0,0,0-.44-1.85,5.46,5.46,0,0,0-1.54-2.26,8.06,8.06,0,0,0-.83-.6.92.92,0,0,1,.24.11,1.39,1.39,0,0,1,.28.16,3,3,0,0,1,.37.25,5.58,5.58,0,0,1,1.64,2.27,7.55,7.55,0,0,1,.48,1.9,8.92,8.92,0,0,1,0,2.24,22.25,22.25,0,0,1-1.45,4.89,23.82,23.82,0,0,0-1.48,4.83,9.11,9.11,0,0,0-.09,2.19,7.36,7.36,0,0,0,.42,1.86,5.73,5.73,0,0,0,1.51,2.29C105.4,155.34,105.74,155.49,105.73,155.52Z"/><path class="cls-5" d="M112.58,153.7a2,2,0,0,1-.28.06,5.9,5.9,0,0,1-.83,0,4.9,4.9,0,0,1-2.83-1.08,4.83,4.83,0,0,1-1.31-1.67,5,5,0,0,1-.48-2.39,9.23,9.23,0,0,1,.64-2.61,27.3,27.3,0,0,0,1-2.68,11.78,11.78,0,0,0,.22-5.41,9.35,9.35,0,0,0-1.87-4,8.46,8.46,0,0,0-2.26-2c-.61-.37-1-.51-1-.53a1.55,1.55,0,0,1,.28.09,5.84,5.84,0,0,1,.75.36,8.07,8.07,0,0,1,2.34,1.95,9.28,9.28,0,0,1,2,4.06,11.69,11.69,0,0,1-.2,5.52,27.53,27.53,0,0,1-1,2.7,8.7,8.7,0,0,0-.64,2.54,4.74,4.74,0,0,0,4.4,5A10.46,10.46,0,0,0,112.58,153.7Z"/><path class="cls-6" d="M105.69,130.77a7.29,7.29,0,0,0-.8-.62,2.65,2.65,0,0,0-3.92,1.46,5.87,5.87,0,0,0-.19,1s0-.09-.06-.28a2.6,2.6,0,0,1,.09-.76A2.72,2.72,0,0,1,105,130a2.75,2.75,0,0,1,.57.52C105.66,130.67,105.7,130.76,105.69,130.77Z"/><path class="cls-5" d="M101.35,149.38l-.17-.13c-.1-.09-.25-.23-.42-.41a7.63,7.63,0,0,1-1.24-1.8,7.18,7.18,0,0,1-.81-3.14A4.12,4.12,0,0,1,99.1,142a7.65,7.65,0,0,1,1.24-1.66,4.66,4.66,0,0,0,1.08-1.66,3.27,3.27,0,0,0-.06-1.81,22.39,22.39,0,0,1-1.06-3,2.88,2.88,0,0,1,.38-2.13,1.43,1.43,0,0,1,.43-.41c.12-.07.19-.1.19-.09a2.22,2.22,0,0,0-.55.55,2.91,2.91,0,0,0-.28,2.06,26.07,26.07,0,0,0,1.09,3,3.35,3.35,0,0,1,.08,1.94,4.86,4.86,0,0,1-1.12,1.75,7.49,7.49,0,0,0-1.21,1.6,4.08,4.08,0,0,0-.39,1.79,7.46,7.46,0,0,0,.75,3.07,8.25,8.25,0,0,0,1.16,1.8C101.16,149.17,101.36,149.36,101.35,149.38Z"/><path class="cls-5" d="M111,144.71a3.53,3.53,0,0,1,0-.65c0-.42.07-1,.09-1.77a15.51,15.51,0,0,0-.82-5.73,9.51,9.51,0,0,0-3.44-4.55,9.3,9.3,0,0,0-2.16-1s.06,0,.17,0a3.2,3.2,0,0,1,.47.13,6.9,6.9,0,0,1,1.61.76,9.3,9.3,0,0,1,3.58,4.61,14.8,14.8,0,0,1,.76,5.81c0,.75-.11,1.36-.17,1.77A3.06,3.06,0,0,1,111,144.71Z"/><path class="cls-5" d="M106.86,131.85a5.66,5.66,0,0,1,0-1.07,5.6,5.6,0,0,0-.37-2.49,2.81,2.81,0,0,0-1.82-1.57,6.39,6.39,0,0,0-1.05-.14,1.89,1.89,0,0,1,1.09,0,3,3,0,0,1,1.08.5,2.85,2.85,0,0,1,.91,1.15,5,5,0,0,1,.33,2.59A4.3,4.3,0,0,1,106.86,131.85Z"/><path class="cls-12" d="M107.6,123.37a4.51,4.51,0,0,1-.63-.23,3.73,3.73,0,0,0-1.55-.21,3.68,3.68,0,0,0-1.5.47c-.35.2-.55.37-.58.34s.14-.23.49-.48a3.25,3.25,0,0,1,1.56-.57A3.37,3.37,0,0,1,107,123,1.37,1.37,0,0,1,107.6,123.37Z"/><path class="cls-5" d="M113.09,123.35a11.1,11.1,0,0,0-1.16-1.16,5.65,5.65,0,0,0-7.26.1,10.39,10.39,0,0,0-1.13,1.19s0-.16.21-.4a5.33,5.33,0,0,1,.81-.92,5.64,5.64,0,0,1,7.48-.1,5.24,5.24,0,0,1,.83.91C113,123.2,113.11,123.35,113.09,123.35Z"/><path class="cls-12" d="M110.52,117s-.58.07-1.48.34a7.93,7.93,0,0,0-5.18,4.81c-.34.88-.41,1.47-.46,1.46a1.48,1.48,0,0,1,0-.42,7.09,7.09,0,0,1,.27-1.1,7.8,7.8,0,0,1,2-3.13,7.68,7.68,0,0,1,3.27-1.78,6.48,6.48,0,0,1,1.12-.19A1.21,1.21,0,0,1,110.52,117Z"/><path class="cls-5" d="M103.38,116.9s-.25.32-.56.89a4.89,4.89,0,0,0,0,4.8c.32.57.61.86.58.89a2.7,2.7,0,0,1-.72-.8,4.64,4.64,0,0,1-.75-2.48,4.75,4.75,0,0,1,.7-2.49A2.31,2.31,0,0,1,103.38,116.9Z"/><path class="cls-5" d="M97.09,118.6a6.77,6.77,0,0,0,.35,1.17,5.06,5.06,0,0,0,1.94,2.15,10.94,10.94,0,0,0,2.73,1.13,9,9,0,0,1,1.19.36,5.29,5.29,0,0,1-1.23-.2,9.15,9.15,0,0,1-2.82-1.09,4.87,4.87,0,0,1-2-2.29,3.3,3.3,0,0,1-.21-.9C97.06,118.72,97.07,118.6,97.09,118.6Z"/><path class="cls-5" d="M100.56,138.53l-.22-.05c-.15,0-.36-.12-.63-.22A8.63,8.63,0,0,1,97.64,137a8.12,8.12,0,0,1-2.21-2.84,7.3,7.3,0,0,1-.53-4.34A6.59,6.59,0,0,1,97,126a6.43,6.43,0,0,1,3.27-1.47,5.84,5.84,0,0,1,2.42.17,4,4,0,0,1,.62.23.74.74,0,0,1,.2.11s-.3-.12-.85-.26a6.23,6.23,0,0,0-2.36-.08,6.37,6.37,0,0,0-3.15,1.46,6.51,6.51,0,0,0-2.05,3.7,7.11,7.11,0,0,0,.5,4.21,8.05,8.05,0,0,0,2.11,2.8,8.9,8.9,0,0,0,2,1.28C100.27,138.41,100.57,138.51,100.56,138.53Z"/><path class="cls-5" d="M100,143.35l-.28-.13c-.19-.1-.45-.24-.79-.44a15.09,15.09,0,0,1-2.61-2,15.41,15.41,0,0,1-2.94-3.92,15.07,15.07,0,0,1-1.12-2.68,9.79,9.79,0,0,1-.46-3.09,6.68,6.68,0,0,1,.79-3,7.9,7.9,0,0,1,1.84-2.26,8.91,8.91,0,0,1,4.45-2,11.52,11.52,0,0,1,3.31,0,8.59,8.59,0,0,1,.88.15,1.28,1.28,0,0,1,.31.08l-.32,0-.88-.1a12.56,12.56,0,0,0-3.27.11,9,9,0,0,0-4.34,2A7,7,0,0,0,92,131.08a10,10,0,0,0,.46,3,15,15,0,0,0,1.08,2.65,16,16,0,0,0,2.86,3.9,16.44,16.44,0,0,0,2.55,2.06C99.58,143.13,100,143.32,100,143.35Z"/><path class="cls-5" d="M111,138.45a11.45,11.45,0,0,0,1.22-2.62,9.42,9.42,0,0,0,.37-3.1,8.66,8.66,0,0,0-1-3.66,8.81,8.81,0,0,0-5.18-4.36,4.5,4.5,0,0,0-2.08-.11c-.49.11-.74.25-.75.22l.18-.1a3,3,0,0,1,.55-.21,4.41,4.41,0,0,1,2.14,0,7.9,7.9,0,0,1,2.85,1.44,9.24,9.24,0,0,1,2.5,3,8.67,8.67,0,0,1,1,3.76,9.37,9.37,0,0,1-.43,3.16,8.92,8.92,0,0,1-.91,1.94,4.12,4.12,0,0,1-.33.48C111,138.41,111,138.46,111,138.45Z"/><rect class="cls-8" x="108.68" y="15.06" width="70.21" height="52.35"/><path class="cls-4" d="M178.89,67.42s0-.33,0-1,0-1.57,0-2.78c0-2.44,0-6,0-10.58,0-9.12,0-22.2,0-38l.09.1-70.21,0h0l.12-.12c0,18.82,0,36.64,0,52.36l-.11-.11,50.67,0,14.4,0h0l-14.37,0-50.74,0h-.11v-.1c0-15.72,0-33.54,0-52.36v-.12h.12l70.21,0h.1v.09c0,15.87,0,29-.05,38.1,0,4.56,0,8.12,0,10.56v2.76C178.9,67.1,178.89,67.42,178.89,67.42Z"/><rect class="cls-2" x="144.88" y="45.97" width="42.69" height="16.6"/><path class="cls-4" d="M187.57,62.57v-.3c0-.2,0-.49,0-.86,0-.76,0-1.87,0-3.3,0-2.86,0-7,0-12.14l.08.08-42.69,0h0L145,46c0,5.8,0,11.41,0,16.6l-.11-.12,30.58.06,8.9,0h2.41l-2.36,0-8.87,0-30.66,0h-.11v-.11c0-5.19,0-10.8,0-16.6v-.12h.12l42.69,0h.09V46c0,5.16,0,9.32,0,12.19,0,1.42,0,2.52,0,3.28v.85C187.58,62.48,187.57,62.57,187.57,62.57Z"/><rect class="cls-4" x="144.88" y="45.97" width="42.69" height="3.56"/><rect class="cls-4" x="149.95" y="52.24" width="4.19" height="4.19"/><rect class="cls-4" x="152.49" y="54.78" width="4.19" height="4.19"/><rect class="cls-4" x="159.95" y="52.24" width="4.19" height="4.19"/><rect class="cls-12" x="162.49" y="54.78" width="4.19" height="4.19"/><path class="cls-4" d="M166.68,59a2.33,2.33,0,0,1,0-.32l0-.86c0-.74,0-1.78,0-3l.1.1-4.19,0s.22-.23.12-.12h0V57c0,.7,0,1.37,0,2l-.1-.1c1.23,0,2.27,0,3,.05l.87,0,.32,0a.9.9,0,0,1-.28,0l-.84,0c-.73,0-1.79,0-3.07,0h-.1V59c0-.61,0-1.28,0-2V54.81h0c-.11.11.14-.15.12-.12l4.19,0h.1v.1c0,1.28,0,2.34-.05,3.07l0,.84A.79.79,0,0,1,166.68,59Z"/><rect class="cls-12" x="169.27" y="52.24" width="4.19" height="4.19"/><path class="cls-4" d="M173.47,56.43a1.57,1.57,0,0,1,0-.32l0-.86c0-.74,0-1.78-.06-3l.11.1-4.2,0,.12-.12h0v2.19c0,.71,0,1.37,0,2l-.11-.1c1.24,0,2.27,0,3,.05l.86,0,.33,0a1,1,0,0,1-.28,0l-.84,0c-.73,0-1.8,0-3.08.05h-.1v-.11c0-.61,0-1.27,0-2V52.26h0c-.1.11.15-.15.12-.12l4.2,0h.1v.1c0,1.28,0,2.34,0,3.07l0,.84C173.48,56.34,173.47,56.44,173.47,56.43Z"/><rect class="cls-12" x="171.81" y="54.78" width="4.19" height="4.19"/><path class="cls-4" d="M176,59a1.57,1.57,0,0,1,0-.32l0-.86c0-.74-.05-1.78-.06-3l.11.1-4.2,0,.12-.12h0V57c0,.7,0,1.37,0,2l-.11-.1c1.24,0,2.27,0,3,.05l.86,0,.33,0a1,1,0,0,1-.28,0l-.85,0c-.73,0-1.79,0-3.07,0h-.1V59c0-.61,0-1.28,0-2V54.81h0c-.1.11.15-.15.12-.12l4.2,0h.1v.1c0,1.28,0,2.34-.05,3.07l0,.84C176,58.88,176,59,176,59Z"/><rect class="cls-4" x="171.81" y="54.78" width="1.65" height="1.65"/><rect class="cls-4" x="177.85" y="52.24" width="4.19" height="4.19"/><rect class="cls-4" x="180.39" y="54.78" width="4.19" height="4.19"/><rect class="cls-2" x="180.39" y="54.78" width="1.65" height="1.65"/><rect class="cls-2" x="154.99" y="96.6" width="41.03" height="15.95"/><path class="cls-13" d="M196.08,112.6H154.93V96.54h41.15Zm-41-.11H196V96.65H155.05Z"/><rect class="cls-4" x="154.99" y="96.6" width="41.03" height="3.42"/><rect class="cls-12" x="157.3" y="104.28" width="4.05" height="4.05"/><path class="cls-4" d="M161.36,108.33a1.3,1.3,0,0,1,0-.31c0-.23,0-.5,0-.83,0-.72,0-1.72-.05-2.91l.11.1-4.06,0,.12-.12h0v2.12c0,.68,0,1.32,0,1.91l-.1-.1c1.19,0,2.19,0,2.91,0l.83,0,.32,0a7,7,0,0,1-1.09,0c-.7,0-1.73.05-3,.06h-.1v-.11c0-.59,0-1.23,0-1.91V104.3h0c-.1.11.15-.14.12-.12l4.06,0h.1v.1c0,1.24,0,2.27-.05,3S161.37,108.35,161.36,108.33Z"/><line class="cls-2" x1="161.36" y1="104.28" x2="157.3" y2="108.33"/><path class="cls-6" d="M157.3,108.33a19.71,19.71,0,0,1,1.94-2.11,16.27,16.27,0,0,1,2.12-1.94,18.23,18.23,0,0,1-2,2.11A16.6,16.6,0,0,1,157.3,108.33Z"/><rect class="cls-4" x="162.58" y="104.28" width="4.05" height="4.05"/><rect class="cls-5" x="167.85" y="104.28" width="4.05" height="4.05"/><rect class="cls-6" x="173.13" y="104.28" width="4.05" height="4.05"/><rect class="cls-6" x="178.4" y="104.28" width="4.05" height="4.05"/><g class="cls-9"><rect class="cls-8" x="178.4" y="104.28" width="4.05" height="4.05"/></g><rect class="cls-6" x="183.68" y="104.28" width="4.05" height="4.05"/><g class="cls-7"><rect x="183.68" y="104.28" width="4.05" height="4.05"/></g><rect class="cls-6" x="188.95" y="104.28" width="4.05" height="4.05"/><g class="cls-14"><rect x="188.95" y="104.28" width="4.05" height="4.05"/></g><rect class="cls-8" x="34.26" y="15.06" width="57.37" height="39.95"/><path class="cls-4" d="M91.63,55s0-.25,0-.73V52.17c0-1.85,0-4.57,0-8.05,0-6.95,0-16.92,0-29.06l.09.1-57.36,0h0l.12-.12c0,14.28,0,27.84,0,40l-.11-.11L75.62,55l11.79,0h0l-11.77,0-41.43.06h-.11V55c0-12.12,0-25.68,0-40v-.12h.13l57.36,0h.1v.09c0,12.16,0,22.16,0,29.12,0,3.47,0,6.18,0,8l0,2.1C91.64,54.78,91.63,55,91.63,55Z"/><rect class="cls-4" x="34.26" y="15.06" width="57.37" height="4.99"/><path class="cls-8" d="M37.38,17.7a.6.6,0,1,1-.6-.62A.62.62,0,0,1,37.38,17.7Z"/><path class="cls-8" d="M39.8,17.7a.61.61,0,0,1-.59.63.63.63,0,0,1,0-1.25A.6.6,0,0,1,39.8,17.7Z"/><path class="cls-8" d="M42.23,17.7a.62.62,0,0,1-.6.63.63.63,0,1,1,.6-.63Z"/><rect class="cls-6" x="39.72" y="24.95" width="8.18" height="19.62"/><rect class="cls-3" x="52.33" y="24.95" width="8.18" height="19.62"/><rect class="cls-2" x="64.93" y="24.95" width="8.18" height="19.62"/><rect class="cls-1" x="77.54" y="25.1" width="8.18" height="19.62"/><rect class="cls-6" x="38.77" y="46.73" width="49.56" height="4.48"/><polygon class="cls-4" points="84.56 50.29 85.63 55.69 86.5 54.19 88.39 56.88 89.33 56.27 87.44 53.58 89.17 53.33 84.56 50.29"/><rect class="cls-2" x="44.39" y="59.77" width="25.25" height="43.31"/><path class="cls-13" d="M69.65,103.08a1.66,1.66,0,0,1,0-.21v-.62c0-.55,0-1.35,0-2.39,0-2.09,0-5.12,0-9,0-7.65,0-18.47,0-31.14l.11.11H44.39l.12-.11c0,16.52,0,31.67,0,43.31l-.1-.09L62.8,103l5.06,0h0l-5,0-18.47,0H44.3v-.09c0-11.64,0-26.79,0-43.31v-.12H69.76v.11c0,12.7,0,23.54-.06,31.21,0,3.82,0,6.85,0,8.93,0,1,0,1.82,0,2.36v.81Z"/><rect class="cls-4" x="44.39" y="59.77" width="25.25" height="3.65"/><polygon class="cls-4" points="50.46 67.97 50.77 72.01 51.9 70.54 53.79 70.46 50.46 67.97"/><path class="cls-4" d="M61.38,68l.23.17.7.49c.59.43,1.45,1,2.43,1.78l.15.11H64.7l-1.82.08h-.06l0,0-1.13,1.48-.11.14,0-.18c-.08-1.2-.14-2.23-.18-2.94,0-.32,0-.59,0-.83a1.45,1.45,0,0,1,0-.28s0,.12,0,.32l.08.85c.07.72.17,1.71.26,2.87l-.12,0c.35-.46.73-1,1.13-1.47l0,0h.09l1.83-.08,0,.13c-.95-.72-1.75-1.35-2.34-1.81l-.69-.53A2.55,2.55,0,0,1,61.38,68Z"/><path class="cls-4" d="M49.73,85.57s1.23-1.37,2.81-3,2.88-2.92,2.91-2.89-1.23,1.37-2.81,3S49.76,85.59,49.73,85.57Z"/><path class="cls-4" d="M67.26,82.58a6.89,6.89,0,0,0-.14-.9,3.78,3.78,0,0,0-1.32-2,3.5,3.5,0,0,0-3.44-.53,3.57,3.57,0,0,0-1.66,1.31A3.75,3.75,0,0,0,60,82.58a3.81,3.81,0,0,0,.69,2.17,3.55,3.55,0,0,0,3.58,1.47,3.45,3.45,0,0,0,1.52-.7,3.74,3.74,0,0,0,1.32-2,6.89,6.89,0,0,0,.14-.9,3.19,3.19,0,0,1-.08.92,3.82,3.82,0,0,1-1.31,2.1,3.67,3.67,0,0,1-5.29-.77,3.9,3.9,0,0,1,0-4.49A3.73,3.73,0,0,1,62.32,79a3.61,3.61,0,0,1,3.55.58,3.78,3.78,0,0,1,1.31,2.1A3.12,3.12,0,0,1,67.26,82.58Z"/><path class="cls-4" d="M64,92.2l.09.07.26.22,1,.85,0,0,0,0L61.1,98.28l0,0h0l-.51.08-.92.14h-.1l0-.1c.11-.58.22-1.14.33-1.67v0h0c1.15-1.35,2.15-2.5,2.88-3.31A7.86,7.86,0,0,1,64,92.2s0,0-.09.08l-.23.25-.83,1c-.71.82-1.7,2-2.84,3.34v0l-.33,1.67-.08-.08.92-.14.51-.08,0,0,4.29-4.83v.06l-1-.88-.25-.24Z"/><path class="cls-4" d="M54.75,98.11v-.45l0-1.25c0-1.09,0-2.6,0-4.39l.06.06H48.83S49,92,48.9,92h0v3.2c0,1,0,2,0,2.87l-.06-.06,4.28,0,1.2,0H53.14l-4.31,0h-.06v-.06c0-.88,0-1.85,0-2.87V92h0l.07-.07h6V92c0,1.81,0,3.33,0,4.43V98A.36.36,0,0,1,54.75,98.11Z"/><path class="cls-4" d="M49.73,92a5.92,5.92,0,0,1-1.29.07A5.86,5.86,0,0,1,47.16,92,5.86,5.86,0,0,1,48.44,92,5.92,5.92,0,0,1,49.73,92Z"/><path class="cls-4" d="M48.83,93.19a14.95,14.95,0,0,1,0-2.89,14.95,14.95,0,0,1,0,2.89Z"/><rect class="cls-12" x="5.34" y="72.67" width="33.44" height="33.44"/><circle class="cls-1" cx="46.54" cy="119.26" r="6.27" transform="translate(-70.7 67.84) rotate(-45)"/><circle class="cls-2" cx="47.15" cy="116.75" r="5.48" transform="translate(-68.75 67.54) rotate(-45)"/><circle class="cls-6" cx="47.15" cy="116.75" r="5.28"/><path class="cls-4" d="M47.15,120.8a4,4,0,1,1,4.05-4A4.05,4.05,0,0,1,47.15,120.8Zm0-8.07a4,4,0,1,0,4,4A4,4,0,0,0,47.15,112.73Z"/><g class="cls-11"><path d="M47.58,113.06a2.62,2.62,0,1,0,2,2.81,2.25,2.25,0,0,0-.37-1.54,2.44,2.44,0,0,0-1.63-1.27"/></g><polygon class="cls-4" points="46.16 120.16 46.46 120.58 48.07 120.53 48.38 120.16 46.16 120.16"/><circle class="cls-4" cx="154.04" cy="120" r="3.35"/><path class="cls-5" d="M155.26,120a1.22,1.22,0,1,1-2.44,0,1.22,1.22,0,1,1,2.44,0Z"/><path class="cls-4" d="M31.52,110.83c0-.06.29-.11.64-.11s.65,0,.65.11-.29.11-.65.11S31.52,110.89,31.52,110.83Z"/><path class="cls-4" d="M28.93,110.83c0-.06.29-.11.64-.11s.65,0,.65.11-.29.11-.65.11S28.93,110.89,28.93,110.83Z"/><path class="cls-4" d="M26.34,110.83c0-.06.29-.11.64-.11s.65,0,.65.11-.29.11-.65.11S26.34,110.89,26.34,110.83Z"/><path class="cls-4" d="M23.74,110.83c0-.06.29-.11.65-.11s.65,0,.65.11-.29.11-.65.11S23.74,110.89,23.74,110.83Z"/><path class="cls-4" d="M21.15,110.83c0-.06.29-.11.65-.11s.65,0,.65.11-.29.11-.65.11S21.15,110.89,21.15,110.83Z"/><path class="cls-4" d="M18.56,110.83c0-.06.29-.11.65-.11s.65,0,.65.11-.29.11-.65.11S18.56,110.89,18.56,110.83Z"/><path class="cls-4" d="M16,110.83c0-.06.29-.11.65-.11s.65,0,.65.11-.29.11-.65.11S16,110.89,16,110.83Z"/><path class="cls-4" d="M13.38,110.83c0-.06.29-.11.65-.11s.65,0,.65.11-.29.11-.65.11S13.38,110.89,13.38,110.83Z"/><path class="cls-4" d="M10.79,110.83c0-.06.29-.11.65-.11s.65,0,.65.11-.29.11-.65.11S10.79,110.89,10.79,110.83Z"/><path class="cls-4" d="M8.2,110.83c0-.06.29-.11.65-.11s.64,0,.64.11-.29.11-.64.11S8.2,110.89,8.2,110.83Z"/><path class="cls-4" d="M5.61,110.83c0-.06.29-.11.65-.11s.64,0,.64.11-.29.11-.64.11S5.61,110.89,5.61,110.83Z"/><path class="cls-4" d="M3,110.83c0-.06.29-.11.65-.11s.64,0,.64.11-.29.11-.64.11S3,110.89,3,110.83Z"/><path class="cls-4" d="M1.17,110.08c.06,0,.11.29.11.65v.1l-.11-.11c.31,0,.55,0,.55.11s-.24.1-.55.11H1.06v-.21C1.06,110.37,1.11,110.08,1.17,110.08Z"/><path class="cls-4" d="M1.17,107.49c.06,0,.11.29.11.65s-.05.65-.11.65-.11-.29-.11-.65S1.11,107.49,1.17,107.49Z"/><path class="cls-4" d="M1.17,104.9c.06,0,.11.29.11.65s-.05.65-.11.65-.11-.29-.11-.65S1.11,104.9,1.17,104.9Z"/><path class="cls-4" d="M1.17,102.31c.06,0,.11.29.11.65s-.05.65-.11.65-.11-.29-.11-.65S1.11,102.31,1.17,102.31Z"/><path class="cls-4" d="M1.17,99.72c.06,0,.11.29.11.65s-.05.65-.11.65-.11-.29-.11-.65S1.11,99.72,1.17,99.72Z"/><path class="cls-4" d="M1.17,97.13c.06,0,.11.29.11.65s-.05.65-.11.65-.11-.29-.11-.65S1.11,97.13,1.17,97.13Z"/><path class="cls-4" d="M1.17,94.54c.06,0,.11.29.11.65s-.05.64-.11.64-.11-.29-.11-.64S1.11,94.54,1.17,94.54Z"/><path class="cls-4" d="M1.17,92c.06,0,.11.29.11.65s-.05.64-.11.64-.11-.29-.11-.64S1.11,92,1.17,92Z"/><path class="cls-4" d="M1.17,89.36c.06,0,.11.29.11.65s-.05.64-.11.64-.11-.29-.11-.64S1.11,89.36,1.17,89.36Z"/><path class="cls-4" d="M1.17,86.77c.06,0,.11.29.11.64s-.05.65-.11.65-.11-.29-.11-.65S1.11,86.77,1.17,86.77Z"/><path class="cls-4" d="M1.17,84.18c.06,0,.11.29.11.64s-.05.65-.11.65-.11-.29-.11-.65S1.11,84.18,1.17,84.18Z"/><path class="cls-4" d="M1.17,81.59c.06,0,.11.29.11.64s-.05.65-.11.65-.11-.29-.11-.65S1.11,81.59,1.17,81.59Z"/><path class="cls-4" d="M1.37,79.19s-.08.06-.2.08l.08-.08a2.9,2.9,0,0,1,0,.45c0,.36-.05.65-.11.65s-.11-.29-.11-.65a2.9,2.9,0,0,1,0-.45l0-.09h.06C1.29,79.13,1.37,79.16,1.37,79.19Z"/><path class="cls-4" d="M4,79.19c0,.06-.29.11-.65.11s-.65,0-.65-.11.29-.11.65-.11S4,79.13,4,79.19Z"/><path class="cls-4" d="M6.55,79.19c0,.06-.29.11-.65.11s-.65,0-.65-.11.29-.11.65-.11S6.55,79.13,6.55,79.19Z"/><path class="cls-4" d="M9.14,79.19c0,.06-.29.11-.65.11s-.65,0-.65-.11.29-.11.65-.11S9.14,79.13,9.14,79.19Z"/><path class="cls-4" d="M11.73,79.19c0,.06-.29.11-.65.11s-.65,0-.65-.11.29-.11.65-.11S11.73,79.13,11.73,79.19Z"/><path class="cls-4" d="M14.32,79.19c0,.06-.29.11-.65.11s-.65,0-.65-.11.29-.11.65-.11S14.32,79.13,14.32,79.19Z"/><path class="cls-4" d="M16.91,79.19c0,.06-.29.11-.65.11s-.64,0-.64-.11.29-.11.64-.11S16.91,79.13,16.91,79.19Z"/><path class="cls-4" d="M19.5,79.19c0,.06-.29.11-.65.11s-.64,0-.64-.11.29-.11.64-.11S19.5,79.13,19.5,79.19Z"/><path class="cls-4" d="M22.09,79.19c0,.06-.29.11-.65.11s-.64,0-.64-.11.29-.11.64-.11S22.09,79.13,22.09,79.19Z"/><path class="cls-4" d="M24.68,79.19c0,.06-.29.11-.64.11s-.65,0-.65-.11.29-.11.65-.11S24.68,79.13,24.68,79.19Z"/><path class="cls-4" d="M27.27,79.19c0,.06-.29.11-.64.11s-.65,0-.65-.11.29-.11.65-.11S27.27,79.13,27.27,79.19Z"/><path class="cls-4" d="M29.86,79.19c0,.06-.29.11-.64.11s-.65,0-.65-.11.29-.11.65-.11S29.86,79.13,29.86,79.19Z"/><path class="cls-4" d="M32.46,79.19c0,.06-.29.11-.65.11s-.65,0-.65-.11.29-.11.65-.11S32.46,79.13,32.46,79.19Z"/><path class="cls-4" d="M32.81,81.42c-.06,0-.11-.29-.11-.65s0-.64.11-.64.11.29.11.64S32.87,81.42,32.81,81.42Z"/><path class="cls-4" d="M32.81,84c-.06,0-.11-.29-.11-.64s0-.65.11-.65.11.29.11.65S32.87,84,32.81,84Z"/><path class="cls-4" d="M32.81,86.6c-.06,0-.11-.29-.11-.64s0-.65.11-.65.11.29.11.65S32.87,86.6,32.81,86.6Z"/><path class="cls-4" d="M32.81,89.19c-.06,0-.11-.29-.11-.64s0-.65.11-.65.11.29.11.65S32.87,89.19,32.81,89.19Z"/><path class="cls-4" d="M32.81,91.79c-.06,0-.11-.29-.11-.65s0-.65.11-.65.11.29.11.65S32.87,91.79,32.81,91.79Z"/><path class="cls-4" d="M32.81,94.38c-.06,0-.11-.29-.11-.65s0-.65.11-.65.11.29.11.65S32.87,94.38,32.81,94.38Z"/><path class="cls-4" d="M32.81,97c-.06,0-.11-.29-.11-.65s0-.65.11-.65.11.29.11.65S32.87,97,32.81,97Z"/><path class="cls-4" d="M32.81,99.56c-.06,0-.11-.29-.11-.65s0-.65.11-.65.11.29.11.65S32.87,99.56,32.81,99.56Z"/><path class="cls-4" d="M32.81,102.15c-.06,0-.11-.29-.11-.65s0-.65.11-.65.11.29.11.65S32.87,102.15,32.81,102.15Z"/><path class="cls-4" d="M32.81,104.74c-.06,0-.11-.29-.11-.65s0-.65.11-.65.11.29.11.65S32.87,104.74,32.81,104.74Z"/><path class="cls-4" d="M32.81,107.33c-.06,0-.11-.29-.11-.65s0-.64.11-.64.11.29.11.64S32.87,107.33,32.81,107.33Z"/><path class="cls-4" d="M32.81,109.92c-.06,0-.11-.29-.11-.65s0-.64.11-.64.11.29.11.64S32.87,109.92,32.81,109.92Z"/><rect class="cls-4" x="31.64" y="109.34" width="2.34" height="2.34"/><rect class="cls-4" y="109.66" width="2.34" height="2.34"/><rect class="cls-4" x="31.64" y="77.79" width="2.34" height="2.34"/><rect class="cls-4" y="78.02" width="2.34" height="2.34"/></g></g></svg>