<svg xmlns="http://www.w3.org/2000/svg" viewBox="0 0 198.23 191.96"><defs><style>.cls-1{isolation:isolate;}.cls-2{fill:#3475b9;}.cls-3{fill:#14b0bf;}.cls-4{fill:#4596a3;}.cls-5{fill:#7dc1d1;}.cls-6{fill:#184f78;}.cls-7{fill:#cceaf2;}.cls-8{fill:#dd4919;}.cls-9{fill:#fff;}.cls-10{fill:#95d8e9;}.cls-11{fill:#de3f18;}.cls-12{fill:#e3a327;}.cls-13{fill:#ffa001;}.cls-14{fill:#2eaeb7;}.cls-15{fill:#f5b285;}.cls-16{fill:#ffc19c;}.cls-17{fill:#ffdfcf;}.cls-18{fill:#d1783d;}</style></defs><g id="Layer_2" data-name="Layer 2"><g id="Layer_1-2" data-name="Layer 1"><g class="cls-1"><polygon class="cls-2" points="6.93 143.45 6.94 148.83 67 182.97 66.99 177.59 6.93 143.45"/><polygon class="cls-2" points="66.99 177.59 67 182.97 162.47 127.62 162.46 122.24 66.99 177.59"/><polygon class="cls-3" points="6.93 143.45 66.99 177.59 162.46 122.24 102.4 88.09 6.93 143.45"/></g><g class="cls-1"><polygon class="cls-4" points="109.01 102.63 109.02 104.42 116.33 108.67 116.32 106.88 109.01 102.63"/><polygon class="cls-4" points="116.32 106.88 116.33 108.67 124.47 103.97 124.46 102.18 116.32 106.88"/></g><g class="cls-1"><polygon class="cls-4" points="95.85 110.23 95.85 112.03 103.16 116.27 103.16 114.48 95.85 110.23"/><polygon class="cls-4" points="103.16 114.48 103.16 116.27 111.3 111.57 111.3 109.78 103.16 114.48"/></g><g class="cls-1"><polygon class="cls-4" points="82.67 117.85 82.67 119.64 89.98 123.89 89.97 122.09 82.67 117.85"/><polygon class="cls-4" points="89.97 122.09 89.98 123.89 98.12 119.18 98.12 117.39 89.97 122.09"/></g><g class="cls-1"><polygon class="cls-4" points="69.5 125.44 69.5 127.24 76.81 131.49 76.81 129.69 69.5 125.44"/><polygon class="cls-4" points="76.81 129.69 76.81 131.49 84.95 126.79 84.95 124.99 76.81 129.69"/></g><g class="cls-1"><polygon class="cls-4" points="56.31 133.06 56.32 134.85 63.63 139.1 63.62 137.31 56.31 133.06"/><polygon class="cls-4" points="63.62 137.31 63.63 139.1 71.78 134.38 71.78 132.6 63.62 137.31"/></g><g class="cls-1"><polygon class="cls-4" points="43.15 140.66 43.15 142.45 50.46 146.7 50.46 144.9 43.15 140.66"/><polygon class="cls-4" points="50.46 144.9 50.46 146.7 58.6 142 58.6 140.21 50.46 144.9"/></g><g class="cls-1"><polygon class="cls-4" points="29.98 148.26 29.98 150.06 37.29 154.3 37.29 152.51 29.98 148.26"/><polygon class="cls-4" points="37.29 152.51 37.29 154.3 45.44 149.6 45.43 147.81 37.29 152.51"/></g><g class="cls-1"><polygon class="cls-4" points="123.17 110.86 123.18 112.65 130.47 116.89 130.46 115.1 123.17 110.86"/><polygon class="cls-4" points="130.46 115.1 130.47 116.89 138.61 112.19 138.61 110.4 130.46 115.1"/></g><g class="cls-1"><polygon class="cls-4" points="137.77 119.34 137.78 121.14 145.09 125.38 145.08 123.59 137.77 119.34"/><polygon class="cls-4" points="145.08 123.59 145.09 125.38 153.23 120.68 153.22 118.89 145.08 123.59"/></g><g class="cls-1"><polygon class="cls-4" points="110 118.46 110.01 120.25 117.3 124.5 117.3 122.7 110 118.46"/><polygon class="cls-4" points="117.3 122.7 117.3 124.5 125.44 119.79 125.44 118 117.3 122.7"/></g><g class="cls-1"><polygon class="cls-4" points="96.82 126.07 96.83 127.86 104.12 132.1 104.11 130.31 96.82 126.07"/><polygon class="cls-4" points="104.11 130.31 104.12 132.1 112.26 127.4 112.26 125.61 104.11 130.31"/></g><g class="cls-1"><polygon class="cls-4" points="83.65 133.67 83.66 135.47 90.95 139.7 90.95 137.91 83.65 133.67"/><polygon class="cls-4" points="90.95 137.91 90.95 139.7 99.09 135 99.09 133.21 90.95 137.91"/></g><g class="cls-1"><polygon class="cls-4" points="70.47 141.28 70.47 143.08 77.77 147.31 77.77 145.52 70.47 141.28"/><polygon class="cls-4" points="77.77 145.52 77.77 147.31 85.93 142.61 85.92 140.81 77.77 145.52"/></g><g class="cls-1"><polygon class="cls-4" points="57.3 148.89 57.31 150.68 64.6 154.92 64.6 153.12 57.3 148.89"/><polygon class="cls-4" points="64.6 153.12 64.6 154.92 72.74 150.22 72.74 148.43 64.6 153.12"/></g><g class="cls-1"><polygon class="cls-4" points="44.14 156.49 44.14 158.28 51.44 162.52 51.43 160.73 44.14 156.49"/><polygon class="cls-4" points="51.43 160.73 51.44 162.52 59.58 157.82 59.57 156.02 51.43 160.73"/></g><g class="cls-1"><polygon class="cls-4" points="71.84 157.41 71.84 159.21 79.15 163.45 79.14 161.66 71.84 157.41"/><polygon class="cls-4" points="79.14 161.66 79.15 163.45 140.06 128.28 140.06 126.5 79.14 161.66"/></g><g class="cls-1"><polygon class="cls-4" points="58.74 164.97 58.74 166.77 66.05 171.01 66.05 169.23 58.74 164.97"/><polygon class="cls-4" points="66.05 169.23 66.05 171.01 74.19 166.31 74.19 164.52 66.05 169.23"/></g><polygon class="cls-5" points="109.01 102.63 116.32 106.88 124.46 102.18 117.16 97.93 109.01 102.63"/><polygon class="cls-5" points="95.85 110.23 103.16 114.48 111.3 109.78 103.99 105.53 95.85 110.23"/><polygon class="cls-5" points="82.67 117.85 89.97 122.09 98.12 117.39 90.81 113.14 82.67 117.85"/><polygon class="cls-5" points="69.5 125.44 76.81 129.69 84.95 124.99 77.64 120.74 69.5 125.44"/><polygon class="cls-5" points="56.31 133.06 63.62 137.31 71.78 132.6 64.47 128.35 56.31 133.06"/><polygon class="cls-5" points="43.15 140.66 50.46 144.9 58.6 140.21 51.29 135.96 43.15 140.66"/><polygon class="cls-5" points="29.98 148.26 37.29 152.51 45.43 147.81 38.12 143.56 29.98 148.26"/><g class="cls-1"><polygon class="cls-4" points="95.97 94.57 95.98 96.36 103.28 100.61 103.28 98.82 95.97 94.57"/><polygon class="cls-4" points="103.28 98.82 103.28 100.61 111.43 95.91 111.42 94.12 103.28 98.82"/></g><g class="cls-1"><polygon class="cls-4" points="82.81 102.17 82.81 103.96 90.12 108.21 90.12 106.42 82.81 102.17"/><polygon class="cls-4" points="90.12 106.42 90.12 108.21 98.26 103.51 98.25 101.72 90.12 106.42"/></g><g class="cls-1"><polygon class="cls-4" points="69.62 109.78 69.63 111.58 76.94 115.82 76.93 114.03 69.62 109.78"/><polygon class="cls-4" points="76.93 114.03 76.94 115.82 85.08 111.12 85.08 109.33 76.93 114.03"/></g><g class="cls-1"><polygon class="cls-4" points="56.45 117.38 56.46 119.18 63.77 123.42 63.76 121.63 56.45 117.38"/><polygon class="cls-4" points="63.76 121.63 63.77 123.42 71.91 118.72 71.91 116.93 63.76 121.63"/></g><g class="cls-1"><polygon class="cls-4" points="43.27 125 43.28 126.79 50.59 131.03 50.58 129.24 43.27 125"/><polygon class="cls-4" points="50.58 129.24 50.59 131.03 58.74 126.32 58.74 124.53 50.58 129.24"/></g><g class="cls-1"><polygon class="cls-4" points="30.11 132.6 30.11 134.39 37.42 138.64 37.41 136.84 30.11 132.6"/><polygon class="cls-4" points="37.41 136.84 37.42 138.64 45.56 133.94 45.56 132.15 37.41 136.84"/></g><g class="cls-1"><polygon class="cls-4" points="16.94 140.2 16.94 142 24.25 146.24 24.25 144.45 16.94 140.2"/><polygon class="cls-4" points="24.25 144.45 24.25 146.24 32.39 141.54 32.39 139.75 24.25 144.45"/></g><polygon class="cls-5" points="95.97 94.57 103.28 98.82 111.42 94.12 104.11 89.87 95.97 94.57"/><polygon class="cls-5" points="82.81 102.17 90.12 106.42 98.25 101.72 90.95 97.47 82.81 102.17"/><polygon class="cls-5" points="69.62 109.78 76.93 114.03 85.08 109.33 77.77 105.08 69.62 109.78"/><polygon class="cls-5" points="56.45 117.38 63.76 121.63 71.91 116.93 64.6 112.68 56.45 117.38"/><polygon class="cls-5" points="43.27 125 50.58 129.24 58.74 124.53 51.43 120.29 43.27 125"/><polygon class="cls-5" points="30.11 132.6 37.41 136.84 45.56 132.15 38.25 127.9 30.11 132.6"/><polygon class="cls-5" points="16.94 140.2 24.25 144.45 32.39 139.75 25.08 135.5 16.94 140.2"/><polygon class="cls-5" points="123.17 110.86 130.46 115.1 138.61 110.4 131.31 106.16 123.17 110.86"/><polygon class="cls-5" points="137.77 119.34 145.08 123.59 153.22 118.89 145.92 114.64 137.77 119.34"/><polygon class="cls-5" points="110 118.46 117.3 122.7 125.44 118 118.15 113.76 110 118.46"/><polygon class="cls-5" points="96.82 126.07 104.11 130.31 112.26 125.61 104.96 121.37 96.82 126.07"/><polygon class="cls-5" points="83.65 133.67 90.95 137.91 99.09 133.21 91.8 128.97 83.65 133.67"/><polygon class="cls-5" points="70.47 141.28 77.77 145.52 85.92 140.81 78.63 136.57 70.47 141.28"/><polygon class="cls-5" points="57.3 148.89 64.6 153.12 72.74 148.43 65.45 144.18 57.3 148.89"/><polygon class="cls-5" points="44.14 156.49 51.43 160.73 59.57 156.02 52.28 151.79 44.14 156.49"/><polygon class="cls-5" points="71.84 157.41 79.14 161.66 140.06 126.5 132.75 122.25 71.84 157.41"/><polygon class="cls-5" points="58.74 164.97 66.05 169.23 74.19 164.52 66.88 160.28 58.74 164.97"/><g class="cls-1"><path class="cls-2" d="M97.76.27l5.92,3.43a2.8,2.8,0,0,0-2.8.28L95,.54A2.77,2.77,0,0,1,97.76.27Z"/><path class="cls-2" d="M7.28,142.68,4.92,141.3l-2.37-1.37-.29-.17-.89-.52a2.75,2.75,0,0,1-1.15-2.53l5.91,3.43A2.8,2.8,0,0,0,7.28,142.68Z"/><path class="cls-2" d="M5.92,63.36,0,59.92A8.66,8.66,0,0,1,3.93,53.1l5.92,3.44A8.62,8.62,0,0,0,5.92,63.36Z"/><polygon class="cls-2" points="6.13 140.14 0.22 136.71 0 59.92 5.92 63.36 6.13 140.14"/><polygon class="cls-2" points="9.85 56.54 3.93 53.1 94.96 0.54 100.88 3.98 9.85 56.54"/></g><polygon class="cls-6" points="100.13 9.69 100.34 85.01 10.84 136.69 10.62 61.37 100.13 9.69"/><path class="cls-3" d="M100.88,4c2.18-1.26,4-.25,4,2.27L105.05,83a8.69,8.69,0,0,1-3.93,6.81l-91,52.55c-2.19,1.26-3.95.25-4-2.26L5.92,63.36a8.62,8.62,0,0,1,3.93-6.82Zm-.54,81-.21-75.32L10.62,61.37l.22,75.32Z"/><polygon class="cls-6" points="79.22 87.78 79.23 92.86 66.29 100.34 66.28 95.25 79.22 87.78"/><polygon class="cls-7" points="66.28 95.25 66.29 100.34 79.23 92.86 79.27 107.45 66.33 114.92 66.28 95.25"/><polygon class="cls-7" points="79.19 66.9 79.24 86.57 52.75 101.86 52.7 82.2 79.19 66.9"/><polygon class="cls-8" points="37.65 111.78 37.66 116.86 24.72 124.34 24.71 119.25 37.65 111.78"/><polygon class="cls-7" points="24.71 119.25 24.72 124.34 37.66 116.86 37.7 131.45 24.76 138.92 24.71 119.25"/><polygon class="cls-2" points="51.51 103.77 51.52 108.86 38.58 116.33 38.56 111.25 51.51 103.77"/><polygon class="cls-7" points="38.56 111.25 38.58 116.33 51.52 108.86 51.56 123.45 38.62 130.92 38.56 111.25"/><polygon class="cls-6" points="65.36 95.78 65.37 100.86 52.43 108.34 52.42 103.25 65.36 95.78"/><polygon class="cls-7" points="52.42 103.25 52.43 108.34 65.37 100.86 65.41 115.45 52.47 122.92 52.42 103.25"/><path class="cls-2" d="M72.61,58.92c.49-.28.88-.05.88.5a1.94,1.94,0,0,1-.87,1.5c-.48.28-.87,0-.87-.5A1.92,1.92,0,0,1,72.61,58.92Z"/><path class="cls-2" d="M78.25,55.66c.49-.28.88,0,.88.5a1.94,1.94,0,0,1-.87,1.51c-.48.27-.87,0-.87-.51A2,2,0,0,1,78.25,55.66Z"/><path class="cls-6" d="M33.8,108c.14-.08.25,0,.25.15,0,.64-.66,1.33-1.37,1.83a5.91,5.91,0,0,1-.5.32c-.18.1-.35.19-.51.26a2.7,2.7,0,0,1-.7.23c-.6.09-.68-.26-.69-.47a.57.57,0,0,1,.26-.44.16.16,0,0,1,.26.15c0,.2.52.18,1.38-.32s1.37-1.07,1.37-1.27A.56.56,0,0,1,33.8,108Z"/><path class="cls-6" d="M31.67,110.54c.16-.07.33-.16.51-.26a5.91,5.91,0,0,0,.5-.32,1.19,1.19,0,0,1-.5.63C31.94,110.72,31.75,110.7,31.67,110.54Z"/><path class="cls-6" d="M33.8,106.83c.14-.08.25,0,.25.14,0,.8-1,1.66-1.87,2.16a4.36,4.36,0,0,1-1.21.49c-.6.09-.69-.25-.69-.47a.55.55,0,0,1,.26-.43c.14-.09.25,0,.26.13s.52.19,1.37-.3,1.38-1.08,1.37-1.28A.57.57,0,0,1,33.8,106.83Z"/><g class="cls-1"><path class="cls-6" d="M33.8,105.68c.14-.08.25,0,.25.15,0,.79-1,1.65-1.88,2.15a3.39,3.39,0,0,1-1.21.48c-.59.1-.68-.25-.68-.46a.56.56,0,0,1,.25-.44.16.16,0,0,1,.26.15c0,.2.52.18,1.38-.32s1.37-1.07,1.37-1.27A.57.57,0,0,1,33.8,105.68Z"/><polygon class="cls-8" points="32.62 100.52 33.05 102.59 33.13 102.27 33.81 101.78 33.85 102.18 33.41 102.49 32.99 104.31 32.57 102.33 32.4 103.12 31.9 104.45 31.45 103.12 31.32 103.93 30.46 104.13 30.56 103.66 31.04 103.54 31.38 101.5 31.99 103.33 32.06 103.15 32.62 100.52"/><path class="cls-7" d="M24.59,98.43l26.49-15.3.06,19.67-26.5,15.29Zm10,4.41a17.87,17.87,0,0,0,.61-3.31c0-1.94-1.38-2.73-3.07-1.76a6.73,6.73,0,0,0-3.05,5.29,8.94,8.94,0,0,0,.62,2.6,6.11,6.11,0,0,1,.34,1.17c0,.88,1.14.54,2.12,0s2.11-1.53,2.11-2.41A14.2,14.2,0,0,1,34.6,102.84ZM32.68,110c.71-.5,1.38-1.19,1.37-1.83,0-.16-.11-.23-.25-.15a.56.56,0,0,0-.25.44c0,.2-.52.78-1.37,1.27s-1.38.52-1.38.32a.16.16,0,0,0-.26-.15.57.57,0,0,0-.26.44c0,.21.09.56.69.47a2.7,2.7,0,0,0,.7-.23c.08.16.27.18.51,0A1.19,1.19,0,0,0,32.68,110Zm-.51-2c.87-.5,1.88-1.36,1.88-2.15,0-.16-.11-.23-.25-.15a.57.57,0,0,0-.26.44c0,.2-.52.78-1.37,1.27s-1.38.52-1.38.32a.16.16,0,0,0-.26-.15.56.56,0,0,0-.25.44c0,.21.09.56.68.46A3.39,3.39,0,0,0,32.17,108Zm0,1.15c.86-.5,1.87-1.36,1.87-2.16,0-.16-.11-.22-.25-.14a.57.57,0,0,0-.26.44c0,.2-.51.79-1.37,1.28s-1.37.51-1.37.3-.12-.22-.26-.13a.55.55,0,0,0-.26.43c0,.22.09.56.69.47A4.36,4.36,0,0,0,32.18,109.13Z"/><path class="cls-9" d="M32.14,97.77c1.69-1,3.07-.18,3.07,1.76a17.87,17.87,0,0,1-.61,3.31,14.2,14.2,0,0,0-.32,1.55c0,.88-1.14,1.85-2.11,2.41s-2.12.91-2.12,0a6.11,6.11,0,0,0-.34-1.17,8.94,8.94,0,0,1-.62-2.6A6.73,6.73,0,0,1,32.14,97.77Zm1.27,4.72.44-.31,0-.4-.68.49-.08.32-.44-2.07-.55,2.63-.07.18-.61-1.83-.34,2-.48.12-.1.47.86-.2.13-.81.45,1.33.5-1.33.17-.79.42,2Z"/><path class="cls-10" d="M22.75,86.14,81.08,52.46l.16,55.86L22.91,142Zm1.84,12.29.05,19.66,26.5-15.29-.06-19.67ZM79.24,86.57l0-19.67L52.69,82.2l.06,19.67Zm-13.87,14.3V95.78l-12.94,7.47,0,19.67,12.94-7.47Zm-13.85,8v-5.09l-12.95,7.48.06,19.67,12.94-7.47Zm27.71-16V87.78L66.28,95.25l0,19.67,12.94-7.47Zm-41.57,24v-5.08l-12.94,7.47.05,19.67,12.94-7.47ZM79.31,65.33V62.78L24.58,94.37v2.56ZM24.56,90.17v2.55L51.93,76.93V74.37ZM75.44,57.29a1.91,1.91,0,0,0-.87,1.5c0,.55.39.78.87.5a1.87,1.87,0,0,0,.86-1.5C76.3,57.24,75.91,57,75.44,57.29Zm2.81-1.63a2,2,0,0,0-.86,1.5c0,.55.39.78.87.51a1.94,1.94,0,0,0,.87-1.51C79.13,55.61,78.74,55.38,78.25,55.66Zm-5.64,3.26a1.92,1.92,0,0,0-.86,1.5c0,.55.39.78.87.5a1.94,1.94,0,0,0,.87-1.5C73.49,58.87,73.1,58.64,72.61,58.92Z"/><path class="cls-2" d="M75.44,57.29c.47-.28.86,0,.86.5a1.87,1.87,0,0,1-.86,1.5c-.48.28-.87.05-.87-.5A1.91,1.91,0,0,1,75.44,57.29Z"/><path class="cls-2" d="M24.58,94.37,79.3,62.78v2.55L24.58,96.93ZM78,65.53V64.14L66.16,71v1.38Z"/><polygon class="cls-8" points="51.92 74.38 51.93 76.93 24.57 92.72 24.57 90.17 51.92 74.38"/></g><polygon class="cls-9" points="78.03 64.14 78.04 65.53 66.17 72.38 66.16 71 78.03 64.14"/><path class="cls-3" d="M134.73,172.49l.21.14c.8.63.61,1.62-.42,2.49l-4.34-2.51A5.82,5.82,0,0,1,134.73,172.49Z"/><g class="cls-1"><path class="cls-9" d="M136.24,176.11l.2.12c.47.27.47.7,0,1a1.84,1.84,0,0,1-1.68,0l-.21-.12c-2.6,1.14-6,1.22-7.91.11a.52.52,0,0,1,0-1,1.83,1.83,0,0,1,1.66,0,5.81,5.81,0,0,0,4.55-.11l-4.49-2.6c-2.59,1.15-6,1.23-7.91.11s-1.81-3.07.15-4.59l-.2-.12a.51.51,0,0,1,0-1,1.84,1.84,0,0,1,1.68,0l.21.12c2.62-1.14,6-1.23,7.92-.11a.51.51,0,0,1,0,1,1.84,1.84,0,0,1-1.68,0A5.8,5.8,0,0,0,124,169l4.49,2.59c2.61-1.15,6-1.24,7.93-.11a3.05,3.05,0,0,1,.68.52C138.26,173.17,137.92,174.8,136.24,176.11Zm-14.1-3.47a5.74,5.74,0,0,0,4.52-.12L122.32,170c-1.1.94-1.25,2-.21,2.63Zm8,0,4.34,2.51c1-.87,1.22-1.86.42-2.49l-.21-.14A5.82,5.82,0,0,0,130.18,172.61Z"/><path class="cls-3" d="M136.48,167.89c5.25,3,5.91,7.59,1.46,10.17s-12.32,2.22-17.56-.82-5.92-7.59-1.48-10.17S131.21,164.85,136.48,167.89Zm-1.71,9.31a1.84,1.84,0,0,0,1.68,0c.46-.27.46-.7,0-1l-.2-.12c1.68-1.31,2-2.94.85-4.07a3.05,3.05,0,0,0-.68-.52c-1.95-1.13-5.32-1-7.93.11L124,169a5.8,5.8,0,0,1,4.54-.13,1.84,1.84,0,0,0,1.68,0,.51.51,0,0,0,0-1c-1.93-1.12-5.3-1-7.92.11l-.21-.12a1.84,1.84,0,0,0-1.68,0,.51.51,0,0,0,0,1l.2.12c-2,1.52-2.08,3.47-.15,4.59s5.32,1,7.91-.11l4.49,2.6a5.81,5.81,0,0,1-4.55.11,1.83,1.83,0,0,0-1.66,0,.52.52,0,0,0,0,1c1.93,1.11,5.31,1,7.91-.11Z"/><path class="cls-9" d="M152.94,163.82c-2.62,1.52-2.61,4,0,5.51l-15,8.73c4.45-2.58,3.79-7.14-1.46-10.17s-13.13-3.4-17.58-.82l15-8.73a10.46,10.46,0,0,0,9.51,0Z"/><path class="cls-3" d="M138.78,153.17l23.09,13.33L118.06,192,95,178.63Zm-.84,24.89,15-8.73c-2.64-1.52-2.65-4,0-5.51l-9.5-5.48a10.46,10.46,0,0,1-9.51,0L103.87,175.8c2.64,1.52,2.66,4,0,5.51l9.5,5.49a10.48,10.48,0,0,1,9.52,0Z"/><path class="cls-3" d="M126.66,172.52a5.74,5.74,0,0,1-4.52.12h0c-1-.6-.89-1.69.21-2.63Z"/><path class="cls-9" d="M120.35,177.22c5.27,3.06,13.15,3.43,17.59.84l-15,8.74a10.48,10.48,0,0,0-9.52,0l-9.5-5.49c2.63-1.52,2.61-4,0-5.51l15-8.73C114.46,169.65,115.1,174.19,120.35,177.22Z"/></g><path class="cls-11" d="M122.57,59.3c.72-.41,1.31,0,1.32,1a1.82,1.82,0,0,1-.14.56v-.53l-1.12.65v.94l-.82.48v1.28l.46-.27c-.4.6-.71,1-.72,1S119.2,64,119.2,63a3.11,3.11,0,0,1,1.3-2.49.77.77,0,0,1,1,.08A2.79,2.79,0,0,1,122.57,59.3Z"/><polygon class="cls-12" points="123.46 60.81 123.46 61.76 124.28 61.28 124.29 61.9 123.46 62.37 123.47 63.33 122.92 63.64 122.92 62.69 122.1 63.16 122.1 62.55 122.92 62.07 122.92 61.12 123.46 60.81"/><path class="cls-6" d="M125.35,58.54c.14.41,1,.32,1,.86s-.84,1.41-1,2,.33,1.19.06,1.77-1.14.85-1.52,1.37-.42,1.59-.86,2a.6.6,0,0,1-.13.09c-.41.24-.92-.11-1.36.14s-.94,1.19-1.35,1.42a.21.21,0,0,1-.12,0c-.45.1-.52-.9-.88-1s-1.24.65-1.52.38.2-1.42.06-1.84-1-.32-1-.86.83-1.42,1-2-.33-1.19-.07-1.77,1.14-.84,1.52-1.37.43-1.59.87-2a.47.47,0,0,1,.12-.09c.41-.24.93.11,1.36-.13s1-1.2,1.36-1.44a.31.31,0,0,1,.12-.05c.44-.08.51.91.87,1s1.25-.66,1.52-.39S125.2,58.11,125.35,58.54ZM121.55,66a7.23,7.23,0,0,0,3.29-5.7c0-2.09-1.49-2.94-3.31-1.88a7.24,7.24,0,0,0-3.29,5.69C118.25,66.16,119.73,67,121.55,66Z"/><polygon class="cls-6" points="127.97 46.05 127.99 51.14 115.05 58.61 115.03 53.52 127.97 46.05"/><path class="cls-9" d="M121.53,58.38c1.82-1.06,3.3-.21,3.31,1.88a7.23,7.23,0,0,1-3.29,5.7c-1.82,1.05-3.3.2-3.31-1.89A7.24,7.24,0,0,1,121.53,58.38Zm2.22,2.46a1.82,1.82,0,0,0,.14-.56c0-1-.6-1.39-1.32-1a2.79,2.79,0,0,0-1,1.28.77.77,0,0,0-1-.08A3.11,3.11,0,0,0,119.2,63c0,1,2.23,1.41,2.35,1.44s.32-.44.72-1l-.46.27V62.38l.82-.48V61l1.12-.65Zm.54,1.06v-.62l-.82.48v-.95l-.54.31v1l-.82.48v.61l.82-.47v1l.55-.31v-1Z"/><path class="cls-9" d="M115,58.61,128,51.14l0,14.58-12.94,7.47Zm10.32,2.78c.13-.58,1-1.45,1-2s-.84-.45-1-.86.33-1.57.05-1.84-1.14.48-1.52.39-.43-1.09-.87-1a.31.31,0,0,0-.12.05c-.41.24-.93,1.19-1.36,1.44s-1-.11-1.36.13a.47.47,0,0,0-.12.09c-.44.42-.51,1.49-.87,2s-1.24.78-1.52,1.37.21,1.18.07,1.77-1,1.44-1,2,.84.44,1,.86-.33,1.57-.06,1.84,1.14-.47,1.52-.38.43,1.09.88,1a.21.21,0,0,0,.12,0c.41-.23.93-1.18,1.35-1.42s1,.1,1.36-.14a.6.6,0,0,0,.13-.09c.44-.42.5-1.49.86-2s1.25-.78,1.52-1.37S125.21,62,125.36,61.39Z"/><polygon class="cls-8" points="114.12 54.05 114.14 59.13 101.19 66.61 101.17 61.52 114.12 54.05"/><polygon class="cls-9" points="126.79 22.42 126.79 23.8 114.92 30.65 114.92 29.27 126.79 22.42"/><path class="cls-12" d="M125.24,36.45a.53.53,0,0,1,.29-.09.32.32,0,0,1,.22.06.49.49,0,0,1,.16.36,1.43,1.43,0,0,1-.3.87,1.48,1.48,0,0,1-.25.25l-.07.06-2.85,1.77,0,0c-.36.2-.65.05-.68-.34a1.47,1.47,0,0,1,.63-1.18l2.84-1.77Z"/><path class="cls-13" d="M121.2,36.41c.18,0,.36-.11.55-.17l.22-.09a2.32,2.32,0,0,0-.52,1.11V37A1.22,1.22,0,0,0,121.2,36.41Z"/><path class="cls-12" d="M125.16,34.21c.3-.17.57-.07.61.26a1.16,1.16,0,0,1-.18.72,1.25,1.25,0,0,1-.34.41l-2.66,2-.09.06c-.31.18-.58.07-.63-.26a1.38,1.38,0,0,1,.53-1.12l2.66-2,.07-.05Z"/><path class="cls-12" d="M122.2,42.37h0l2.34-1a.42.42,0,0,1,.23-.05.26.26,0,0,1,.19.09.55.55,0,0,1,.09.34,1.23,1.23,0,0,1-.36.75l-.18.14,0,0,0,0-2.32,1c-.29.15-.52,0-.5-.38a1.24,1.24,0,0,1,.54-.9Z"/><path class="cls-12" d="M122.38,40.28l2.77-1.38.08,0a.54.54,0,0,1,.21,0,.68.68,0,0,1,.2.07.54.54,0,0,1,.15.41,1.52,1.52,0,0,1-.36.86,1.27,1.27,0,0,1-.25.22l0,0v0l-.19.09-2.59,1.29h0l-.1,0a.4.4,0,0,1-.34,0,.48.48,0,0,1-.18-.44A1.45,1.45,0,0,1,122.38,40.28Z"/><path class="cls-12" d="M119.5,31.66c.1-.06.26.07.36.15l.1.06.11.11.09.14a3.18,3.18,0,0,1,.48,1.28,5.7,5.7,0,0,1-.14,1.11c0,.18-.07.36-.09.55a2.17,2.17,0,0,0,0,1.27,1.16,1.16,0,0,1,.09.14,2.53,2.53,0,0,1,.48.83c0,2.66-1.36,5.47-3.19,6.52a2.63,2.63,0,0,1-.79.32V39.25a4.9,4.9,0,0,0,.39-.57,19.49,19.49,0,0,0,1.7-4.11,3.51,3.51,0,0,0,0-1.21,3.56,3.56,0,0,1,0-1.24,1.35,1.35,0,0,1,.24-.33Z"/><path class="cls-13" d="M121.43,37.66v0a.63.63,0,0,0,.37.55,2.31,2.31,0,0,0-.52,1.46.68.68,0,0,0,.45.68,2.32,2.32,0,0,0-.45,1.24.82.82,0,0,0,.31.73l0,0a2.12,2.12,0,0,0-.44,1.12c0,.65.37,1,.9.69l1.18-.49c-.41.29-.89.6-1.43.91a22.46,22.46,0,0,1-4.54,2,1.23,1.23,0,0,0-.26.11V44.68a3.84,3.84,0,0,0,.79-.34C119.76,43.22,121.24,40.42,121.43,37.66Z"/><polygon class="cls-11" points="116.61 39.37 116.63 47.07 114.11 48.53 114.08 40.83 116.61 39.37"/><g class="cls-1"><polygon class="cls-9" points="101.17 61.52 101.19 66.61 114.14 59.13 114.18 73.72 101.23 81.2 101.17 61.52"/><path class="cls-2" d="M101.45,40.47l26.49-15.29L128,44.84l-26.49,15.3Zm20.39,4.14c.54-.31,1-.62,1.43-.91l-1.18.49c-.53.27-1,0-.9-.69a2.12,2.12,0,0,1,.44-1.12l0,0a.82.82,0,0,1-.31-.73,2.32,2.32,0,0,1,.45-1.24.68.68,0,0,1-.45-.68,2.31,2.31,0,0,1,.52-1.46.63.63,0,0,1-.37-.55v0c-.19,2.76-1.67,5.56-3.61,6.68a3.84,3.84,0,0,1-.79.34v2.09a1.23,1.23,0,0,1,.26-.11A22.46,22.46,0,0,0,121.84,44.61ZM117,39.25v4.89a2.63,2.63,0,0,0,.79-.32c1.83-1,3.19-3.86,3.19-6.52a2.53,2.53,0,0,0-.48-.83,1.16,1.16,0,0,0-.09-.14,2.17,2.17,0,0,1,0-1.27c0-.19.06-.37.09-.55a5.7,5.7,0,0,0,.14-1.11,3.18,3.18,0,0,0-.48-1.28l-.09-.14-.11-.11-.1-.06c-.1-.08-.26-.21-.36-.15l-.12.13a1.35,1.35,0,0,0-.24.33,3.56,3.56,0,0,0,0,1.24,3.51,3.51,0,0,1,0,1.21,19.49,19.49,0,0,1-1.7,4.11A4.9,4.9,0,0,1,117,39.25Zm-.39,7.82,0-7.7-2.53,1.46,0,7.7Zm8.8-6.91a1.52,1.52,0,0,0,.36-.86.54.54,0,0,0-.15-.41.68.68,0,0,0-.2-.07.54.54,0,0,0-.21,0l-.08,0-2.77,1.38a1.45,1.45,0,0,0-.65,1.1.48.48,0,0,0,.18.44.41.41,0,0,0,.33,0l.11-.05h0L125,40.49l.19-.09v0l0,0A1.27,1.27,0,0,0,125.43,40.16Zm-3-3.91a1.38,1.38,0,0,0-.53,1.12c0,.33.32.44.63.26l.09-.06,2.66-2a1.25,1.25,0,0,0,.34-.41,1.16,1.16,0,0,0,.18-.72c0-.33-.31-.43-.61-.26l0,0-.07.05Zm3.21,1.4a1.43,1.43,0,0,0,.3-.87.49.49,0,0,0-.16-.36.32.32,0,0,0-.22-.06.53.53,0,0,0-.29.09l0,0-2.84,1.77a1.47,1.47,0,0,0-.63,1.18c0,.39.32.54.68.34l0,0L125.29,38l.07-.06A1.48,1.48,0,0,0,125.61,37.65Zm-.54,4.11a.55.55,0,0,0-.09-.34.26.26,0,0,0-.19-.09.42.42,0,0,0-.23.05l-2.34,1h0a1.24,1.24,0,0,0-.54.9c0,.36.21.53.5.38l2.32-1,0,0,0,0,.18-.14A1.23,1.23,0,0,0,125.07,41.76Zm-3.32-5.52c-.19.06-.37.13-.55.17a1.22,1.22,0,0,1,.25.63v.22a2.32,2.32,0,0,1,.52-1.11Z"/></g><polygon class="cls-8" points="86.41 70.05 86.42 75.13 73.47 82.61 73.46 77.52 86.41 70.05"/><polygon class="cls-10" points="73.46 77.52 73.47 82.61 86.42 75.13 86.47 89.72 73.52 97.19 73.46 77.52"/><polygon class="cls-2" points="100.26 62.05 100.28 67.14 87.33 74.61 87.32 69.52 100.26 62.05"/><polygon class="cls-10" points="87.32 69.52 87.33 74.61 100.28 67.14 100.32 81.72 87.38 89.19 87.32 69.52"/><path class="cls-2" d="M121.38,17.19c.47-.28.86-.05.86.5a1.86,1.86,0,0,1-.86,1.5c-.48.28-.87.06-.87-.5A1.89,1.89,0,0,1,121.38,17.19Z"/><path class="cls-2" d="M124.19,15.56c.48-.27.87,0,.87.5a1.94,1.94,0,0,1-.86,1.51c-.49.28-.88.05-.88-.5A1.94,1.94,0,0,1,124.19,15.56Z"/><path class="cls-2" d="M127,13.94c.48-.28.87,0,.87.49a1.9,1.9,0,0,1-.87,1.51c-.47.28-.86.05-.86-.5A1.87,1.87,0,0,1,127,13.94Z"/><g class="cls-1"><polygon class="cls-10" points="99.84 41.41 99.89 61.07 73.4 76.37 73.34 56.7 99.84 41.41"/><path class="cls-7" d="M71.5,44.41l58.33-33.67L130,66.6,71.66,100.28ZM73.34,56.7l.06,19.67,26.49-15.3,0-19.66ZM128,44.84l-.06-19.66L101.45,40.47l.06,19.67ZM86.43,75.13l0-5.09-13,7.48.06,19.67,13-7.47Zm27.71-16,0-5.08-13,7.47.06,19.68,13-7.48Zm13.85-8,0-5.09L115,53.52l.06,19.67L128,65.72Zm-27.71,16,0-5.09L87.32,69.52l.06,19.67,12.94-7.47Zm27.78-43.53V21.05L73.33,52.65V55.2ZM73.32,48.44V51l27.36-15.8V32.64Zm50.87-32.88a1.94,1.94,0,0,0-.87,1.51c0,.55.39.78.88.5a1.94,1.94,0,0,0,.86-1.51C125.06,15.52,124.67,15.29,124.19,15.56Zm-2.81,1.63a1.89,1.89,0,0,0-.87,1.5c0,.56.39.78.87.5a1.86,1.86,0,0,0,.86-1.5C122.24,17.14,121.85,16.91,121.38,17.19ZM127,13.94a1.87,1.87,0,0,0-.86,1.5c0,.55.39.78.86.5a1.9,1.9,0,0,0,.87-1.51C127.88,13.89,127.49,13.66,127,13.94Z"/><path class="cls-2" d="M73.33,52.65l54.73-31.6v2.56L73.34,55.2ZM126.79,23.8V22.42l-11.87,6.85v1.38Z"/><polygon class="cls-8" points="100.69 32.64 100.69 35.2 73.33 51 73.32 48.44 100.69 32.64"/></g><polygon class="cls-8" points="99.81 61.35 99.82 64.61 64.87 84.79 64.86 81.53 99.81 61.35"/><polygon class="cls-6" points="134.68 78.48 134.69 84.97 118.16 94.52 118.14 88.02 134.68 78.48"/><polygon class="cls-7" points="118.14 88.02 118.16 94.52 134.69 84.97 134.75 103.6 118.21 113.15 118.14 88.02"/><path class="cls-2" d="M126.24,41.6c.62-.35,1.12-.07,1.12.64a2.46,2.46,0,0,1-1.11,1.92c-.62.35-1.11.07-1.11-.64A2.47,2.47,0,0,1,126.24,41.6Z"/><path class="cls-2" d="M129.84,39.53c.62-.36,1.12-.08,1.12.63a2.44,2.44,0,0,1-1.11,1.92c-.61.35-1.11.07-1.11-.63A2.44,2.44,0,0,1,129.84,39.53Z"/><path class="cls-2" d="M133.44,37.45c.62-.36,1.12-.07,1.12.63A2.44,2.44,0,0,1,133.45,40c-.61.35-1.11.07-1.11-.63A2.44,2.44,0,0,1,133.44,37.45Z"/><polygon class="cls-2" points="77.05 92.86 77.06 93.65 75.62 94.48 75.35 94.64 73.84 95.5 73.84 94.71 75.34 93.84 75.62 93.69 77.05 92.86"/><polygon class="cls-2" points="91.86 91.59 91.86 92.3 90.79 92.92 90.79 92.21 91.86 91.59"/><polygon class="cls-8" points="91.37 122.12 92.84 122.97 92.36 123.24 91.34 122.65 91.34 123.84 90.99 124.04 90.99 122.85 89.97 124.63 89.49 124.9 90.95 122.36 91.37 122.12"/><g class="cls-1"><path class="cls-2" d="M93.65,117.62a5.36,5.36,0,0,1-.7,1.77Z"/><polygon class="cls-2" points="92.97 117.45 92.35 119.01 92.26 118.9 92.79 117.56 92.97 117.45"/><polygon class="cls-2" points="93.35 117.23 92.57 119.21 92.47 119.11 93.17 117.33 93.35 117.23"/><polygon class="cls-2" points="92.59 117.67 92.15 118.79 92.04 118.69 92.41 117.78 92.59 117.67"/><polygon class="cls-2" points="92.21 117.89 91.93 118.58 91.84 118.48 92.03 118 92.21 117.89"/><path class="cls-8" d="M91.45,115.25c1.24-.71,2.27-.14,2.28,1.28v0l-.07.11-2.2,1.27-.07,0v-2.53Z"/><path class="cls-2" d="M94.74,112.85v-.41l-7.2,4.15V117l0,7.19L94.77,120Zm-6.86,10.86,0-6.89v-.33l6.57-3.79V113l0,6.88Z"/><polygon class="cls-2" points="92.68 119.33 92.78 119.43 93.71 117.08 93.71 117.02 93.55 117.12 92.68 119.33"/><polygon class="cls-10" points="91.47 113.46 91.47 113.79 90.8 114.18 90.8 113.85 91.47 113.46"/><polygon class="cls-2" points="87.86 116.82 87.86 116.5 94.43 112.7 94.43 113.03 87.86 116.82"/><polygon class="cls-2" points="87.27 116.34 95.01 111.87 95.01 112.7 94.75 112.85 94.74 112.44 87.54 116.59 87.54 117.01 87.27 117.16 87.27 116.34"/></g><polygon class="cls-2" points="91.83 118.11 91.73 118.36 91.62 118.26 91.64 118.22 91.83 118.11"/><path class="cls-10" d="M91.12,115.44v3l1.56,1.51a5,5,0,0,1-1.56,1.49c-1.43.83-2.6.17-2.61-1.49A5.73,5.73,0,0,1,91.12,115.44Z"/><path class="cls-9" d="M87.86,116.82,94.43,113l0,6.88-6.57,3.8Zm3.27,4.61a5,5,0,0,0,1.56-1.49l-1.56-1.51v-3a5.73,5.73,0,0,0-2.6,4.5C88.53,121.6,89.7,122.26,91.13,121.43Zm2.6-4.87v0c0-1.42-1-2-2.28-1.28l-.07.13v2.53l.07,0,2.19-1.26Zm0,.52V117l-.16.1-.87,2.2.1.11Zm-.54.26-.7,1.77.1.1.78-2Zm-.22,2a5.36,5.36,0,0,0,.7-1.77Zm-.6-.38.62-1.56-.18.11-.53,1.34Zm-.2-.22.44-1.12-.18.11-.37.91Zm-.22-.21.28-.69L92,118l-.19.48Zm-.31-.32.11.1.1-.25-.18.11Z"/><g class="cls-1"><path class="cls-6" d="M77.14,127.15l.45-.26a9.52,9.52,0,0,1-4,7v-.52A8.58,8.58,0,0,0,77.14,127.15Z"/><path class="cls-7" d="M73.54,132.51a6.9,6.9,0,0,0,2.85-4.93l.75-.43a8.58,8.58,0,0,1-3.59,6.22Z"/><path class="cls-9" d="M75.94,127.84l.45-.26a6.9,6.9,0,0,1-2.85,4.93V132A5.9,5.9,0,0,0,75.94,127.84Z"/><path class="cls-7" d="M82.76,115l16.53-9.55,0,18.63-16.53,9.55ZM95,112.7v-.83l-7.74,4.47v.82l.27-.15,0,7.19L94.77,120l0-7.19Zm-2.65,10.54.48-.27-1.47-.85-.42.24-1.46,2.54.48-.27,1-1.78V124l.35-.2v-1.19Zm-1.56-9.39v.33l.67-.39v-.33Z"/><path class="cls-7" d="M75.94,127.84a5.9,5.9,0,0,1-2.4,4.14v-1.26a3.52,3.52,0,0,0,1.3-2.24Z"/><path class="cls-9" d="M73.08,131l.23-.11.23-.15v3.68a.45.45,0,0,1-.23.39c-.11.07-.22,0-.22-.13V131Z"/><path class="cls-7" d="M74.84,128a1.05,1.05,0,0,0-.28-.61l.78-1.35a1.85,1.85,0,0,1,.6,1.32Z"/><path class="cls-9" d="M75.94,127.32a1.85,1.85,0,0,0-.6-1.32l.32-.55a2.12,2.12,0,0,1,.73,1.61Z"/><path class="cls-7" d="M75.66,125.45l.52-.91a2.63,2.63,0,0,1,.95,2.09l-.74.43A2.12,2.12,0,0,0,75.66,125.45Z"/><path class="cls-6" d="M77.13,126.63a2.63,2.63,0,0,0-.95-2.09l.28-.48.1,0a3,3,0,0,1,1,2.35Z"/><polygon class="cls-8" points="77.61 122.06 78.26 121.82 77.11 123.81 76.56 124.03 76.46 124.06 77.58 122.13 77.61 122.06"/><path class="cls-9" d="M77.58,121.81c.07,0,.07.18,0,.32l-1.12,1.93-.28.48-.52.91-.32.55-.78,1.35-1.13,2a.53.53,0,0,1-.15.15.12.12,0,0,1-.13,0c-.08,0-.08-.18,0-.32l1.14-2,.78-1.34.32-.55.52-.91.32-.56L77.3,122a.41.41,0,0,1,.14-.15A.12.12,0,0,1,77.58,121.81Zm-.28.57.09-.24-.17.2-3.8,6.57-.08.24.17-.2Z"/><path class="cls-8" d="M73.3,127.33l.23-.11a1,1,0,0,1,.76,0l-1.14,2c-.08.14-.08.28,0,.32a.12.12,0,0,0,.13,0,.53.53,0,0,0,.15-.15l1.13-2a1.05,1.05,0,0,1,.28.61,2.09,2.09,0,0,1,0,.26,2.35,2.35,0,0,1,0,.26,3.52,3.52,0,0,1-1.3,2.24l-.23.15-.23.11a.87.87,0,0,1-1.3-.74,1.93,1.93,0,0,1,0-.24,2.53,2.53,0,0,1,0-.28,3.55,3.55,0,0,1,1.29-2.24A1.5,1.5,0,0,1,73.3,127.33Z"/><path class="cls-7" d="M75.07,125.83l-.78,1.34a1,1,0,0,0-.76,0V126A1.82,1.82,0,0,1,75.07,125.83Z"/><path class="cls-9" d="M70.69,130.87a1.53,1.53,0,0,0,2.4,1.37v.53c-1.52.75-2.75.06-2.86-1.63Z"/><path class="cls-7" d="M75.91,124.37l-.52.91a2.14,2.14,0,0,0-1.87.15v-.85A2.66,2.66,0,0,1,75.91,124.37Z"/><path class="cls-7" d="M70.69,130.35a5.88,5.88,0,0,1,2.38-4.13v1.26a3.55,3.55,0,0,0-1.29,2.24Z"/><path class="cls-6" d="M76.18,123.9l-.27.47a2.66,2.66,0,0,0-2.39.21v-.53a3,3,0,0,1,2.64-.27Z"/><path class="cls-7" d="M71.78,130.24a.87.87,0,0,0,1.3.74v1.26a1.53,1.53,0,0,1-2.4-1.37Z"/><path class="cls-9" d="M70.23,130.62a6.94,6.94,0,0,1,2.84-4.93v.53a5.88,5.88,0,0,0-2.38,4.13Z"/><path class="cls-9" d="M70.69,130.35l1.09-.63a2.53,2.53,0,0,0,0,.28,1.93,1.93,0,0,0,0,.24l-1.09.63-.46.27-.74.42-.46.27-.44.26c-.13.07-.23,0-.23-.13a.53.53,0,0,1,.22-.4l.45-.25.46-.27.74-.42Z"/><path class="cls-7" d="M69.49,131a8.53,8.53,0,0,1,3.58-6.2v.85a6.94,6.94,0,0,0-2.84,4.93Z"/><path class="cls-7" d="M81.59,115.63l-16.53,9.55,0,18.63,16.53-9.55Zm-3.55,11-.45.26a9.52,9.52,0,0,1-4,7v.51a.45.45,0,0,1-.23.39c-.11.07-.22,0-.22-.13v-.51c-2.18,1.13-3.94.13-4.06-2.32l-.44.26c-.13.07-.23,0-.23-.13a.53.53,0,0,1,.22-.4l.45-.25a9.57,9.57,0,0,1,4-7v-.51a.52.52,0,0,1,.23-.4c.13-.07.23,0,.23.13v.52a3,3,0,0,1,2.64-.27l-.09-.56,1.15-2,.11.67,0,.07a.41.41,0,0,1,.14-.15.12.12,0,0,1,.14,0c.07,0,.07.18,0,.32l0-.07.65-.24-1.15,2-.55.21a3,3,0,0,1,1,2.35l.45-.26c.13-.08.22,0,.22.14A.49.49,0,0,1,78,126.63Z"/><path class="cls-9" d="M78,126.11l-.45.26-.46.26-.74.43-.45.26-1.1.64a2.09,2.09,0,0,1,0,.26,2.35,2.35,0,0,1,0,.26l1.1-.64.45-.26.75-.43.45-.26.45-.26a.49.49,0,0,0,.22-.38C78.26,126.09,78.17,126,78,126.11Z"/><polygon class="cls-6" points="73.34 129.15 73.5 128.95 77.3 122.38 77.39 122.14 77.22 122.33 73.42 128.91 73.34 129.15"/><path class="cls-7" d="M70.23,131.14c.11,1.69,1.34,2.38,2.86,1.63v.86c-1.93,1-3.48.09-3.6-2.07Z"/><polygon class="cls-2" points="99.27 98.92 99.29 105.41 82.76 114.96 82.74 108.46 99.27 98.92"/><polygon class="cls-7" points="134.64 51.8 134.72 76.94 100.87 96.48 100.8 71.34 134.64 51.8"/><polygon class="cls-2" points="91.84 87.82 91.85 88.53 90.98 89.03 90.74 89.17 88.92 90.22 88.92 89.51 90.74 88.46 90.98 88.32 91.84 87.82"/><path class="cls-8" d="M91.25,94.71l2.26,1.59-4.9-.06-7,4.05c-.61.35-1.11.07-1.11-.63v-.73l4.84-2.79a2.53,2.53,0,0,0,.42-.33l1.32-.74.22-.13,2.82-1.62v-.71l-2.82,1.63-.23.13-.64.37a2.33,2.33,0,0,0,.13-.72v-.54l.14-.08.3-.17.25-.15v-.71l-.25.15-.3.17-.15.09V91.6l.12-.07.23-.14,1.32-.75v-.71l-1.31.76-.23.13-.12.07v-3.7l5.82-3.36c.61-.35,1.11-.07,1.11.63l0,7.69a2.44,2.44,0,0,1-1.1,1.92Zm-1-3.38.24-.14,1.34-.77v-.71l-1.34.77-.24.14L88,92v.71Zm-3-2,2.82-1.62V87l-2.82,1.63-.31.17-.24.14v.71l.25-.14Zm3.74-1-.24.14-1.82,1.05v.71l1.82-1L91,89l.87-.5v-.71Zm-.23-1.76v.71l1.09-.63v-.71Zm0,5.65v.71l1.07-.62v-.71Z"/><polygon class="cls-2" points="84.25 90.81 84.25 91.61 83.05 92.3 83.05 91.51 84.25 90.81"/><polygon class="cls-2" points="84.24 88.71 84.24 89.5 83.03 90.2 83.02 89.41 84.24 88.71"/><polygon class="cls-2" points="82.28 91.95 82.28 92.74 79.14 94.55 78.25 95.07 77.93 95.26 77.92 94.46 78.25 94.28 79.14 93.76 82.28 91.95"/><polygon class="cls-2" points="84.23 86.61 84.23 87.39 83.27 87.95 83 88.11 80.97 89.28 80.97 88.49 82.99 87.33 83.27 87.17 84.23 86.61"/><polygon class="cls-2" points="75.08 98.22 75.08 99.01 73.86 99.72 73.85 98.92 75.08 98.22"/><polygon class="cls-2" points="77.12 94.93 77.12 95.72 75.1 96.89 74.83 97.05 73.85 97.61 73.85 96.82 74.82 96.25 75.09 96.1 77.12 94.93"/><polygon class="cls-2" points="80.16 88.96 80.17 89.74 78.7 90.59 77.8 91.11 75.81 92.26 75.81 91.47 77.8 90.33 78.7 89.81 80.16 88.96"/><path class="cls-10" d="M84.79,84.45c.68-.39,1.23-.08,1.23.69l0,8.59a2.7,2.7,0,0,1-1.22,2.1l-7.33,4.23-5.39,6.31,2.47-4.63-1.27.74c-.68.39-1.23.09-1.23-.69l0-8.58a2.72,2.72,0,0,1,1.22-2.11Zm-2.54,5.41-3.14,1.81-.34.2-.91.52v.79l.91-.52.35-.2,3.13-1.81Zm-4,5.21.89-.52,3.14-1.81V92l-3.14,1.81-.89.52-.33.18v.8Zm6-1.36v-.79l-1.49.86-.28.16L79.9,95.43v.79l2.58-1.49.27-.15Zm-8.44-2.24v.79l2-1.15.9-.52,1.47-.85V89l-1.46.85-.91.52Zm-1,5.58.28-.16,2-1.17v-.79l-2,1.17-.27.15-1,.57v.79Zm4.28-.36V95.9l-.91.52-.35.2-2,1.15v.8l2-1.16.35-.2Zm5.14-9.3v-.78l-1,.56-.28.16-2,1.16v.79l2-1.17.27-.16Zm-10.4,7.32v.79l1.51-.86.27-.16,1.44-.83v-.79l-1.43.83-.28.15ZM75.08,99v-.79l-1.23.71v.79Zm9.16-9.51v-.79l-1.22.7v.79Zm0,2.11v-.8l-1.19.7v.79Zm-10.41,1v.79L75,92.71v-.79Z"/><polygon class="cls-2" points="84.25 92.92 84.25 93.71 82.76 94.58 82.49 94.73 79.91 96.22 79.9 95.43 82.48 93.94 82.75 93.78 84.25 92.92"/><path class="cls-7" d="M64.89,92.07,98.74,72.53l.07,25.14L65,117.21Zm7.22,14.3,5.39-6.31,7.33-4.23a2.7,2.7,0,0,0,1.22-2.1l0-8.59c0-.77-.55-1.08-1.23-.69L73.27,91.1a2.72,2.72,0,0,0-1.22,2.11l0,8.58c0,.78.55,1.08,1.23.69l1.27-.74Zm16.5-10.13,4.9.06-2.26-1.59,1.12-.64a2.44,2.44,0,0,0,1.1-1.92l0-7.69c0-.7-.5-1-1.11-.63l-5.82,3.36,0,6.83a2.33,2.33,0,0,1-.13.72,2.91,2.91,0,0,1-.67,1.06,2.16,2.16,0,0,1-.42.34l-4.84,2.79v.73c0,.7.5,1,1.11.63Z"/><path class="cls-2" d="M90.1,92.61l-2.82,1.63-.23.13-.65.37a2.88,2.88,0,0,1-.66,1.07v0l1.32-.77.22-.13,2.82-1.62Z"/><polygon class="cls-2" points="86.98 93.22 87.23 93.08 87.23 92.37 86.98 92.52 86.68 92.69 86.53 92.78 86.53 93.19 86.54 93.48 86.68 93.4 86.98 93.22"/><polygon class="cls-8" points="81.57 109.14 81.59 115.63 65.06 125.18 65.04 118.68 81.57 109.14"/><path class="cls-2" d="M64.87,86.9l69.91-40.36V49.8L64.88,90.16Zm68.29-36.85V48.29L118,57V58.8Z"/><path class="cls-9" d="M137.05,33.35l-74.52,43,.2,71.37,74.52-43Zm-3.61,4.1c.62-.36,1.12-.07,1.12.63A2.44,2.44,0,0,1,133.45,40c-.61.35-1.11.07-1.11-.63A2.44,2.44,0,0,1,133.44,37.45Zm-3.6,2.08c.62-.36,1.12-.08,1.12.63a2.44,2.44,0,0,1-1.11,1.92c-.61.35-1.11.07-1.11-.63A2.44,2.44,0,0,1,129.84,39.53Zm-3.6,2.07c.62-.35,1.12-.07,1.12.64a2.46,2.46,0,0,1-1.11,1.92c-.62.35-1.11.07-1.11-.64A2.47,2.47,0,0,1,126.24,41.6ZM64.86,81.53l35-20.18V64.6L64.87,84.79Zm0,10.54L98.74,72.53l.07,25.14L65,117.21Zm.22,51.74L65,118.68l16.53-9.54,0,6.49,0,18.63Zm17.7-10.22-.07-25.13,16.53-9.54,0,6.49,0,18.63Zm17.7-10.22-.07-25.13L117,88.7l0,6.49.06,18.63Zm.29-52L134.64,51.8l.08,25.13L100.87,96.48Zm17.41,41.81L118.14,88l16.54-9.54V85l.06,18.63Zm-53.33-23V86.9l69.91-40.36V49.8Z"/><polygon class="cls-7" points="100.44 98.24 100.46 104.74 116.99 95.19 117.05 113.82 100.51 123.37 100.44 98.24"/><polygon class="cls-10" points="116.97 88.7 116.99 95.19 100.46 104.74 100.44 98.24 116.97 88.7"/><polygon class="cls-9" points="133.16 48.29 133.16 50.05 118 58.8 117.99 57.04 133.16 48.29"/><polygon class="cls-8" points="77.22 121.23 77.33 121.91 76.23 123.81 76.18 123.9 76.16 123.78 76.07 123.22 77.22 121.23"/><path class="cls-9" d="M75.39,125.28l-.32.55a1.82,1.82,0,0,0-1.54.12v-.52A2.14,2.14,0,0,1,75.39,125.28Z"/><path class="cls-6" d="M69.49,131.56c.12,2.16,1.67,3.05,3.6,2.07v.52c-2.18,1.13-3.94.13-4.06-2.32Z"/><path class="cls-9" d="M73.29,123.4c.13-.07.23,0,.23.13v3.69l-.23.11a1.5,1.5,0,0,0-.23.15V123.8A.52.52,0,0,1,73.29,123.4Z"/><path class="cls-6" d="M69,131.31a9.57,9.57,0,0,1,4-7v.53a8.53,8.53,0,0,0-3.58,6.2Z"/><polygon class="cls-2" points="91.85 89.71 91.85 90.42 90.51 91.19 90.27 91.33 87.95 92.67 87.95 91.96 90.27 90.62 90.51 90.48 91.85 89.71"/><polygon class="cls-2" points="91.84 85.93 91.84 86.64 90.75 87.27 90.75 86.56 91.84 85.93"/><polygon class="cls-2" points="79.1 95.9 79.1 96.69 78.19 97.22 77.84 97.41 75.85 98.57 75.85 97.77 77.84 96.62 78.19 96.42 79.1 95.9"/><polygon class="cls-2" points="82.25 89.86 82.25 90.65 79.12 92.46 78.77 92.66 77.86 93.18 77.86 92.39 78.77 91.87 79.11 91.67 82.25 89.86"/></g><polygon class="cls-2" points="75.03 91.92 75.03 92.71 73.84 93.4 73.83 92.61 75.03 91.92"/><polygon class="cls-2" points="88.19 89.93 88.19 90.64 86.88 91.39 86.65 91.53 86.53 91.6 86.53 90.89 86.65 90.82 86.88 90.69 88.19 89.93"/><polygon class="cls-2" points="90.06 86.96 90.06 87.67 87.24 89.3 86.94 89.47 86.69 89.61 86.69 88.9 86.94 88.76 87.24 88.59 90.06 86.96"/><g class="cls-1"><path class="cls-14" d="M123.2,66q5.37,3.11,10.72,6.23a6,6,0,0,1,.56,2.66A14.22,14.22,0,0,1,128,86l-10.73-6.23a14.17,14.17,0,0,0,6.44-11.14A6,6,0,0,0,123.2,66Z"/><path class="cls-6" d="M116.86,77.42a1.91,1.91,0,0,0,.14-.21l10.72,6.24-.13.2Z"/><polygon class="cls-6" points="127.72 83.45 117 77.22 122.08 68.42 132.8 74.66 127.72 83.45"/><path class="cls-6" d="M119,78.66l8.6,5a2,2,0,0,1-.62.59L116.25,78a2,2,0,0,0,.61-.59Zm6.42,3.73-.37-.21-.38-.22-.39-.23-.4-.23-.4-.24-.42-.24-.41-.24-.42-.24-.42-.24-.41-.25-.42-.24-.4-.23-.4-.24-.39-.22-.38-.22-.37-.22.37.22.38.22.39.22.4.24.4.23.42.24.41.25.42.24.42.24.41.24.42.24.4.24.4.23.39.23.38.22Z"/><path class="cls-6" d="M120.2,80.31,127,84.24h0L116.25,78l1.9,1.11Z"/><path class="cls-9" d="M126.22,84.31,115.5,78.08a.77.77,0,0,0,.75-.07,2.16,2.16,0,0,0,.75-.8l10.72,6.24a2.21,2.21,0,0,1-.75.79A.74.74,0,0,1,126.22,84.31Z"/><path class="cls-6" d="M120.2,80.31,127,84.24a.74.74,0,0,1-.75.07L115.5,78.08a.77.77,0,0,0,.75-.07Z"/><polygon class="cls-6" points="122.5 82.19 111.78 75.96 115.5 78.08 126.22 84.31 122.5 82.19"/><path class="cls-9" d="M126.21,84.3l-10.72-6.23h0l10.72,6.23Z"/><path class="cls-6" d="M132.8,74.65l-10.72-6.23c.41-.71.4-1.48,0-1.73l10.73,6.23C133.21,73.17,133.21,73.94,132.8,74.65Z"/><path class="cls-9" d="M132,73l-10.72-6.24a.79.79,0,0,1,.75-.08l10.73,6.23A.79.79,0,0,0,132,73Z"/><path class="cls-2" d="M122.36,64.87l10.72,6.23a3.44,3.44,0,0,1,.84,1.12Q128.57,69.1,123.2,66A3.58,3.58,0,0,0,122.36,64.87Z"/><path class="cls-2" d="M122.36,64.87l-.07-.06L133,71l.07.06-6.2-3.6-2.26-1.32-.3-.17-.29-.17-.58-.34-.29-.16-.27-.17C122.73,65.08,122.51,65,122.36,64.87Z"/><path class="cls-9" d="M126.21,84.3l-10.72-6.23c-.41-.23-.41-1,0-1.71l10.73,6.23C125.81,83.31,125.8,84.07,126.21,84.3Z"/><polygon class="cls-9" points="126.22 82.59 115.5 76.36 116.24 75.07 126.96 81.3 126.22 82.59"/><path class="cls-9" d="M131.29,73.79l-10.72-6.23a2.29,2.29,0,0,1,.75-.79L132,73A2.17,2.17,0,0,0,131.29,73.79Z"/><path class="cls-9" d="M132,73a.79.79,0,0,1,.76-.09c.41.25.41,1,0,1.73l-5.08,8.8a2.21,2.21,0,0,1-.75.79.74.74,0,0,1-.75.07c-.42-.23-.42-1,0-1.72L127,81.3l4.33-7.51A2.17,2.17,0,0,1,132,73Z"/><polygon class="cls-9" points="126.96 81.3 116.24 75.07 120.57 67.56 131.29 73.79 126.96 81.3"/><path class="cls-2" d="M122.29,64.81,122,64.6l5.36,3.12,5.36,3.11L133,71l-5.36-3.11-1.4-.82-.69-.4-.69-.4-.67-.39-1.29-.75C122.72,65.06,122.47,64.93,122.29,64.81Z"/><path class="cls-2" d="M122,64.6l-.14-.09,10.72,6.24.14.08-5.36-3.11-.71-.41c-.41-.25-1-.57-1.39-.81l-.68-.4C123.73,65.6,122.85,65.12,122,64.6Z"/><path class="cls-14" d="M112.72,80.24c1.17.69,2.8.59,4.59-.45L128,86c-1.8,1-3.43,1.14-4.6.45Z"/><polygon class="cls-9" points="123.99 79.61 113.27 73.38 116.24 75.07 126.96 81.3 123.99 79.61"/><path class="cls-6" d="M111.77,76l10.72,6.23h0L111.78,76Z"/><path class="cls-6" d="M112.72,80.24a4.16,4.16,0,0,1-1.85-3.42l5.36,3.12,5.36,3.12a4.15,4.15,0,0,0,1.85,3.41Z"/><path class="cls-9" d="M123.24,79.69l-10.73-6.23a.76.76,0,0,1,.76-.08L124,79.61A.74.74,0,0,0,123.24,79.69Z"/><path class="cls-6" d="M110.87,76.82c0-.22,0-.46,0-.7l10.73,6.23c0,.25,0,.48,0,.71l-5.36-3.12Z"/><path class="cls-6" d="M110.83,76.12h0l10.73,6.23h0Z"/><path class="cls-2" d="M117.27,65c1.79-1,3.42-1.13,4.6-.45l10.72,6.24c-1.18-.69-2.81-.59-4.59.44Z"/><path class="cls-6" d="M110.83,76.11V76l10.73,6.23v.07Z"/><path class="cls-9" d="M122.49,82.18,111.77,76c-.41-.24-.41-1,0-1.71a2.24,2.24,0,0,1,.74-.78l10.73,6.23a2.15,2.15,0,0,0-.74.78C122.08,81.17,122.08,81.94,122.49,82.18Z"/><path class="cls-2" d="M111.25,73.23a14.39,14.39,0,0,1,6-8.27L128,71.19a14.36,14.36,0,0,0-6,8.27Z"/><path class="cls-6" d="M128,71.19c3.55-2,6.46-.4,6.48,3.69A14.22,14.22,0,0,1,128,86c-3.57,2.06-6.47.41-6.48-3.68A14.17,14.17,0,0,1,128,71.19Zm-.28,12.26,5.08-8.8c.41-.71.41-1.48,0-1.73A.79.79,0,0,0,132,73a2.17,2.17,0,0,0-.75.78L127,81.3l-3-1.69a.74.74,0,0,0-.75.08,2.15,2.15,0,0,0-.74.78c-.42.71-.42,1.49,0,1.72l3.72,2.12a.74.74,0,0,0,.75-.07A2.21,2.21,0,0,0,127.72,83.45Z"/><path class="cls-9" d="M123.24,79.69a.74.74,0,0,1,.75-.08l3,1.69-.74,1.29c-.42.72-.42,1.49,0,1.72a.74.74,0,0,0,.75-.07,2.21,2.21,0,0,0,.75-.79,2.21,2.21,0,0,1-.75.79.74.74,0,0,1-.75.07l-3.72-2.12c-.42-.23-.42-1,0-1.72A2.15,2.15,0,0,1,123.24,79.69Z"/><path class="cls-6" d="M111,74.27l9.19,5.34,1.53.9a9.62,9.62,0,0,0-.17,1.76l-6.07-3.53-.7-.4c-.68-.4-1.36-.8-2.05-1.19l-.65-.39-.64-.37c-.19-.1-.4-.35-.62-.35A10.84,10.84,0,0,1,111,74.27Z"/><path class="cls-6" d="M111,74.27l.09-.46L121.83,80c0,.15-.07.31-.1.47l-5.52-3.21L115.6,77l-1.79-1Z"/><path class="cls-6" d="M111.16,73.55l.52.3,10.21,5.93a2.44,2.44,0,0,0-.06.26L111.1,73.81Z"/><path class="cls-6" d="M111.16,73.55l.09-.32L122,79.46c0,.11-.06.21-.08.32l-2.06-1.19Z"/><path class="cls-2" d="M123.24,62.13,134,68.36c-1.53-.89-3.65-.77-6,.58L117.27,62.7C119.6,61.36,121.71,61.24,123.24,62.13Z"/><path class="cls-2" d="M122.06,88.86l-10.72-6.23c-1.51-.88-2.45-2.75-2.46-5.39,0-5.34,3.74-11.86,8.39-14.54L128,68.94c-4.64,2.68-8.4,9.19-8.39,14.53C119.61,86.12,120.55,88,122.06,88.86Z"/><path class="cls-14" d="M128,68.94c4.63-2.68,8.42-.52,8.44,4.82S132.68,85.6,128,88.28s-8.42.51-8.44-4.81S123.35,71.62,128,68.94ZM128,86a14.22,14.22,0,0,0,6.44-11.14c0-4.09-2.93-5.74-6.48-3.69a14.17,14.17,0,0,0-6.44,11.15C121.57,86.43,124.47,88.08,128,86Z"/></g><path class="cls-15" d="M132.62,88.65,147,99.29V94.61L132.6,86.27a1.79,1.79,0,0,1-1.06-1.47v2.38A1.79,1.79,0,0,0,132.62,88.65Z"/><path class="cls-15" d="M157.52,94.11c.19.13,3.87,4.87,4.95,5.36.45.42,2.38,2.23,2.39,2.79l0-4.68c0-.56-1.93-2.37-2.38-2.79-1.08-.49-4.76-2.94-5-3.06-1.22-.59-1.63-1.19-1.63-1.74v2.38C155.88,92.92,156.3,93.53,157.52,94.11Z"/><path class="cls-15" d="M142.28,98.36l-4.73-2.75a1.82,1.82,0,0,1-1.06-1.48l0,4.68a1.81,1.81,0,0,0,1.05,1.48l4.73,2.75Z"/><path class="cls-15" d="M133.39,98.79v4.68a1.79,1.79,0,0,0,1.06,1.47l3.16,1.84V102.1l-3.16-1.84A1.79,1.79,0,0,1,133.39,98.79Z"/><path class="cls-15" d="M157.66,119.21c-5.72-2.08-11.82-4.48-14.1-5.94-4.69-3-7.54-5.64-10.54-7.49l-1.3-.76a1.84,1.84,0,0,1-1.07-1.48l0,9.28a1.79,1.79,0,0,0,1.06,1.47,29.32,29.32,0,0,1,3.47,1.92c2.44,1.5,3.6.55,3.6-.52v-1.07a39.73,39.73,0,0,0,7.29,5c4,2.06,8.72,3.23,11.58,4.27l22-12.71V106.5Z"/><path class="cls-16" d="M132.55,83.38c-1.38.79-1.35,2.08,0,2.89L147,94.61l-.53.41-3.92-2.27a5.53,5.53,0,0,0-5,0c-1.36.79-1.34,2.09.05,2.9l4.73,2.75-.52.41L139.4,97.4a5.51,5.51,0,0,0-5,0c-1.37.79-1.35,2.09,0,2.9l3.16,1.84-.44.35-.5-.29a5.51,5.51,0,0,0-5,0c-1.38.79-1.35,2.09.05,2.9l1.3.76a126,126,0,0,0,10.54,7.49c2.28,1.46,8.38,3.86,14.1,5.94l22-12.71.73.43c.42-2.6-3-7.17-5.07-9.44-1.07-1.15-1.17-2.42-5.27-4.36-3-1.43-4.52-1.7-5.9-2.64l-3.09-2.08a3.2,3.2,0,0,0-3.74-.24l-.24.15c-1,.62-2.37,2.08.41,3.41.2.12,3.88,2.57,5,3.06.5.46,2.82,2.63,2.31,2.92a.63.63,0,0,1-.47,0c-4-1.08-10.41-4.78-10.74-5l-16-9.3A5.51,5.51,0,0,0,132.55,83.38Z"/><path class="cls-17" d="M134.4,86.42h.41c1.54,0,3.94-.45,4.34-1.65l-1.89-1.1a5.15,5.15,0,0,0-4.42,0c-.46.27-.73.6-.73.92s.28.69.78,1Z"/><path class="cls-18" d="M132.84,109.26v3.66s.15-.93,1.65-.43l3.95,2.38a.87.87,0,0,1,.36.82c-.1.5,0,.15,0,.15l0-1.22L134.49,112S133.09,111.6,132.84,109.26Z"/><path class="cls-15" d="M147.87,94.67c3.56-.54,3.95,2.07,3.95,2.07C150.72,94.75,147.87,94.67,147.87,94.67Z"/><path class="cls-15" d="M150.89,92.12c3.56-.54,4,2.08,4,2.08C153.73,92.2,150.89,92.12,150.89,92.12Z"/><path class="cls-15" d="M142.61,98.42c3.56-.53,3.95,2.08,3.95,2.08C145.46,98.51,142.61,98.42,142.61,98.42Z"/><path class="cls-15" d="M137.92,102c3.55-.53,3.94,2.08,3.94,2.08C140.76,102.12,137.92,102,137.92,102Z"/><g class="cls-1"><path class="cls-9" d="M179.06,100.45c-2.22-.85-5.34-.38-8.82,1.61-6.93,3.94-12.66,12.4-12.81,18.88-.08,3.22,1.23,5.34,3.42,6.18l15.73,8.41c-2.19-.84-3.51-3-3.43-6.18.15-6.48,5.89-14.93,12.81-18.88,3.49-2,6.61-2.46,8.83-1.61Z"/><path class="cls-7" d="M186,110.47c-6.92,4-12.66,12.4-12.81,18.88s5.33,8.52,12.25,4.57,12.67-12.4,12.82-18.88S192.89,106.52,186,110.47Z"/></g></g></g></svg>