<svg xmlns="http://www.w3.org/2000/svg" viewBox="0 0 196.24 142.79"><defs><style>.cls-1{isolation:isolate;}.cls-2,.cls-9{fill:none;}.cls-2{stroke:#fff;stroke-linecap:round;stroke-linejoin:round;stroke-width:3px;stroke-dasharray:0.25 7.98;}.cls-3{fill:#dfc0a1;mix-blend-mode:multiply;}.cls-4{fill:#2c295b;}.cls-5{fill:#00b0dd;}.cls-6{fill:#aadef8;}.cls-7{opacity:0.3;}.cls-8{fill:#2d4199;}.cls-9{stroke:#2d4199;stroke-miterlimit:10;}.cls-10{fill:#fff;}.cls-11{fill:#ffd045;}.cls-12{fill:#f4815e;}.cls-13{fill:#0085ca;}</style></defs><g class="cls-1"><g id="Layer_2" data-name="Layer 2"><g id="Layer_1-2" data-name="Layer 1"><ellipse class="cls-2" cx="95.44" cy="67.52" rx="63.23" ry="58.05"/><path class="cls-3" d="M196.24,131c0,6.52-43.53,11.8-97.22,11.8S1.79,137.51,1.79,131,45.32,119.18,99,119.18,196.24,124.46,196.24,131Z"/><rect class="cls-4" x="40.85" y="53.23" width="109.19" height="80.1" rx="2.92"/><rect class="cls-5" x="43.31" y="57.87" width="104.28" height="69.22"/><path class="cls-6" d="M104.58,130.25a.73.73,0,0,1-.73.73H87a.73.73,0,0,1-.73-.73h0a.73.73,0,0,1,.73-.73h16.81a.73.73,0,0,1,.73.73Z"/><path class="cls-6" d="M101.05,55.75a.69.69,0,0,1-.69.69H90.53a.69.69,0,0,1-.69-.69h0a.69.69,0,0,1,.69-.69h9.83a.69.69,0,0,1,.69.69Z"/><g class="cls-7"><polygon class="cls-6" points="146.6 57.87 133.96 57.87 59.67 127.09 73.67 127.09 146.6 57.87"/><path class="cls-6" d="M128.73,57.87H111.51S43.37,119,43.31,119v8h9.84Z"/></g><path class="cls-8" d="M30,130.86a.51.51,0,0,1-.51.51H9.3a.51.51,0,0,1-.51-.51l-1-24.38a.51.51,0,0,1,.52-.51H30.47a.51.51,0,0,1,.52.51Z"/><path class="cls-6" d="M6.3,85S4.2,87.33,0,82.58c0,0,5.47-1.09,6.42,2.13Z"/><path class="cls-6" d="M6.53,84.7s3.11,0,2.48-6.28c0,0-4.51,3.27-2.8,6.16Z"/><path class="cls-5" d="M19.1,69.79S16.25,71,14.38,65c0,0,5.43,1.27,5,4.59Z"/><path class="cls-5" d="M19.63,69.39s2.82,1.32,4.85-4.7c0,0-5.46,1.12-5.09,4.46Z"/><path class="cls-5" d="M19,74.9s-3,1.32-5-5.14c0,0,5.78,1.36,5.29,4.89Z"/><path class="cls-5" d="M19.59,74.48s3,1.4,5.16-5c0,0-5.81,1.2-5.42,4.74Z"/><path class="cls-5" d="M18.93,80.71S15.57,82.17,13.37,75c0,0,6.39,1.5,5.85,5.4Z"/><path class="cls-5" d="M19.55,80.25s3.32,1.55,5.71-5.53c0,0-6.43,1.32-6,5.24Z"/><path class="cls-5" d="M18.93,86.84s-3.37,1.46-5.57-5.7c0,0,6.4,1.5,5.86,5.42Z"/><path class="cls-5" d="M19.55,86.37s3.33,1.55,5.72-5.54c0,0-6.44,1.32-6,5.25Z"/><path class="cls-5" d="M18.4,91.4s-2.42,1-4-4.09c0,0,4.6,1.08,4.21,3.89Z"/><path class="cls-5" d="M18.87,91.22s2.22,1.42,4.6-3.4c0,0-4.71.33-4.77,3.17Z"/><path class="cls-5" d="M18.57,95.14s1.82,1.17,3.78-2.79c0,0-3.87.27-3.93,2.6Z"/><path class="cls-5" d="M18.49,95.14s-1.82,1.17-3.78-2.79c0,0,3.87.27,3.92,2.6Z"/><path class="cls-6" d="M8.48,89.91s-2.41,2.65-7.24-2.82c0,0,6.29-1.24,7.38,2.45Z"/><path class="cls-6" d="M8.74,89.53s3.58,0,2.86-7.22c0,0-5.19,3.76-3.22,7.08Z"/><path class="cls-6" d="M10.41,95.16s-2.69,3-8.09-3.15c0,0,7-1.39,8.24,2.74Z"/><path class="cls-6" d="M10.7,94.74s4,0,3.19-8.08c0,0-5.8,4.21-3.6,7.92Z"/><path class="cls-6" d="M12.1,101.24S9.19,104,4.29,97.46c0,0,7.11-.83,8,3.38Z"/><path class="cls-6" d="M12.43,100.84s4,.36,3.82-7.79c0,0-6.11,3.73-4.21,7.6Z"/><path class="cls-4" d="M30.52,86.17s2.19,2.22,6.19-2.71c0,0-5.51-.85-6.33,2.4Z"/><path class="cls-4" d="M30.28,85.85s-3.11.17-2.75-6.17c0,0,4.65,3.08,3.06,6Z"/><path class="cls-4" d="M28.55,91.14s2.51,2.54,7.11-3.12c0,0-6.34-1-7.27,2.76Z"/><path class="cls-4" d="M28.27,90.77s-3.58.19-3.16-7.09c0,0,5.34,3.54,3.52,6.93Z"/><path class="cls-4" d="M26.84,96.46s2.81,2.85,8-3.48c0,0-7.08-1.1-8.13,3.08Z"/><path class="cls-4" d="M26.53,96.06s-4,.21-3.53-7.93c0,0,6,4,3.93,7.75Z"/><path class="cls-4" d="M25.4,102.61s3,2.62,7.65-4.11c0,0-7.15-.53-7.86,3.72Z"/><path class="cls-4" d="M25.06,102.23s-4,.53-4.15-7.63c0,0,6.27,3.48,4.53,7.42Z"/><path class="cls-9" d="M23.38,111.38s1.12-12,8.62-29.3"/><path class="cls-4" d="M31.63,82.22s-2-2.35,3.2-6c0,0,.4,5.57-2.9,6.12Z"/><path class="cls-9" d="M17.29,110.46s3.05-35,1.77-45"/><path class="cls-5" d="M19.11,65.71s2.77-1.43-.74-6.71c0,0-2.46,5,.4,6.75Z"/><path class="cls-9" d="M14.49,109.92S12.87,98,4.65,81"/><path class="cls-8" d="M182.2,133.06a.52.52,0,0,1-.52.52H161.54a.51.51,0,0,1-.51-.52l-1-24.37a.52.52,0,0,1,.52-.52h22.19a.51.51,0,0,1,.51.52Z"/><path class="cls-6" d="M158.53,87.23s-2.09,2.31-6.29-2.45c0,0,5.47-1.08,6.42,2.14Z"/><path class="cls-6" d="M158.77,86.91s3.11,0,2.48-6.29c0,0-4.51,3.28-2.8,6.16Z"/><path class="cls-5" d="M171.34,72s-2.86,1.24-4.72-4.83c0,0,5.43,1.27,5,4.59Z"/><path class="cls-5" d="M171.87,71.6s2.82,1.31,4.85-4.7c0,0-5.46,1.12-5.09,4.45Z"/><path class="cls-5" d="M171.26,77.11s-3,1.32-5-5.14c0,0,5.77,1.35,5.28,4.88Z"/><path class="cls-5" d="M171.82,76.69s3,1.4,5.17-5c0,0-5.81,1.19-5.42,4.74Z"/><path class="cls-5" d="M171.17,82.92s-3.36,1.46-5.56-5.68c0,0,6.39,1.49,5.84,5.4Z"/><path class="cls-5" d="M171.79,82.46s3.32,1.54,5.71-5.53c0,0-6.43,1.32-6,5.24Z"/><path class="cls-5" d="M171.17,89s-3.37,1.46-5.57-5.69c0,0,6.4,1.5,5.85,5.41Z"/><path class="cls-5" d="M171.79,88.58s3.32,1.55,5.72-5.54c0,0-6.44,1.32-6,5.25Z"/><path class="cls-5" d="M170.64,93.61s-2.42,1-4-4.09c0,0,4.6,1.08,4.21,3.89Z"/><path class="cls-5" d="M171.11,93.43s2.22,1.42,4.6-3.4c0,0-4.71.33-4.78,3.16Z"/><path class="cls-5" d="M170.8,97.35s1.83,1.17,3.78-2.79c0,0-3.87.27-3.92,2.6Z"/><path class="cls-5" d="M170.73,97.35s-1.83,1.17-3.78-2.79c0,0,3.87.27,3.92,2.6Z"/><path class="cls-6" d="M160.71,92.11s-2.4,2.65-7.23-2.82c0,0,6.29-1.24,7.38,2.46Z"/><path class="cls-6" d="M161,91.74s3.58,0,2.85-7.22c0,0-5.18,3.76-3.22,7.07Z"/><path class="cls-6" d="M162.64,97.36s-2.68,3-8.08-3.15c0,0,7-1.39,8.24,2.74Z"/><path class="cls-6" d="M162.94,96.94s4,0,3.19-8.07c0,0-5.8,4.21-3.6,7.91Z"/><path class="cls-6" d="M164.34,103.44s-2.91,2.74-7.81-3.78c0,0,7.11-.83,8,3.39Z"/><path class="cls-6" d="M164.67,103.05s4,.36,3.82-7.8c0,0-6.12,3.74-4.22,7.6Z"/><path class="cls-4" d="M182.76,88.38S185,90.59,189,85.66c0,0-5.52-.85-6.33,2.4Z"/><path class="cls-4" d="M182.51,88.06s-3.1.17-2.74-6.17c0,0,4.65,3.08,3.06,6Z"/><path class="cls-4" d="M180.78,93.34s2.52,2.55,7.11-3.12c0,0-6.33-1-7.26,2.76Z"/><path class="cls-4" d="M180.5,93s-3.57.19-3.15-7.1c0,0,5.34,3.55,3.51,6.94Z"/><path class="cls-4" d="M179.08,98.67s2.81,2.85,7.95-3.49c0,0-7.08-1.09-8.13,3.09Z"/><path class="cls-4" d="M178.76,98.26s-4,.22-3.52-7.93c0,0,6,4,3.93,7.75Z"/><path class="cls-4" d="M177.64,104.82s3,2.61,7.65-4.11c0,0-7.15-.53-7.86,3.72Z"/><path class="cls-4" d="M177.29,104.43s-4,.53-4.14-7.62c0,0,6.26,3.47,4.53,7.41Z"/><path class="cls-9" d="M175.62,113.59s1.12-12,8.62-29.31"/><path class="cls-4" d="M183.86,84.43s-2-2.36,3.21-6c0,0,.4,5.56-2.91,6.11Z"/><path class="cls-9" d="M169.53,112.66s3.05-35,1.77-45"/><path class="cls-5" d="M171.35,67.92s2.77-1.43-.75-6.72c0,0-2.45,5,.41,6.76Z"/><path class="cls-9" d="M166.73,112.12s-1.63-12-9.85-28.91"/><path class="cls-10" d="M64.59,28.17A14.44,14.44,0,1,1,50.15,13.73,14.44,14.44,0,0,1,64.59,28.17Z"/><rect class="cls-8" x="56.24" y="21.19" width="2.44" height="15.56"/><rect class="cls-11" x="43.94" y="27.65" width="2.44" height="9.1"/><rect class="cls-5" x="52.14" y="23.29" width="2.44" height="13.46"/><rect class="cls-12" x="48.04" y="25.21" width="2.44" height="11.54"/><rect class="cls-6" x="39.84" y="29.39" width="2.44" height="7.36"/><path class="cls-8" d="M40.29,27.37A.31.31,0,0,1,40,27.2a.32.32,0,0,1,.12-.44l14.66-8.09a.32.32,0,0,1,.44.13.32.32,0,0,1-.12.44L40.45,27.33A.32.32,0,0,1,40.29,27.37Z"/><polygon class="cls-8" points="54.67 21.08 55.67 18.46 52.88 18.18 54.67 21.08"/><path class="cls-10" d="M51.27,64.72A14.71,14.71,0,1,1,36.56,50,14.72,14.72,0,0,1,51.27,64.72Z"/><rect class="cls-12" x="29.96" y="67.88" width="2.09" height="5.97"/><rect class="cls-5" x="29.4" y="66.57" width="3.19" height="1.89"/><path class="cls-4" d="M43.42,59.37v7.3a3.65,3.65,0,0,0,0-7.3Z"/><path class="cls-4" d="M28.82,60.3v5.48a2.74,2.74,0,0,1,0-5.48Z"/><path class="cls-5" d="M42.05,56.36C35.88,59.15,32.68,59,32.68,59v8a18.44,18.44,0,0,1,9.37,2.66Z"/><rect class="cls-4" x="27.78" y="58.88" width="5.61" height="8.21"/><rect class="cls-12" x="41.54" y="55.59" width="2.61" height="14.35"/><path class="cls-10" d="M169,67a14.71,14.71,0,1,1-14.71-14.71A14.71,14.71,0,0,1,169,67Z"/><path class="cls-6" d="M154.33,67c0,.19-6.84-6.22-6.84-6.22a9.22,9.22,0,0,1,6.84-3Z"/><path class="cls-12" d="M163.58,67h-9.25V57.78A9.25,9.25,0,0,1,163.58,67Z"/><path class="cls-5" d="M145.08,67h9.25v9.25A9.25,9.25,0,0,1,145.08,67Z"/><path class="cls-8" d="M154.33,67h-9.25a9.18,9.18,0,0,1,2.41-6.22Z"/><path class="cls-11" d="M154.33,67c0-.19,6.84,6.23,6.84,6.23a9.25,9.25,0,0,1-6.84,3Z"/><path class="cls-13" d="M154.33,67h9.25a9.22,9.22,0,0,1-2.41,6.23Z"/><path class="cls-10" d="M109.06,16.1A16.1,16.1,0,1,1,93,0,16.1,16.1,0,0,1,109.06,16.1Z"/><path class="cls-5" d="M103.32,13.2H99.66l2.51-2.67-4.23-4L95.86,8.78v-3h-5.8V9.39l-2.67-2.5-4,4.23,2.21,2.08h-3V19h3.66l-2.5,2.67,4.22,4,2.09-2.22v3h5.8V22.8l2.66,2.51,4-4.23L100.28,19h3ZM93,20.28a4.18,4.18,0,1,1,4.17-4.18A4.18,4.18,0,0,1,93,20.28Z"/><path class="cls-10" d="M151.91,28.17a14.44,14.44,0,1,1-14.44-14.44A14.45,14.45,0,0,1,151.91,28.17Z"/><polygon class="cls-4" points="141.01 36.66 127.97 28.29 141.01 19.97 141.81 21.22 130.72 28.3 141.81 35.42 141.01 36.66"/><path class="cls-12" d="M138.2,20.3a3.21,3.21,0,1,0,3.21-3.21A3.21,3.21,0,0,0,138.2,20.3Z"/><path class="cls-12" d="M126.25,28A3.75,3.75,0,1,0,130,24.27,3.75,3.75,0,0,0,126.25,28Z"/><circle class="cls-12" cx="141.41" cy="36.04" r="3.21"/><path class="cls-11" d="M133.64,97.64c-.14.44-.29.86-.47,1.28a13.86,13.86,0,0,1-7.31,7.29,13.43,13.43,0,0,1-10.46,0,14,14,0,0,1-4.34-2.92,12,12,0,0,1-1-1.07c-1,.82-2.19,1.51-3.22,2.35l-.2.16a17.6,17.6,0,0,0,1.3,1.44,18.19,18.19,0,0,0,25.3,0,17.58,17.58,0,0,0,3.82-5.64,14.68,14.68,0,0,0,.61-1.68C136.36,98.42,135,97.94,133.64,97.64Z"/><path class="cls-6" d="M137.08,86.57a18.25,18.25,0,0,0-3.85-5.66,17.86,17.86,0,0,0-5.68-3.82,17.71,17.71,0,0,0-13.85,0l-.09,0,1.68,3.58a17,17,0,0,1,5.34-1,13.48,13.48,0,0,1,5.5,1.11,13.63,13.63,0,0,1,4.32,3,13.42,13.42,0,0,1,2.81,4.39,14.41,14.41,0,0,1,1,5.32,23.88,23.88,0,0,1-.75,4.6l4.07,1.24a18.05,18.05,0,0,0,.94-5.84A16.92,16.92,0,0,0,137.08,86.57Z"/><path class="cls-4" d="M107.29,105.44c1.09-.89,2.21-1.75,3.37-2.56a13.79,13.79,0,0,1-2.57-4A13.64,13.64,0,0,1,107,93.47a14.41,14.41,0,0,1,1-5.32,13.26,13.26,0,0,1,2.81-4.39,13.41,13.41,0,0,1,4.32-3l.38-.15c-.56-1.2-1.06-2.41-1.54-3.64l-.27.11A18.09,18.09,0,0,0,108,80.91a18.4,18.4,0,0,0-3.84,5.66,16.92,16.92,0,0,0-1.43,6.9,17.56,17.56,0,0,0,4.54,12Z"/><polygon class="cls-11" points="85.79 99.97 81.53 99.97 81.53 109.86 99.86 109.86 99.86 105.97 85.79 105.97 85.79 99.97"/><polygon class="cls-6" points="85.79 85.27 81.53 85.27 81.53 100.33 85.79 100.33 85.79 93.07 99.45 93.07 99.45 89.18 85.79 89.18 85.79 85.27"/><polygon class="cls-4" points="81.53 75.74 81.53 85.64 85.79 85.64 85.79 79.63 99.86 79.63 99.86 75.74 81.53 75.74"/><path class="cls-11" d="M68.42,105.3h0a5.87,5.87,0,0,1-2.51.55,7,7,0,0,1-2.58-.48A6.46,6.46,0,0,1,61.19,104a5.89,5.89,0,0,1-1.4-2.06,6.6,6.6,0,0,1-.5-2.61l-4.3.91a11.68,11.68,0,0,0,1.17,3.8,10.71,10.71,0,0,0,2.29,3,10.17,10.17,0,0,0,3.19,2,10.27,10.27,0,0,0,3.89.73,11.64,11.64,0,0,0,4.13-.73A28.11,28.11,0,0,0,68.42,105.3Z"/><path class="cls-4" d="M58.77,88.58a10.29,10.29,0,0,0,2.37,1.76c.91.5,1.84,1,2.81,1.38l2.35,1c.55.23,1.08.48,1.62.75.66-1.23,1.42-2.42,2.08-3.65-.65-.32-1.32-.62-2-.9l-2.45-1a17,17,0,0,1-1.65-.75,8.07,8.07,0,0,1-1.52-1,5.64,5.64,0,0,1-1.13-1.35,3.48,3.48,0,0,1-.45-1.77,4,4,0,0,1,.5-2,5,5,0,0,1,1.31-1.52,6.06,6.06,0,0,1,1.83-1,6.4,6.4,0,0,1,2.06-.34,6,6,0,0,1,3.24.81A7,7,0,0,1,72,81.45l3.39-2a10,10,0,0,0-3.66-3.82,9.88,9.88,0,0,0-5.12-1.34,11.83,11.83,0,0,0-3.75.61,10.34,10.34,0,0,0-3.22,1.75,8.49,8.49,0,0,0-2.24,2.76,8.07,8.07,0,0,0-.83,3.71,7.46,7.46,0,0,0,.61,3.12A7.93,7.93,0,0,0,58.77,88.58Z"/><path class="cls-6" d="M75.81,95.46A9,9,0,0,0,74,92.63a11.13,11.13,0,0,0-2.69-2.11,29.52,29.52,0,0,0-2.76-1.35c-.68,1.22-1.38,2.44-2,3.69.62.27,1.23.56,1.83.88a9.39,9.39,0,0,1,1.9,1.31,5.68,5.68,0,0,1,1.34,1.77,5.34,5.34,0,0,1,.5,2.37,6.82,6.82,0,0,1-.48,2.56,6.66,6.66,0,0,1-1.31,2.1,6.27,6.27,0,0,1-2,1.45c-.09,0-.19.08-.28.12a35.46,35.46,0,0,0,.86,3.91c.28-.09.57-.18.84-.29a10.75,10.75,0,0,0,3.47-2.2,9.85,9.85,0,0,0,2.3-3.37,10.79,10.79,0,0,0,.84-4.28A10.16,10.16,0,0,0,75.81,95.46Z"/><rect class="cls-6" x="119.19" y="106.7" width="3.08" height="9.56"/><path class="cls-12" d="M135.12,94a14.25,14.25,0,1,1-14.25-14.25A14.25,14.25,0,0,1,135.12,94Z"/><path class="cls-12" d="M117.78,111.49v21.9a2.75,2.75,0,0,0,2.75,2.75h.39a2.75,2.75,0,0,0,2.75-2.75v-21.9Z"/><path class="cls-10" d="M132,94a11.11,11.11,0,1,1-11.11-11.1A11.1,11.1,0,0,1,132,94Z"/></g></g></g></svg>