<svg xmlns="http://www.w3.org/2000/svg" xmlns:xlink="http://www.w3.org/1999/xlink" viewBox="0 0 195.54 197.38"><defs><style>.cls-1{fill:none;}.cls-2{isolation:isolate;}.cls-3{opacity:0.3;fill:url(#linear-gradient);}.cls-4{fill:url(#linear-gradient-2);}.cls-11,.cls-44,.cls-5,.cls-9{fill:#fff;}.cls-5{mix-blend-mode:soft-light;}.cls-6{fill:url(#linear-gradient-3);}.cls-7{fill:url(#linear-gradient-4);}.cls-8{fill:url(#linear-gradient-5);}.cls-9{opacity:0.5;}.cls-10{fill:url(#linear-gradient-6);}.cls-12{fill:url(#linear-gradient-7);}.cls-13{fill:url(#linear-gradient-8);}.cls-14{fill:url(#linear-gradient-9);}.cls-15{fill:url(#linear-gradient-10);}.cls-16{fill:url(#linear-gradient-11);}.cls-17{fill:url(#linear-gradient-12);}.cls-18{fill:url(#linear-gradient-13);}.cls-19{fill:url(#linear-gradient-14);}.cls-20{fill:url(#linear-gradient-15);}.cls-21{fill:url(#linear-gradient-16);}.cls-22{fill:url(#linear-gradient-17);}.cls-23{fill:url(#linear-gradient-18);}.cls-24{fill:url(#linear-gradient-19);}.cls-25{fill:url(#linear-gradient-20);}.cls-26{fill:url(#linear-gradient-21);}.cls-27{fill:url(#linear-gradient-22);}.cls-28{fill:url(#linear-gradient-23);}.cls-29{fill:url(#linear-gradient-24);}.cls-30{fill:url(#linear-gradient-25);}.cls-31{fill:url(#linear-gradient-26);}.cls-32{fill:url(#linear-gradient-27);}.cls-33{fill:url(#linear-gradient-28);}.cls-34{fill:url(#linear-gradient-29);}.cls-35{fill:url(#linear-gradient-30);}.cls-36{fill:url(#linear-gradient-31);}.cls-37{fill:url(#linear-gradient-32);}.cls-38{clip-path:url(#clip-path);}.cls-39{fill:url(#linear-gradient-33);}.cls-40{fill:url(#linear-gradient-34);}.cls-41{fill:url(#linear-gradient-35);}.cls-42{fill:url(#linear-gradient-36);}.cls-43{opacity:0.9;}.cls-44{fill-rule:evenodd;}</style><linearGradient id="linear-gradient" x1="213.31" y1="228.88" x2="76.25" y2="82.98" gradientUnits="userSpaceOnUse"><stop offset="0" stop-color="#b37cff"/><stop offset="1" stop-color="#f895e7"/></linearGradient><linearGradient id="linear-gradient-2" x1="6115.95" y1="-622.42" x2="6206.12" y2="-622.42" gradientTransform="translate(-6052.42 -1034.17) rotate(16.04)" gradientUnits="userSpaceOnUse"><stop offset="0" stop-color="#a737d5"/><stop offset="1" stop-color="#ef497a"/></linearGradient><linearGradient id="linear-gradient-3" x1="-3203.05" y1="5751.51" x2="-3092.45" y2="5751.51" gradientTransform="translate(-5262.65 -3779.63) rotate(-82.46)" xlink:href="#linear-gradient-2"/><linearGradient id="linear-gradient-4" x1="176.14" y1="238.59" x2="55.85" y2="-4.74" gradientTransform="matrix(1, -0.01, 0.01, 1, -18.16, -16.4)" gradientUnits="userSpaceOnUse"><stop offset="0" stop-color="#2b3582"/><stop offset="1" stop-color="#150e42"/></linearGradient><linearGradient id="linear-gradient-5" x1="150.75" y1="65.93" x2="-109.68" y2="399.09" gradientTransform="matrix(1, -0.01, 0.01, 1, -18.16, -16.4)" gradientUnits="userSpaceOnUse"><stop offset="0" stop-color="#fdf53f"/><stop offset="1" stop-color="#d93c65"/></linearGradient><linearGradient id="linear-gradient-6" x1="17.61" y1="60.88" x2="109.71" y2="-55.48" gradientTransform="translate(58.44 -22.2) rotate(74.07)" gradientUnits="userSpaceOnUse"><stop offset="0" stop-color="#53d8ff"/><stop offset="1" stop-color="#3840f7"/></linearGradient><linearGradient id="linear-gradient-7" x1="76.24" y1="55.93" x2="55.3" y2="98.76" gradientTransform="translate(124.67 -6.1) rotate(76.22)" xlink:href="#linear-gradient-6"/><linearGradient id="linear-gradient-8" x1="15704.22" y1="85.05" x2="15667.41" y2="125.08" gradientTransform="translate(-15668.96 -46.78) rotate(0.54)" xlink:href="#linear-gradient-4"/><linearGradient id="linear-gradient-9" x1="15692.27" y1="88.02" x2="15695.54" y2="88.02" gradientTransform="translate(-15668.96 -46.78) rotate(0.54)" gradientUnits="userSpaceOnUse"><stop offset="0" stop-color="#f9b776"/><stop offset="1" stop-color="#f47960"/></linearGradient><linearGradient id="linear-gradient-10" x1="-1723.41" y1="284.7" x2="-1737.35" y2="152.32" gradientTransform="translate(1757.09)" gradientUnits="userSpaceOnUse"><stop offset="0" stop-color="#8d55d1"/><stop offset="1" stop-color="#1c2873"/></linearGradient><linearGradient id="linear-gradient-11" x1="15695.96" y1="77.45" x2="15659.15" y2="117.49" gradientTransform="translate(-15668.96 -46.78) rotate(0.54)" xlink:href="#linear-gradient-4"/><linearGradient id="linear-gradient-12" x1="15680.49" y1="87.85" x2="15683.31" y2="87.85" xlink:href="#linear-gradient-9"/><linearGradient id="linear-gradient-13" x1="-1727.57" y1="285.14" x2="-1741.51" y2="152.76" xlink:href="#linear-gradient-10"/><linearGradient id="linear-gradient-14" x1="49.66" y1="62.24" x2="11.37" y2="140.88" gradientTransform="matrix(1, 0, 0, 1, 0, 0)" xlink:href="#linear-gradient-6"/><linearGradient id="linear-gradient-15" x1="15705.73" y1="2.72" x2="15722.44" y2="2.72" xlink:href="#linear-gradient-9"/><linearGradient id="linear-gradient-16" x1="71.82" y1="79.09" x2="44.94" y2="100.02" gradientTransform="matrix(1, 0, 0, 1, 0, 0)" xlink:href="#linear-gradient-9"/><linearGradient id="linear-gradient-17" x1="15722.36" y1="-8.58" x2="15727.03" y2="-15.77" xlink:href="#linear-gradient-9"/><linearGradient id="linear-gradient-18" x1="37.82" y1="56.48" x2="-0.47" y2="135.11" gradientTransform="matrix(1, 0, 0, 1, 0, 0)" xlink:href="#linear-gradient-6"/><linearGradient id="linear-gradient-19" x1="15669.18" y1="26.38" x2="15690.32" y2="26.38" xlink:href="#linear-gradient-9"/><linearGradient id="linear-gradient-20" x1="15685.41" y1="3.78" x2="15693.77" y2="3.78" xlink:href="#linear-gradient-9"/><linearGradient id="linear-gradient-21" x1="5735.71" y1="8361.9" x2="5732.59" y2="8351.59" gradientTransform="matrix(0.75, -0.66, 0.66, 0.75, -9796.98, -2411.17)" xlink:href="#linear-gradient-9"/><linearGradient id="linear-gradient-22" x1="5732.9" y1="8343.95" x2="5735.51" y2="8358.85" gradientTransform="matrix(0.75, -0.66, 0.66, 0.75, -9796.98, -2411.17)" xlink:href="#linear-gradient-4"/><linearGradient id="linear-gradient-23" x1="5732.52" y1="8361.85" x2="5729.71" y2="8352.58" gradientTransform="matrix(0.75, -0.66, 0.66, 0.75, -9796.98, -2411.17)" xlink:href="#linear-gradient-9"/><linearGradient id="linear-gradient-24" x1="15410.76" y1="115.02" x2="15422.42" y2="163.63" gradientTransform="translate(-15383.99)" xlink:href="#linear-gradient-4"/><linearGradient id="linear-gradient-25" x1="15402.77" y1="127.88" x2="15409.38" y2="127.88" gradientTransform="translate(-15383.99)" xlink:href="#linear-gradient-9"/><linearGradient id="linear-gradient-26" x1="-6655.33" y1="120.21" x2="-6653.59" y2="127.47" gradientTransform="matrix(-1, 0, 0, 1, -6623.86, 0)" xlink:href="#linear-gradient-6"/><linearGradient id="linear-gradient-27" x1="-294.91" y1="-434.21" x2="688.76" y2="611.04" gradientTransform="translate(183.79 -119.14) rotate(76.33)" xlink:href="#linear-gradient-6"/><linearGradient id="linear-gradient-28" x1="84.45" y1="60.73" x2="139.42" y2="0.05" gradientTransform="translate(117.46 -54.63) rotate(74.71)" xlink:href="#linear-gradient-6"/><linearGradient id="linear-gradient-29" x1="50.97" y1="164.35" x2="76.18" y2="130.54" gradientTransform="matrix(1, 0, 0, 1, 0, 0)" xlink:href="#linear-gradient-4"/><linearGradient id="linear-gradient-30" x1="93.42" y1="82.58" x2="139.3" y2="164.29" gradientUnits="userSpaceOnUse"><stop offset="0" stop-color="#cb236d"/><stop offset="1" stop-color="#4c246d"/></linearGradient><linearGradient id="linear-gradient-31" x1="241.44" y1="73.75" x2="190.88" y2="91.65" gradientTransform="matrix(1, 0, 0, 1, 0, 0)" xlink:href="#linear-gradient-2"/><linearGradient id="linear-gradient-32" x1="95.62" y1="166.17" x2="158.36" y2="87.83" xlink:href="#linear-gradient-30"/><clipPath id="clip-path"><path class="cls-1" d="M141.24,141.61c-.64-.64-2-3.14-3.22-9.6a131.75,131.75,0,0,1-1.78-22.8A131.71,131.71,0,0,1,138,86.42c1.19-6.46,2.58-9,3.22-9.6.63.64,2,3.14,3.21,9.6,1.15,6.24,10.21,14.34,10.21,22.79s-9.06,16.56-10.21,22.8C143.26,138.47,141.87,141,141.24,141.61Z"/></clipPath><linearGradient id="linear-gradient-33" x1="157.38" y1="99.15" x2="120.1" y2="120.93" gradientTransform="matrix(1, 0, 0, 1, 0, 0)" xlink:href="#linear-gradient-4"/><linearGradient id="linear-gradient-34" x1="61.59" y1="125.83" x2="59.74" y2="79.42" gradientTransform="matrix(1, 0, 0, 1, 0, 0)" xlink:href="#linear-gradient-4"/><linearGradient id="linear-gradient-35" x1="160.96" y1="133.01" x2="237.35" y2="24.49" gradientTransform="translate(239.08 -89.48) rotate(75.47)" xlink:href="#linear-gradient-6"/><linearGradient id="linear-gradient-36" x1="115.91" y1="48.71" x2="166.6" y2="-34.1" gradientTransform="translate(120.55 -108.21) rotate(75.01)" xlink:href="#linear-gradient-6"/></defs><g class="cls-2"><g id="Layer_2" data-name="Layer 2"><g id="Layer_1-2" data-name="Layer 1"><path class="cls-3" d="M172.16,170.34a74.2,74.2,0,0,1-13,10.6C125.3,203.51,86.66,197,74.71,194.78c-19.27-3.59-35.54-6.12-49.52-18.75C-6.58,147.33-5,87.47,19.24,50.38,22.12,46,46.35,10.06,85.08,5c1-.12,1.65-.19,2.27-.26,6-.63,43.12-4,73.39,21.38a90.45,90.45,0,0,1,17.77,20.17C202.15,82.79,202.23,139.35,172.16,170.34Z"/><path class="cls-4" d="M13.34,3.36A1.06,1.06,0,0,1,15,2.19c8.39,6.27,29,25.55,28.7,63.36C43.27,113,55,129,68.26,138A52.66,52.66,0,0,1,38.6,118.85C8.06,79.22,19,20.81,13.34,3.36Z"/><path class="cls-5" d="M20.76,17.32c1.54,5.1,3,10.23,4.22,15.41s2.39,10.37,3.34,15.6S30.09,58.82,30.7,64.1s1,10.57,1.43,15.89.8,10.67,1.75,16a53.81,53.81,0,0,0,5,15.47c.62,1.21,1.27,2.41,2,3.56s1.44,2.3,2.2,3.42a58.86,58.86,0,0,0,5.08,6.37A57.91,57.91,0,0,0,60.8,135a1,1,0,0,0,1.09-1.75h0c-1.11-.71-2.2-1.43-3.27-2.2-.53-.37-1-.77-1.58-1.16s-1-.8-1.53-1.22a53.66,53.66,0,0,1-5.68-5.4,59.43,59.43,0,0,1-8.91-12.86,51.06,51.06,0,0,1-3-7.22A59.64,59.64,0,0,1,36,95.6c-1-5.17-1.38-10.47-1.84-15.78s-1-10.65-1.68-15.95c-.36-2.66-.76-5.3-1.21-7.94-.21-1.32-.45-2.64-.69-4s-.52-2.63-.79-3.94q-1.64-7.86-3.75-15.59t-4.77-15.3a.29.29,0,0,0-.36-.17A.28.28,0,0,0,20.76,17.32Z"/><path class="cls-6" d="M50.9,153a2.67,2.67,0,0,1-4.12,1.66,81.63,81.63,0,0,1-35-60.77c-2.69-30.46-7-46.72-9.54-54A1.68,1.68,0,0,1,4.82,38C19.53,48.19,64.89,85.59,50.9,153Z"/><path class="cls-5" d="M48.36,153.42l-.12.09a.75.75,0,0,1-1-.26c-.23-.4-23.79-40.44-29.45-82.62a.74.74,0,1,1,1.47-.2c5.62,41.88,29,81.66,29.26,82.06A.74.74,0,0,1,48.36,153.42Z"/><path class="cls-7" d="M39.21,10.39c-.2,31.43-.73,139.82.88,178.2.17,4.06,3,7.29,6.48,7.37,17.21.4,80.28,1.12,108.39-.68,5.86-.38,10.43-6,10.45-12.86.09-33,0-125.74-3.72-168.18-.44-5.08-3.92-9.08-8.27-9.53C134.66,2.8,71.26-1.6,47,.61,42.61,1,39.24,5.26,39.21,10.39Z"/><path class="cls-8" d="M47,19.92c-.54,25.37-2.19,109.76-.8,140.94.2,4.55,3.33,8.19,7.23,8.4,16,.86,70.76,2.46,94.24-.1,4.22-.46,7.48-4.51,7.64-9.48.8-25.88,3-104.48,1.69-135.3-.21-4.92-3.53-8.89-7.73-9.27-17.37-1.56-75.54-5-95.5-3.45C50.05,12,47.12,15.52,47,19.92Z"/><path class="cls-9" d="M81.65,5.58h0a1.7,1.7,0,0,0,1.49,1.78c4.06.19,15.52.72,20.64,1a1.72,1.72,0,0,0,1.57-2.17l0-.2a1.68,1.68,0,0,0-1.4-1.44C100.45,4.22,90,3.35,83.1,3.74A1.7,1.7,0,0,0,81.65,5.58Z"/><circle class="cls-10" cx="43.93" cy="27.62" r="17.62" transform="translate(5.31 62.29) rotate(-74.07)"/><rect class="cls-11" x="35.03" y="20.95" width="4.63" height="14.66" rx="0.82"/><path class="cls-11" d="M49.76,21h-2.9V17.44a1.72,1.72,0,0,0-1.81-1.89H45a2,2,0,0,0-2.07,2l-1,3.52c-.45,0-1.2.33-1.2.78V35.31c0,.46,1.13,1.07,1.58,1.07h7.49a3.25,3.25,0,0,0,3-3.33v-9A3.07,3.07,0,0,0,49.76,21Z"/><circle class="cls-12" cx="66.22" cy="76.42" r="14.78" transform="translate(-23.77 122.54) rotate(-76.22)"/><path class="cls-11" d="M67.15,74.11c.31.37,2.63,1.75,0,4-.12.24.23.86.47.78,3.79-2.59.23-5.83-.16-5.51S66.79,73.69,67.15,74.11Z"/><path class="cls-11" d="M68.73,80.43c0,.48.38.94.81.8s5.81-4.75-.27-9.9a.38.38,0,0,0-.27-.08.31.31,0,0,0-.25.13.89.89,0,0,0-.3.69C73.79,76.78,68.67,80,68.73,80.43Z"/><path class="cls-11" d="M70.34,82.84c-.07.34.19,1,.75.86,8.85-8.13-.42-15.38-.8-15.11a.87.87,0,0,0-.26,1C78.34,76.09,70.41,82.49,70.34,82.84Z"/><path class="cls-11" d="M65,70a.16.16,0,0,0-.2,0l-3.07,3.13a.14.14,0,0,1-.12.06l-2.55.13a.5.5,0,0,0-.47.46l-.32,4.6a.5.5,0,0,0,.44.52l2.91.33a.16.16,0,0,1,.11,0l3.08,2.94a.17.17,0,0,0,.19,0,.18.18,0,0,0,.1-.18V70.18A.16.16,0,0,0,65,70Z"/><path class="cls-13" d="M22.79,190.33s-.4,2.15-.61,4.29a1.48,1.48,0,0,0,1.39,1.61c2.85.14,8.93.43,11.11.35a.48.48,0,0,0,.43-.65h0a1.09,1.09,0,0,0-.54-.58l-10-4.72Z"/><path class="cls-14" d="M22.49,189.06l.28,2.58s1.75.84,3-.07l-.7-2.89Z"/><path class="cls-15" d="M23.18,140.53c-.14.67-1,33.63,2.35,48.44a.5.5,0,0,1-.3.58,8.53,8.53,0,0,1-2.87.56.87.87,0,0,1-.85-.63c-1-3.44-5.64-20.66-6.11-37.07-.53-18.34,0-.62,0-.62l.52-11.33Z"/><path class="cls-16" d="M11.21,191.34a16,16,0,0,0-1.23,4,.9.9,0,0,0,.78,1.08c.94.1,2.39.23,3.54.24a.9.9,0,0,0,.9-1,7.56,7.56,0,0,0-1.72-4.16Z"/><path class="cls-17" d="M10.71,188l.68,3.91a2.53,2.53,0,0,0,2.11.16l-.3-4.2Z"/><path class="cls-18" d="M9.22,141.41c-3,17.36.22,43,1.35,48a.78.78,0,0,0,.63.6,5.33,5.33,0,0,0,2.26-.07.72.72,0,0,0,.52-.65c.19-4.05.15-28.92,2.92-38.72a2.24,2.24,0,0,1,.88-1.22L23,145.7l.46-6Z"/><path class="cls-19" d="M27.9,108.63a81,81,0,0,0-18.18,2.09C7,125.72,9,143.06,9,143.06c6.67,1.82,14.24-.93,14.24-.93,1.17-6.27,6.52-23.89,6.52-23.89A28.41,28.41,0,0,0,40.31,115a18.51,18.51,0,0,1-3.59-7.69A28.92,28.92,0,0,1,27.9,108.63Z"/><path class="cls-20" d="M53.54,96.15a1.65,1.65,0,0,0-1.92-.56c-1.32,5.36-8,9.65-14.9,11.71A18.51,18.51,0,0,0,40.31,115C51.74,108.71,53.54,96.15,53.54,96.15Z"/><path class="cls-21" d="M53.33,96.41c.08.28-.95.7-1.54-.46,0-.55-.33-2.93,0-3.38A44.45,44.45,0,0,1,57,87.22a.8.8,0,0,1,.09,1.12l-1.67,1.71a8.18,8.18,0,0,1,1,1.92,2.37,2.37,0,0,1-.25,1.71c-.3.52-.7,1.2-1.08,1.73A2.3,2.3,0,0,1,53.33,96.41Z"/><path class="cls-22" d="M54.7,91.17l-1.52,1.26L52.7,93.7,54,95.21a17.27,17.27,0,0,1,.81-3.07C55.19,91.6,55,91.33,54.7,91.17Z"/><path class="cls-23" d="M13,119.11l-3.23-8.39S1.6,116.12.2,123.06a19.09,19.09,0,0,1,7,2C7.83,121.73,13,119.11,13,119.11Z"/><path class="cls-24" d="M19.92,127.05s-9.1,5-12.12.63A3.42,3.42,0,0,1,7.2,125a19.09,19.09,0,0,0-7-2,9.61,9.61,0,0,0,1,6.59c5.26,9.84,19.92-.35,19.92-.35Z"/><path class="cls-25" d="M19.22,101.53l-2.82,7.92a.28.28,0,0,0,.13.35,6.46,6.46,0,0,0,6.7-.39,1.36,1.36,0,0,0,.63-1l1-6.87Z"/><path class="cls-26" d="M25.27,94.23s3,5.71,2.56,8-4.15,2.09-7.4.19l-2.22-6.15Z"/><path class="cls-27" d="M20.6,99.41a.23.23,0,0,0,.11-.34,6.1,6.1,0,0,1-.82-1.79s-.54-.35,1.39-.79,4.8-1.13,5.42-2.76-.91-5.62-3.4-2.45a.24.24,0,0,1-.37,0,2.41,2.41,0,0,0-2.93-1,2.21,2.21,0,0,0-1.54,2.12.23.23,0,0,1-.28.24A2.69,2.69,0,0,0,15,94.1c-.66,1.41-.25,2.21.13,2.61a.23.23,0,0,1-.11.38,1.41,1.41,0,0,0-1,1.6c.06,1.48,1.73,1.37,2.2,1.3a.25.25,0,0,1,.21.08c.4.45,2.21,2.37,4.18,2.62a.24.24,0,0,0,.25-.31l-.83-2.49a.23.23,0,0,1,.13-.29Z"/><path class="cls-28" d="M20.94,99.77s-2.13-1.5-2.3-.26,1.92,1.82,3,1.37Z"/><path class="cls-29" d="M18.06,135l5-17.32a.5.5,0,0,1,.43-.36c.9-.11,3.5-.4,6.51-.66a75,75,0,0,1,10.34-.34.51.51,0,0,1,.42.73c-1.43,2.89-7.31,14.65-10.26,18.51a.5.5,0,0,1-.41.2l-11.51-.11A.51.51,0,0,1,18.06,135Z"/><path class="cls-30" d="M19.26,130.82s-.69-2.84-.41-3.85.82-2.3,2.62-2a26.3,26.3,0,0,1,3.92,1,1,1,0,0,1-1.47.89l.84.66s-.12,1-1.27.49l.79.87a.93.93,0,0,1-1.35.31C22.08,128.66,21.67,131.16,19.26,130.82Z"/><path class="cls-31" d="M29.63,121.84a1.46,1.46,0,1,0,1.46-1.46A1.45,1.45,0,0,0,29.63,121.84Z"/><path class="cls-11" d="M23.58,122.79l-.37-.1,1-3.43a1.56,1.56,0,0,1,1.18-1.09c3.2-.67,11.63-.81,12-.81v.38c-.08,0-8.75.14-11.91.8a1.21,1.21,0,0,0-.89.83Z"/><circle class="cls-32" cx="167.7" cy="57.37" r="17.83" transform="translate(72.31 206.75) rotate(-76.33)"/><path class="cls-11" d="M175.35,52.4c-1.94-1.9-5-1.33-7,.42a.81.81,0,0,1-1,0c-2.11-1.71-5.12-2.23-7-.3a5.34,5.34,0,0,0,.07,7.54l7,6.91a.8.8,0,0,0,1.14,0l6.91-7A5.33,5.33,0,0,0,175.35,52.4Z"/><circle class="cls-33" cx="94.51" cy="49.63" r="15.91" transform="translate(21.72 127.71) rotate(-74.71)"/><path class="cls-11" d="M99,44.43c0,2.47-2,5.12-4.46,5.12s-4.46-2.65-4.46-5.12a4.47,4.47,0,0,1,8.92,0Z"/><path class="cls-11" d="M89,59H99.89a2.64,2.64,0,0,0,2.51-1.83l.58-1.83a2.62,2.62,0,0,0-1.59-3.27,20.29,20.29,0,0,0-13.7.15A2.62,2.62,0,0,0,86,55.43l.45,1.66A2.63,2.63,0,0,0,89,59Z"/><path class="cls-34" d="M53.36,122.6S64.89,153,68.53,159.35c4.23,7.34,16.59,2.66,16-3.49s-15-31.55-15-31.55Z"/><polygon class="cls-35" points="68.94 100.44 140.63 75.58 139.88 142.85 66.98 126.58 68.94 100.44"/><ellipse class="cls-36" cx="140.7" cy="109.41" rx="7.04" ry="34.57"/><path class="cls-37" d="M141.24,141.61c-.64-.64-2-3.14-3.22-9.6a131.75,131.75,0,0,1-1.78-22.8A131.71,131.71,0,0,1,138,86.42c1.19-6.46,2.58-9,3.22-9.6.63.64,2,3.14,3.21,9.6a131.71,131.71,0,0,1,1.78,22.79,131.75,131.75,0,0,1-1.78,22.8C143.26,138.47,141.87,141,141.24,141.61Z"/><g class="cls-38"><path class="cls-39" d="M150.26,109c0,5.87-3.16,10.63-9.42,10.63S129.5,114.83,129.5,109s5.07-10.64,11.34-10.64S150.26,103.08,150.26,109Z"/></g><path class="cls-40" d="M57.38,99a40.18,40.18,0,0,1,13.44.67,71.47,71.47,0,0,0,.53,28.09H56.6a4.79,4.79,0,0,1-4.73-4c-.73-4.66-1.63-12.48-.67-18.77A7.08,7.08,0,0,1,57.38,99Z"/><path class="cls-11" d="M66.23,105.88H54.74a1,1,0,0,1-.88-1.61.29.29,0,0,1,.41-.09.31.31,0,0,1,.09.41.44.44,0,0,0,0,.47.46.46,0,0,0,.4.23H66.23a.46.46,0,0,0,.46-.45V104a.47.47,0,0,0-.46-.46H54.65a.3.3,0,0,1,0-.59H66.23a1,1,0,0,1,1,1v.82A1,1,0,0,1,66.23,105.88Z"/><path class="cls-11" d="M65.2,111H53.71a1,1,0,0,1-.92-.54,1.05,1.05,0,0,1,0-1.07.3.3,0,0,1,.5.32.45.45,0,0,0,.38.7H65.2a.45.45,0,0,0,.46-.45v-.82a.46.46,0,0,0-.46-.46H53.63a.3.3,0,1,1,0-.59H65.2a1,1,0,0,1,1,1v.82A1,1,0,0,1,65.2,111Z"/><path class="cls-11" d="M79.36,98.62a.29.29,0,0,1-.28-.21.29.29,0,0,1,.19-.37l54.3-17.28a.3.3,0,0,1,.37.19.31.31,0,0,1-.19.38L79.45,98.6Z"/><path class="cls-11" d="M72,101.62a.31.31,0,0,1-.28-.18.3.3,0,0,1,.16-.39l2.8-1.14a.29.29,0,0,1,.38.16.3.3,0,0,1-.16.39l-2.79,1.14Z"/><path class="cls-11" d="M66.23,116.93H54.74a1,1,0,0,1-.88-1.61.29.29,0,0,1,.41-.09.31.31,0,0,1,.09.41.43.43,0,0,0,0,.46.45.45,0,0,0,.4.24H66.23a.46.46,0,0,0,.46-.45v-.82a.47.47,0,0,0-.46-.46H54.65a.3.3,0,0,1,0-.59H66.23a1,1,0,0,1,1,1v.82A1,1,0,0,1,66.23,116.93Z"/><path class="cls-11" d="M67.31,123.55H55.81a1.05,1.05,0,0,1-.88-1.62.3.3,0,0,1,.41-.09.3.3,0,0,1,.09.41.47.47,0,0,0,0,.47.45.45,0,0,0,.4.24h11.5a.46.46,0,0,0,.45-.46v-.82a.45.45,0,0,0-.45-.45H55.73a.31.31,0,0,1-.3-.3.3.3,0,0,1,.3-.29H67.31a1,1,0,0,1,1,1v.82A1,1,0,0,1,67.31,123.55Z"/><path class="cls-11" d="M77.57,159.52a7.27,7.27,0,0,1-1.6-.18,7.4,7.4,0,0,1-5.22-4.22l-9.18-20.4a.3.3,0,1,1,.54-.24l9.18,20.39a6.8,6.8,0,0,0,4.81,3.9A6.67,6.67,0,0,0,82,157.26l.26-.23a.29.29,0,0,1,.41,0,.3.3,0,0,1,0,.42l-.28.24A7.23,7.23,0,0,1,77.57,159.52Z"/><path class="cls-11" d="M60.48,131.88a.29.29,0,0,1-.27-.17l-1-2.28a.3.3,0,0,1,.54-.24l1,2.27a.29.29,0,0,1-.15.39A.24.24,0,0,1,60.48,131.88Z"/><path class="cls-11" d="M148.58,108.65a.29.29,0,0,1-.29-.27c-.2-2.88-1.2-5-3-6.38-3.05-2.34-7.4-1.54-7.45-1.53a.3.3,0,0,1-.11-.58c.19,0,4.66-.86,7.92,1.64,1.9,1.46,3,3.75,3.19,6.8a.29.29,0,0,1-.27.32Z"/><circle class="cls-41" cx="177.35" cy="109.73" r="17.57" transform="translate(26.65 253.88) rotate(-75.47)"/><path class="cls-11" d="M177.4,122.19h0a3.11,3.11,0,0,1-2.69-1.51c-3.24-5.35-7.1-12.4-7.1-15.59,0-5,4.39-9,9.79-9s9.79,4,9.79,9c0,3.19-3.87,10.24-7.1,15.59A3.12,3.12,0,0,1,177.4,122.19Zm0-24.88c-4.71,0-8.54,3.49-8.54,7.78,0,2.23,2.52,7.67,6.92,14.94a1.89,1.89,0,0,0,3.23,0c4.4-7.27,6.92-12.71,6.92-14.94C185.93,100.8,182.1,97.31,177.4,97.31Z"/><path class="cls-11" d="M176.64,111.4a6.08,6.08,0,0,1-6.07-6.07.63.63,0,1,1,1.25,0,4.81,4.81,0,1,0,1-2.88.61.61,0,0,1-.87.13.63.63,0,0,1-.13-.88,6.07,6.07,0,1,1,4.87,9.7Z"/><circle class="cls-42" cx="130.77" cy="24.44" r="17.57" transform="translate(73.34 144.44) rotate(-75.01)"/><g class="cls-43"><path class="cls-11" d="M131.09,34.5A10.54,10.54,0,1,1,141.62,24,10.55,10.55,0,0,1,131.09,34.5Zm0-19.31A8.77,8.77,0,1,0,139.86,24,8.77,8.77,0,0,0,131.09,15.19Z"/><path class="cls-44" d="M127.79,28V20.44a1,1,0,0,1,1.57-.9l6.39,3.79a1,1,0,0,1,0,1.8l-6.39,3.79A1,1,0,0,1,127.79,28Z"/></g></g></g></g></svg>