<svg xmlns="http://www.w3.org/2000/svg" xmlns:xlink="http://www.w3.org/1999/xlink" viewBox="0 0 195.88 196.69"><defs><style>.cls-1{isolation:isolate;}.cls-2{fill:#f4f7fa;}.cls-3{fill:#97a6b7;}.cls-4{fill:url(#linear-gradient);}.cls-30,.cls-5,.cls-8,.cls-87,.cls-9{fill:#fff;}.cls-39,.cls-6{fill:#d8dee8;}.cls-32,.cls-44,.cls-51,.cls-6,.cls-67,.cls-73,.cls-80,.cls-83{opacity:0.3;}.cls-32,.cls-44,.cls-51,.cls-6,.cls-67,.cls-73,.cls-80,.cls-83,.cls-99{mix-blend-mode:multiply;}.cls-7{fill:url(#linear-gradient-2);}.cls-8{opacity:0.6;}.cls-30,.cls-8,.cls-87,.cls-9{mix-blend-mode:soft-light;}.cls-9{opacity:0.36;}.cls-10{fill:url(#linear-gradient-3);}.cls-11,.cls-12,.cls-13,.cls-15,.cls-16,.cls-17,.cls-18,.cls-20,.cls-21,.cls-22,.cls-23,.cls-24,.cls-26,.cls-27,.cls-28{opacity:0.5;}.cls-11{fill:url(#linear-gradient-4);}.cls-12{fill:url(#linear-gradient-5);}.cls-13{fill:url(#linear-gradient-6);}.cls-14{fill:url(#linear-gradient-7);}.cls-15{fill:url(#linear-gradient-8);}.cls-16{fill:url(#linear-gradient-9);}.cls-17{fill:url(#linear-gradient-10);}.cls-18{fill:url(#linear-gradient-11);}.cls-19{fill:url(#linear-gradient-12);}.cls-20{fill:url(#linear-gradient-13);}.cls-21{fill:url(#linear-gradient-14);}.cls-22{fill:url(#linear-gradient-15);}.cls-23{fill:url(#linear-gradient-16);}.cls-24{fill:url(#linear-gradient-17);}.cls-25{fill:url(#linear-gradient-18);}.cls-26{fill:url(#linear-gradient-19);}.cls-27{fill:url(#linear-gradient-20);}.cls-28{fill:url(#linear-gradient-21);}.cls-29{fill:url(#linear-gradient-22);}.cls-31{fill:url(#linear-gradient-23);}.cls-32{fill:url(#linear-gradient-24);}.cls-33{fill:url(#linear-gradient-25);}.cls-34{fill:url(#linear-gradient-26);}.cls-35{fill:url(#linear-gradient-27);}.cls-36{fill:url(#linear-gradient-28);}.cls-37{fill:url(#linear-gradient-29);}.cls-38{fill:url(#linear-gradient-30);}.cls-40{fill:url(#linear-gradient-31);}.cls-41{fill:url(#linear-gradient-32);}.cls-42{fill:url(#linear-gradient-33);}.cls-43{fill:url(#linear-gradient-34);}.cls-45{fill:url(#linear-gradient-35);}.cls-46{fill:url(#linear-gradient-36);}.cls-47{fill:url(#linear-gradient-37);}.cls-48{fill:url(#linear-gradient-38);}.cls-49{fill:url(#linear-gradient-39);}.cls-50{fill:url(#linear-gradient-40);}.cls-51{fill:url(#linear-gradient-41);}.cls-52{fill:url(#linear-gradient-42);}.cls-53{fill:url(#linear-gradient-43);}.cls-54{fill:url(#linear-gradient-44);}.cls-55{fill:url(#linear-gradient-45);}.cls-56{fill:url(#linear-gradient-46);}.cls-57{fill:url(#linear-gradient-47);}.cls-58{fill:url(#linear-gradient-48);}.cls-59{fill:url(#linear-gradient-49);}.cls-60{fill:url(#linear-gradient-50);}.cls-61{fill:url(#linear-gradient-51);}.cls-62{fill:url(#linear-gradient-52);}.cls-63{fill:url(#linear-gradient-53);}.cls-64{fill:#26264f;}.cls-65{fill:url(#linear-gradient-54);}.cls-66{fill:url(#linear-gradient-55);}.cls-67{fill:url(#linear-gradient-56);}.cls-68{fill:url(#linear-gradient-57);}.cls-69{fill:url(#linear-gradient-58);}.cls-70{fill:url(#linear-gradient-59);}.cls-71{fill:url(#linear-gradient-60);}.cls-72{fill:url(#linear-gradient-61);}.cls-73{fill:url(#linear-gradient-62);}.cls-74{fill:url(#linear-gradient-63);}.cls-75{fill:url(#linear-gradient-64);}.cls-76{fill:url(#linear-gradient-65);}.cls-77{fill:url(#linear-gradient-66);}.cls-78{fill:url(#linear-gradient-67);}.cls-79{fill:url(#linear-gradient-68);}.cls-80{fill:url(#linear-gradient-69);}.cls-81{fill:url(#linear-gradient-70);}.cls-82{fill:url(#linear-gradient-71);}.cls-83{fill:url(#linear-gradient-72);}.cls-84{fill:url(#linear-gradient-73);}.cls-85{fill:url(#linear-gradient-74);}.cls-86{fill:url(#linear-gradient-75);}.cls-87{opacity:0.28;}.cls-88{fill:url(#linear-gradient-76);}.cls-89{fill:url(#linear-gradient-77);}.cls-90{fill:url(#linear-gradient-78);}.cls-91{fill:url(#linear-gradient-79);}.cls-92{fill:url(#linear-gradient-80);}.cls-93{fill:url(#linear-gradient-81);}.cls-94{fill:url(#linear-gradient-82);}.cls-95{fill:url(#linear-gradient-83);}.cls-96{fill:url(#linear-gradient-84);}.cls-97{fill:url(#linear-gradient-85);}.cls-98{fill:url(#linear-gradient-86);}.cls-99{opacity:0.2;}.cls-100{fill:url(#linear-gradient-87);}</style><linearGradient id="linear-gradient" x1="100.73" y1="217.85" x2="101.19" y2="178.82" gradientUnits="userSpaceOnUse"><stop offset="0.49" stop-color="#ebeff2"/><stop offset="1" stop-color="#fff"/></linearGradient><linearGradient id="linear-gradient-2" x1="81.43" y1="91.91" x2="157.01" y2="230.53" gradientUnits="userSpaceOnUse"><stop offset="0" stop-color="#444b8c"/><stop offset="1" stop-color="#26264f"/></linearGradient><linearGradient id="linear-gradient-3" x1="92.7" y1="51.32" x2="106.27" y2="134.01" gradientUnits="userSpaceOnUse"><stop offset="0" stop-color="#e38ddd"/><stop offset="1" stop-color="#9571f6"/></linearGradient><linearGradient id="linear-gradient-4" x1="85.64" y1="75.41" x2="117.45" y2="75.41" gradientUnits="userSpaceOnUse"><stop offset="0" stop-color="#ff9085"/><stop offset="1" stop-color="#fb6fbb"/></linearGradient><linearGradient id="linear-gradient-5" x1="85.64" y1="78.55" x2="117.45" y2="78.55" xlink:href="#linear-gradient-4"/><linearGradient id="linear-gradient-6" x1="80.05" y1="87.81" x2="102.66" y2="87.81" xlink:href="#linear-gradient-4"/><linearGradient id="linear-gradient-7" x1="92.99" y1="51.37" x2="105.4" y2="127.03" xlink:href="#linear-gradient-3"/><linearGradient id="linear-gradient-8" x1="72.66" y1="68.6" x2="95.25" y2="68.6" xlink:href="#linear-gradient-4"/><linearGradient id="linear-gradient-9" x1="85.64" y1="138.09" x2="117.45" y2="138.09" xlink:href="#linear-gradient-4"/><linearGradient id="linear-gradient-10" x1="85.64" y1="141.23" x2="117.45" y2="141.23" xlink:href="#linear-gradient-4"/><linearGradient id="linear-gradient-11" x1="100.17" y1="143.82" x2="131.16" y2="143.82" xlink:href="#linear-gradient-4"/><linearGradient id="linear-gradient-12" x1="102.63" y1="67.47" x2="112.33" y2="126.57" xlink:href="#linear-gradient-3"/><linearGradient id="linear-gradient-13" x1="72.66" y1="132.29" x2="95.25" y2="132.29" xlink:href="#linear-gradient-4"/><linearGradient id="linear-gradient-14" x1="80.05" y1="100.46" x2="112.18" y2="100.46" xlink:href="#linear-gradient-4"/><linearGradient id="linear-gradient-15" x1="85.64" y1="106.77" x2="117.45" y2="106.77" xlink:href="#linear-gradient-4"/><linearGradient id="linear-gradient-16" x1="85.64" y1="109.9" x2="117.45" y2="109.9" xlink:href="#linear-gradient-4"/><linearGradient id="linear-gradient-17" x1="72.72" y1="113.2" x2="93.1" y2="113.2" xlink:href="#linear-gradient-4"/><linearGradient id="linear-gradient-18" x1="89.69" y1="56.38" x2="100.96" y2="125.06" xlink:href="#linear-gradient-3"/><linearGradient id="linear-gradient-19" x1="85.64" y1="122.46" x2="114.4" y2="122.46" xlink:href="#linear-gradient-4"/><linearGradient id="linear-gradient-20" x1="92.36" y1="125.46" x2="120.77" y2="125.46" xlink:href="#linear-gradient-4"/><linearGradient id="linear-gradient-21" x1="92.36" y1="128.58" x2="120.77" y2="128.58" xlink:href="#linear-gradient-4"/><linearGradient id="linear-gradient-22" x1="76.76" y1="53.42" x2="89.25" y2="129.53" xlink:href="#linear-gradient-3"/><linearGradient id="linear-gradient-23" x1="-421.06" y1="42.95" x2="-395.96" y2="104.36" gradientTransform="matrix(-0.99, -0.15, -0.15, 0.99, -216.06, -84.9)" gradientUnits="userSpaceOnUse"><stop offset="0" stop-color="#aa80f9"/><stop offset="1" stop-color="#6165d7"/></linearGradient><linearGradient id="linear-gradient-24" x1="-400.26" y1="115.19" x2="-399.3" y2="88.42" xlink:href="#linear-gradient-23"/><linearGradient id="linear-gradient-25" x1="-3247.61" y1="-1435.21" x2="-3251.99" y2="-1402.54" gradientTransform="matrix(-0.78, -0.63, -0.63, 0.78, -3246.62, -880.22)" xlink:href="#linear-gradient-23"/><linearGradient id="linear-gradient-26" x1="-3248.23" y1="-1444.46" x2="-3253.95" y2="-1371.8" gradientTransform="matrix(-0.78, -0.63, -0.63, 0.78, -3246.62, -880.22)" xlink:href="#linear-gradient-23"/><linearGradient id="linear-gradient-27" x1="-416.73" y1="121.15" x2="-412.53" y2="81.91" gradientTransform="matrix(-0.99, -0.15, -0.15, 0.99, -216.06, -84.9)" gradientUnits="userSpaceOnUse"><stop offset="0" stop-color="#ffc444"/><stop offset="1" stop-color="#f36f56"/></linearGradient><linearGradient id="linear-gradient-28" x1="4102.21" y1="746.57" x2="4104.72" y2="723.05" gradientTransform="translate(-3842.48 -986.01) rotate(5.03)" xlink:href="#linear-gradient-27"/><linearGradient id="linear-gradient-29" x1="1650.06" y1="100.11" x2="1631.11" y2="190.98" gradientTransform="matrix(-1, 0, 0, 1, 1801, 0)" xlink:href="#linear-gradient-4"/><linearGradient id="linear-gradient-30" x1="-2891.83" y1="260.11" x2="-2886.16" y2="260.11" gradientTransform="matrix(1, 0.03, -0.03, 1, 3059.45, 18.86)" gradientUnits="userSpaceOnUse"><stop offset="0" stop-color="#311944"/><stop offset="1" stop-color="#893976"/></linearGradient><linearGradient id="linear-gradient-31" x1="-2338.17" y1="746.1" x2="-2332.14" y2="746.1" gradientTransform="matrix(0.96, 0.27, -0.27, 0.96, 2595.09, 94.18)" xlink:href="#linear-gradient-30"/><linearGradient id="linear-gradient-32" x1="1656.18" y1="183.91" x2="1640.1" y2="147.65" gradientTransform="matrix(-1, 0, 0, 1, 1801, 0)" xlink:href="#linear-gradient-30"/><linearGradient id="linear-gradient-33" x1="1315.46" y1="470.68" x2="1299.37" y2="434.43" gradientTransform="matrix(-0.99, -0.12, -0.12, 0.99, 1515.97, -120.38)" xlink:href="#linear-gradient-30"/><linearGradient id="linear-gradient-34" x1="1643.5" y1="98.74" x2="1624.54" y2="189.61" gradientTransform="matrix(-1, 0, 0, 1, 1801, 0)" xlink:href="#linear-gradient-4"/><linearGradient id="linear-gradient-35" x1="1627.2" y1="176.46" x2="1634.39" y2="142.29" gradientTransform="matrix(-1, 0, 0, 1, 1801, 0)" xlink:href="#linear-gradient-4"/><linearGradient id="linear-gradient-36" x1="1630.51" y1="96.03" x2="1611.56" y2="186.9" gradientTransform="matrix(-1, 0, 0, 1, 1801, 0)" xlink:href="#linear-gradient-4"/><linearGradient id="linear-gradient-37" x1="1646.67" y1="146.76" x2="1643.61" y2="138.08" gradientTransform="matrix(-1, 0, 0, 1, 1801, 0)" xlink:href="#linear-gradient-3"/><linearGradient id="linear-gradient-38" x1="1633.27" y1="134.17" x2="1634.4" y2="141.94" gradientTransform="matrix(-1, 0, 0, 1, 1801, 0)" xlink:href="#linear-gradient-3"/><linearGradient id="linear-gradient-39" x1="1655.56" y1="134.86" x2="1649.58" y2="126.36" gradientTransform="matrix(-1, 0, 0, 1, 1801, 0)" xlink:href="#linear-gradient-3"/><linearGradient id="linear-gradient-40" x1="1644.09" y1="148.91" x2="1657.17" y2="122.33" gradientTransform="matrix(-1, 0, 0, 1, 1801, 0)" xlink:href="#linear-gradient-3"/><linearGradient id="linear-gradient-41" x1="1637.69" y1="131.85" x2="1666.44" y2="131.85" gradientTransform="matrix(-1, 0, 0, 1, 1801, 0)" xlink:href="#linear-gradient-3"/><linearGradient id="linear-gradient-42" x1="-3102.84" y1="-45.63" x2="-3107.13" y2="-56.53" gradientTransform="translate(3271.08 169.42) rotate(0.21)" gradientUnits="userSpaceOnUse"><stop offset="0" stop-color="#311944"/><stop offset="1" stop-color="#6b3976"/></linearGradient><linearGradient id="linear-gradient-43" x1="-3104.15" y1="-45.11" x2="-3108.45" y2="-56.02" xlink:href="#linear-gradient-42"/><linearGradient id="linear-gradient-44" x1="-1051.83" y1="137.08" x2="-1045.9" y2="113.34" gradientTransform="matrix(-1, 0, 0, 1, -1018.17, 0)" gradientUnits="userSpaceOnUse"><stop offset="0" stop-color="#6165d7"/><stop offset="1" stop-color="#aa80f9"/></linearGradient><linearGradient id="linear-gradient-45" x1="-1195.23" y1="81.92" x2="-1192.42" y2="84.43" gradientTransform="matrix(-0.99, -0.14, -0.14, 0.99, -1144.06, -56.37)" xlink:href="#linear-gradient-2"/><linearGradient id="linear-gradient-46" x1="-2117.79" y1="84.41" x2="-2117.79" y2="79.51" gradientTransform="matrix(-0.99, -0.14, -0.14, 0.99, -2060.26, -185.89)" xlink:href="#linear-gradient-27"/><linearGradient id="linear-gradient-47" x1="-1194.95" y1="81.61" x2="-1192.13" y2="84.11" gradientTransform="matrix(-0.99, -0.14, -0.14, 0.99, -1144.06, -56.37)" xlink:href="#linear-gradient-2"/><linearGradient id="linear-gradient-48" x1="-1066.1" y1="193.64" x2="-1063.28" y2="196.14" gradientTransform="matrix(-1, 0, 0, 1, -1018.17, 0)" xlink:href="#linear-gradient-2"/><linearGradient id="linear-gradient-49" x1="-1988.69" y1="196.15" x2="-1988.69" y2="191.24" gradientTransform="matrix(-1, 0, 0, 1, -1943.48, 0)" xlink:href="#linear-gradient-27"/><linearGradient id="linear-gradient-50" x1="-176.25" y1="198.4" x2="-194.61" y2="124.26" gradientTransform="translate(221.69)" xlink:href="#linear-gradient-2"/><linearGradient id="linear-gradient-51" x1="60.34" y1="143.13" x2="13.91" y2="110.84" gradientTransform="matrix(1, 0, 0, 1, 0, 0)" xlink:href="#linear-gradient-44"/><linearGradient id="linear-gradient-52" x1="-1065.81" y1="193.32" x2="-1063" y2="195.83" gradientTransform="matrix(-1, 0, 0, 1, -1018.17, 0)" xlink:href="#linear-gradient-2"/><linearGradient id="linear-gradient-53" x1="-977.2" y1="33.17" x2="-961.95" y2="52.36" gradientTransform="matrix(-1, 0.07, 0.07, 1, -932.25, 138.82)" xlink:href="#linear-gradient-27"/><linearGradient id="linear-gradient-54" x1="-976.56" y1="32.66" x2="-961.31" y2="51.85" gradientTransform="matrix(-1, 0.07, 0.07, 1, -932.25, 138.82)" xlink:href="#linear-gradient-27"/><linearGradient id="linear-gradient-55" x1="28.17" y1="131.96" x2="30.97" y2="131.96" gradientTransform="matrix(1, 0, 0, 1, 0, 0)" xlink:href="#linear-gradient-44"/><linearGradient id="linear-gradient-56" x1="30.18" y1="136.31" x2="51.31" y2="136.31" gradientTransform="matrix(1, 0, 0, 1, 0, 0)" xlink:href="#linear-gradient-44"/><linearGradient id="linear-gradient-57" x1="67.62" y1="122.05" x2="71.84" y2="127.35" gradientTransform="matrix(1, 0, 0, 1, 0, 0)" xlink:href="#linear-gradient-27"/><linearGradient id="linear-gradient-58" x1="-1039.24" y1="145.7" x2="-1083.61" y2="114.84" xlink:href="#linear-gradient-44"/><linearGradient id="linear-gradient-59" x1="-4822.74" y1="46.99" x2="-4811.1" y2="46.99" gradientTransform="translate(4938.56)" xlink:href="#linear-gradient-27"/><linearGradient id="linear-gradient-60" x1="-3841.19" y1="68.84" x2="-3818.62" y2="68.84" gradientTransform="translate(3936.97)" xlink:href="#linear-gradient-23"/><linearGradient id="linear-gradient-61" x1="3294.14" y1="-953.13" x2="3295.12" y2="-935.58" gradientTransform="matrix(-0.96, 0.29, 0.29, 0.96, 3544.14, 44.25)" xlink:href="#linear-gradient-3"/><linearGradient id="linear-gradient-62" x1="-3830.58" y1="69.69" x2="-3808.02" y2="69.69" gradientTransform="translate(3936.97)" xlink:href="#linear-gradient-23"/><linearGradient id="linear-gradient-63" x1="116.41" y1="99.16" x2="117.88" y2="99.16" gradientUnits="userSpaceOnUse"><stop offset="0" stop-color="#311944"/><stop offset="1" stop-color="#a03976"/></linearGradient><linearGradient id="linear-gradient-64" x1="-3829.14" y1="54.83" x2="-3808.91" y2="79.41" gradientTransform="translate(3936.97)" xlink:href="#linear-gradient-23"/><linearGradient id="linear-gradient-65" x1="-3765.13" y1="-106.25" x2="-3791.89" y2="-83.85" gradientTransform="translate(3929.92 -64.53) rotate(-2.92)" xlink:href="#linear-gradient-2"/><linearGradient id="linear-gradient-66" x1="175.71" y1="55.56" x2="197.44" y2="36.02" gradientTransform="matrix(-1, 0, 0, 1, 318.41, 0)" xlink:href="#linear-gradient-27"/><linearGradient id="linear-gradient-67" x1="128.81" y1="33.13" x2="136.47" y2="33.13" xlink:href="#linear-gradient-63"/><linearGradient id="linear-gradient-68" x1="129.78" y1="52.99" x2="129.62" y2="37.87" xlink:href="#linear-gradient-63"/><linearGradient id="linear-gradient-69" x1="176.42" y1="56.35" x2="198.15" y2="36.82" gradientTransform="matrix(-1, 0, 0, 1, 318.41, 0)" xlink:href="#linear-gradient-27"/><linearGradient id="linear-gradient-70" x1="183.58" y1="59.45" x2="203.35" y2="59.45" gradientTransform="matrix(-1, 0, 0, 1, 318.41, 0)" xlink:href="#linear-gradient-3"/><linearGradient id="linear-gradient-71" x1="192.98" y1="54.26" x2="220.11" y2="54.26" gradientTransform="matrix(-1, 0, 0, 1, 318.41, 0)" xlink:href="#linear-gradient-3"/><linearGradient id="linear-gradient-72" x1="-1989.11" y1="47.07" x2="-1976.15" y2="59.92" gradientTransform="translate(2093.74)" xlink:href="#linear-gradient-3"/><linearGradient id="linear-gradient-73" x1="184.71" y1="55.41" x2="168.12" y2="39.09" gradientTransform="matrix(-1, 0, 0, 1, 318.41, 0)" xlink:href="#linear-gradient-27"/><linearGradient id="linear-gradient-74" x1="125.13" y1="57.33" x2="130.8" y2="57.33" xlink:href="#linear-gradient-63"/><linearGradient id="linear-gradient-75" x1="-2223.48" y1="168.74" x2="-2241.86" y2="190.6" gradientTransform="matrix(-1, 0, 0, 1, -2152.72, 0)" xlink:href="#linear-gradient-3"/><linearGradient id="linear-gradient-76" x1="-2115.25" y1="186.93" x2="-2116.7" y2="173.69" gradientTransform="matrix(-1, 0.05, 0.05, 1, -2049.78, 118.7)" xlink:href="#linear-gradient-23"/><linearGradient id="linear-gradient-77" x1="69.87" y1="16.16" x2="91.4" y2="21.24" gradientTransform="matrix(1, 0, 0, 1, 0, 0)" xlink:href="#linear-gradient-30"/><linearGradient id="linear-gradient-78" x1="-3861.74" y1="10.31" x2="-3843.28" y2="44.54" gradientTransform="matrix(-1, 0, 0, 1, -3773.93, 0)" xlink:href="#linear-gradient-3"/><linearGradient id="linear-gradient-79" x1="-3867.15" y1="12.57" x2="-3849.06" y2="48.87" gradientTransform="matrix(-1, 0, 0, 1, -3773.93, 0)" xlink:href="#linear-gradient-3"/><linearGradient id="linear-gradient-80" x1="84.39" y1="20.64" x2="47.6" y2="42.65" gradientTransform="matrix(1, 0, 0, 1, 0, 0)" xlink:href="#linear-gradient-30"/><linearGradient id="linear-gradient-81" x1="-3831.13" y1="28.92" x2="-3810.59" y2="67.01" gradientTransform="matrix(-1, 0, 0, 1, -3773.93, 0)" xlink:href="#linear-gradient-4"/><linearGradient id="linear-gradient-82" x1="-3837.15" y1="31.44" x2="-3817.02" y2="71.83" gradientTransform="matrix(-1, 0, 0, 1, -3773.93, 0)" xlink:href="#linear-gradient-4"/><linearGradient id="linear-gradient-83" x1="67.24" y1="58.64" x2="88.77" y2="63.73" gradientTransform="matrix(1, 0, 0, 1, 0, 0)" xlink:href="#linear-gradient-27"/><linearGradient id="linear-gradient-84" x1="-3859.12" y1="52.8" x2="-3840.66" y2="87.03" gradientTransform="matrix(-1, 0, 0, 1, -3773.93, 0)" xlink:href="#linear-gradient-27"/><linearGradient id="linear-gradient-85" x1="-3864.53" y1="55.06" x2="-3846.44" y2="91.36" gradientTransform="matrix(-1, 0, 0, 1, -3773.93, 0)" xlink:href="#linear-gradient-27"/><linearGradient id="linear-gradient-86" x1="60.82" y1="89.52" x2="62.8" y2="147.4" xlink:href="#linear-gradient-3"/><linearGradient id="linear-gradient-87" x1="-1817.36" y1="87.56" x2="-1791.3" y2="121.88" gradientTransform="matrix(-1, 0, 0, 1, -1745.28, 0)" xlink:href="#linear-gradient-3"/></defs><g class="cls-1"><g id="Layer_2" data-name="Layer 2"><g id="Layer_1-2" data-name="Layer 1"><path class="cls-2" d="M96.88,0C48.78-1.42,7.11,34.48.81,81.58c-6.88,51.49,31,97.83,77.62,105.25,58,9.23,114.22-44.17,109.17-102.1C183.79,41.08,145.78,1.53,96.88,0Z"/><path class="cls-3" d="M117.48,184.33a7.55,7.55,0,0,1-5-5.69l-3.73-18.45-31.88,1.13-3.93,19.22c-.55,2.69,1.65,5.39,4.19,6.38l13.34,5.22a17.31,17.31,0,0,0,7.8,1.13l28.19-2.41a1.75,1.75,0,0,0,1.58-1.55c.1-.83.67-1.76-.11-2Z"/><path class="cls-4" d="M117.79,183.21a7.51,7.51,0,0,1-5-5.62l-3.72-18.22L78,160.49l-3.92,19a5.55,5.55,0,0,0,3.43,6.3l13.33,5.15A17.54,17.54,0,0,0,98.58,192l28.17-2.38a1.74,1.74,0,0,0,.39-3.38Z"/><path class="cls-3" d="M11.69,172.45c-3.45.21-6.28-2-6.28-5V60.6c0-3,2.83-5.25,6.28-5.1L172.3,66.62c2.53.11,3.9-1.94,3.9.58v90.87a4.94,4.94,0,0,1-4.6,4.85Z"/><path class="cls-5" d="M13.13,172.45c-3.46.21-6.29-2-6.29-5V60.6c0-3,2.83-5.25,6.29-5.1L173,62.43a4.83,4.83,0,0,1,4.59,4.77v90.87a4.93,4.93,0,0,1-4.59,4.85Z"/><path class="cls-6" d="M173,64.57,13.13,58a3,3,0,0,0-3.35,2.73V167.29A2.93,2.93,0,0,0,13.13,170L173,160.78a2.63,2.63,0,0,0,2.46-2.59V67.12A2.57,2.57,0,0,0,173,64.57Z"/><path class="cls-7" d="M171.85,153.09l-157,7.75a2.65,2.65,0,0,1-3-2.43V62.12a2.68,2.68,0,0,1,3-2.47l157,5.82a2.34,2.34,0,0,1,2.23,2.31v83A2.37,2.37,0,0,1,171.85,153.09Z"/><polygon class="cls-8" points="54.03 69.82 18.17 68.76 18.17 65.34 54.03 66.5 54.03 69.82"/><polygon class="cls-9" points="70.91 69.37 62.63 69.12 62.63 66.78 70.91 67.05 70.91 69.37"/><polygon class="cls-9" points="70.91 72.59 62.63 72.36 62.63 70.03 70.91 70.27 70.91 72.59"/><polygon class="cls-10" points="112.19 73.72 80.05 72.84 80.05 70.54 112.19 71.48 112.19 73.72"/><polygon class="cls-11" points="117.45 76.95 85.64 76.17 85.64 73.88 117.45 74.73 117.45 76.95"/><polygon class="cls-12" points="117.45 80.03 85.64 79.35 85.64 77.06 117.45 77.81 117.45 80.03"/><polygon class="cls-8" points="117.45 83.12 85.64 82.53 85.64 80.24 117.45 80.9 117.45 83.12"/><polygon class="cls-9" points="70.91 75.81 62.63 75.61 62.63 73.27 70.91 73.49 70.91 75.81"/><polygon class="cls-9" points="70.91 79.03 62.63 78.85 62.63 76.52 70.91 76.71 70.91 79.03"/><polygon class="cls-9" points="70.91 82.25 62.63 82.09 62.63 79.76 70.91 79.93 70.91 82.25"/><polygon class="cls-9" points="70.91 85.47 62.63 85.34 62.63 83 70.91 83.15 70.91 85.47"/><polygon class="cls-8" points="93.1 85.82 72.72 85.5 72.72 83.19 93.1 83.55 93.1 85.82"/><polygon class="cls-9" points="70.91 88.69 62.63 88.58 62.63 86.25 70.91 86.37 70.91 88.69"/><polygon class="cls-9" points="70.91 91.91 62.63 91.83 62.63 89.49 70.91 89.59 70.91 91.91"/><polygon class="cls-9" points="70.91 95.13 62.63 95.08 62.63 92.74 70.91 92.82 70.91 95.13"/><polygon class="cls-13" points="102.66 89.1 80.05 88.81 80.05 86.51 102.66 86.85 102.66 89.1"/><polygon class="cls-8" points="114.4 92.35 85.64 92.06 85.64 89.77 114.4 90.12 114.4 92.35"/><polygon class="cls-14" points="114.4 95.44 85.64 95.24 85.64 92.95 114.4 93.22 114.4 95.44"/><polygon class="cls-9" points="70.91 98.36 62.63 98.32 62.63 95.98 70.91 96.04 70.91 98.36"/><polygon class="cls-9" points="70.91 101.58 62.63 101.56 62.63 99.23 70.91 99.26 70.91 101.58"/><polygon class="cls-9" points="70.91 104.8 62.63 104.81 62.63 102.47 70.91 102.48 70.91 104.8"/><polygon class="cls-9" points="70.91 108.02 62.63 108.05 62.63 105.72 70.91 105.7 70.91 108.02"/><polygon class="cls-9" points="70.91 111.24 62.63 111.3 62.63 108.96 70.91 108.92 70.91 111.24"/><polygon class="cls-9" points="70.91 114.46 62.63 114.54 62.63 112.21 70.91 112.14 70.91 114.46"/><polygon class="cls-9" points="70.91 117.68 62.63 117.79 62.63 115.45 70.91 115.36 70.91 117.68"/><polygon class="cls-9" points="70.91 120.9 62.63 121.03 62.63 118.7 70.91 118.58 70.91 120.9"/><polygon class="cls-9" points="70.91 124.12 62.63 124.28 62.63 121.94 70.91 121.8 70.91 124.12"/><polygon class="cls-9" points="70.91 127.34 62.63 127.52 62.63 125.19 70.91 125.02 70.91 127.34"/><polygon class="cls-9" points="70.91 130.56 62.63 130.77 62.63 128.43 70.91 128.25 70.91 130.56"/><polygon class="cls-9" points="70.91 133.78 62.63 134.01 62.63 131.68 70.91 131.47 70.91 133.78"/><polygon class="cls-9" points="70.91 137 62.63 137.26 62.63 134.92 70.91 134.69 70.91 137"/><polygon class="cls-9" points="70.91 140.23 62.63 140.5 62.63 138.17 70.91 137.91 70.91 140.23"/><polygon class="cls-9" points="70.91 143.45 62.63 143.75 62.63 141.41 70.91 141.13 70.91 143.45"/><polygon class="cls-9" points="70.91 146.67 62.63 146.99 62.63 144.66 70.91 144.35 70.91 146.67"/><polygon class="cls-9" points="70.91 149.89 62.63 150.24 62.63 147.9 70.91 147.57 70.91 149.89"/><polygon class="cls-9" points="70.91 153.11 62.63 153.48 62.63 151.15 70.91 150.79 70.91 153.11"/><polygon class="cls-15" points="95.25 70.1 72.66 69.42 72.66 67.11 95.25 67.84 95.25 70.1"/><polygon class="cls-8" points="112.19 135.75 80.05 136.73 80.05 134.43 112.19 133.52 112.19 135.75"/><polygon class="cls-16" points="117.45 138.67 85.64 139.73 85.64 137.45 117.45 136.45 117.45 138.67"/><polygon class="cls-17" points="117.45 141.76 85.64 142.91 85.64 140.63 117.45 139.54 117.45 141.76"/><polygon class="cls-18" points="131.16 144.31 100.17 145.52 100.17 143.26 131.16 142.12 131.16 144.31"/><polygon class="cls-19" points="131.16 147.36 100.17 148.66 100.17 146.4 131.16 145.16 131.16 147.36"/><polygon class="cls-8" points="131.16 150.4 100.17 151.79 100.17 149.54 131.16 148.21 131.16 150.4"/><polygon class="cls-20" points="95.25 133.11 72.66 133.74 72.66 131.42 95.25 130.85 95.25 133.11"/><polygon class="cls-21" points="112.19 101.63 80.05 101.59 80.05 99.29 112.19 99.4 112.19 101.63"/><polygon class="cls-8" points="117.45 104.72 85.64 104.77 85.64 102.49 117.45 102.5 117.45 104.72"/><polygon class="cls-22" points="117.45 107.81 85.64 107.95 85.64 105.66 117.45 105.59 117.45 107.81"/><polygon class="cls-23" points="117.45 110.9 85.64 111.13 85.64 108.84 117.45 108.68 117.45 110.9"/><polygon class="cls-24" points="93.1 114.23 72.72 114.44 72.72 112.13 93.1 111.96 93.1 114.23"/><polygon class="cls-8" points="102.66 117.26 80.05 117.56 80.05 115.26 102.66 115.01 102.66 117.26"/><polygon class="cls-25" points="114.4 120.2 85.64 120.67 85.64 118.38 114.4 117.98 114.4 120.2"/><polygon class="cls-26" points="114.4 123.3 85.64 123.84 85.64 121.56 114.4 121.07 114.4 123.3"/><polygon class="cls-27" points="120.77 126.26 92.36 126.88 92.36 124.6 120.77 124.04 120.77 126.26"/><polygon class="cls-28" points="120.77 129.33 92.36 130.03 92.36 127.76 120.77 127.12 120.77 129.33"/><polygon class="cls-29" points="95.25 98.46 72.66 98.36 72.66 96.05 95.25 96.19 95.25 98.46"/><polygon class="cls-30" points="54.03 74.99 33.51 74.48 33.51 71.11 54.03 71.68 54.03 74.99"/><polygon class="cls-8" points="28.2 74.35 32.06 74.45 32.06 71.07 28.2 70.96 28.2 74.35"/><polygon class="cls-8" points="54.03 79.76 33.51 79.33 33.51 75.96 54.03 76.44 54.03 79.76"/><polygon class="cls-8" points="28.2 79.22 32.06 79.3 32.06 75.92 28.2 75.83 28.2 79.22"/><polygon class="cls-8" points="54.03 84.52 33.51 84.18 33.51 80.81 54.03 81.2 54.03 84.52"/><polygon class="cls-8" points="28.2 84.09 32.06 84.16 32.06 80.78 28.2 80.71 28.2 84.09"/><polygon class="cls-30" points="54.03 118.33 18.17 118.81 18.17 115.39 54.03 115.01 54.03 118.33"/><polygon class="cls-8" points="54.03 123.5 33.51 123.87 33.51 120.5 54.03 120.19 54.03 123.5"/><polygon class="cls-8" points="28.2 123.97 32.06 123.9 32.06 120.52 28.2 120.58 28.2 123.97"/><polygon class="cls-8" points="54.03 128.27 33.51 128.72 33.51 125.35 54.03 124.95 54.03 128.27"/><polygon class="cls-8" points="28.2 128.84 32.06 128.75 32.06 125.38 28.2 125.45 28.2 128.84"/><polygon class="cls-8" points="54.03 133.03 33.51 133.57 33.51 130.2 54.03 129.72 54.03 133.03"/><polygon class="cls-8" points="28.2 133.71 32.06 133.61 32.06 130.23 28.2 130.32 28.2 133.71"/><polygon class="cls-30" points="54.03 89.31 18.17 88.88 18.17 85.46 54.03 86 54.03 89.31"/><polygon class="cls-8" points="54.03 94.49 33.51 94.33 33.51 90.96 54.03 91.18 54.03 94.49"/><polygon class="cls-8" points="28.2 94.29 32.06 94.32 32.06 90.95 28.2 90.91 28.2 94.29"/><polygon class="cls-8" points="54.03 99.25 33.51 99.18 33.51 95.81 54.03 95.94 54.03 99.25"/><polygon class="cls-8" points="28.2 99.17 32.06 99.18 32.06 95.8 28.2 95.78 28.2 99.17"/><polygon class="cls-8" points="54.03 108.84 33.51 108.94 33.51 105.57 54.03 105.53 54.03 108.84"/><polygon class="cls-8" points="28.2 108.97 32.06 108.95 32.06 105.58 28.2 105.58 28.2 108.97"/><polygon class="cls-8" points="54.03 113.6 33.51 113.8 33.51 110.42 54.03 110.29 54.03 113.6"/><polygon class="cls-8" points="28.2 113.84 32.06 113.81 32.06 110.43 28.2 110.45 28.2 113.84"/><polygon class="cls-8" points="54.03 104.02 33.51 104.03 33.51 100.66 54.03 100.7 54.03 104.02"/><polygon class="cls-8" points="28.2 104.04 32.06 104.03 32.06 100.66 28.2 100.65 28.2 104.04"/><polygon class="cls-30" points="54.03 137.79 18.17 138.89 18.17 135.47 54.03 134.48 54.03 137.79"/><polygon class="cls-8" points="54.03 142.97 33.51 143.69 33.51 140.32 54.03 139.65 54.03 142.97"/><polygon class="cls-8" points="28.2 143.88 32.06 143.74 32.06 140.36 28.2 140.49 28.2 143.88"/><polygon class="cls-8" points="54.03 147.73 33.51 148.54 33.51 145.17 54.03 144.42 54.03 147.73"/><polygon class="cls-8" points="28.2 148.75 32.06 148.6 32.06 145.22 28.2 145.36 28.2 148.75"/><polygon class="cls-8" points="54.03 152.49 33.51 153.39 33.51 150.02 54.03 149.18 54.03 152.49"/><polygon class="cls-8" points="28.2 153.62 32.06 153.45 32.06 150.07 28.2 150.23 28.2 153.62"/><polygon class="cls-8" points="58.38 152.32 57.59 152.35 57.59 66.62 58.38 66.64 58.38 152.32"/><path class="cls-8" d="M156.35,156.3c-34.81.73-42.64,5.7-52.53-.25-13.59-8.19-7.41-22.74-20.65-30.38-16.65-9.6-35.84,8-44.53-.59s7.69-28.63-1.77-51A44.85,44.85,0,0,0,22.14,55.89l-9-.39c-3.46-.15-6.29,2.14-6.29,5.1V167.45c0,3,2.83,5.21,6.29,5L173,162.92a4.93,4.93,0,0,0,4.59-4.85v-1.61C172.84,156.29,165.42,156.11,156.35,156.3Z"/><path class="cls-31" d="M152,83.55c8.56,7.76,19.45,9.81,24.94,4.88h0l0,0c.22-.2.44-.41.64-.63a10.13,10.13,0,0,0,.72-.9L185,79.4l1.37-1.56-9.93-8.73a33,33,0,0,0-13.29-11.7l-10-8.74-7.77,9.7-.09.09a8.68,8.68,0,0,0-.79,1,9.05,9.05,0,0,0-1,1.79C141.06,67.39,144.35,76.62,152,83.55Z"/><path class="cls-32" d="M151.93,83.61a27.45,27.45,0,0,0,7.77,5.31c2.92,1.29,7,2.47,10.27,2.2,5.37-.45,7.9-3.85,11.18-7.51,1.27-1.4,2.63-2.73,3.81-4.21-3.11-.4-7.16.62-10.08,1.65-2.53.89-4.93,2.34-7.61,2.73-5.9.88-12.21-2.78-15.16-7.8-1.8-3.07-1.09-7-3.4-9.9-1.5-1.83-3.82-2.84-5.16-4.81.24.35-.6,2.86-.66,3.4a14.62,14.62,0,0,0,0,3.68,21.28,21.28,0,0,0,3.13,8A36.44,36.44,0,0,0,151.93,83.61Z"/><polygon class="cls-33" points="145.49 41.94 179.98 49.66 194.82 81.75 195.78 82.51 195.45 82.92 195.45 82.92 159.58 74.91 144.16 41.55 144.16 41.55 144.49 41.13 145.49 41.94"/><polygon class="cls-34" points="180.44 49.09 195.88 82.47 160 74.44 144.56 41.06 180.44 49.09"/><path class="cls-35" d="M181.9,99.05a.53.53,0,0,0,.59-.41l3.9-17.74a.53.53,0,0,0-.08-.41L171.5,59.25a.52.52,0,0,0-.86.6L185.32,80.9l-3.85,17.52a.52.52,0,0,0,.4.62Z"/><path class="cls-36" d="M183.1,98.21l-.31-.69a.78.78,0,0,0-.67-.46.77.77,0,0,0-.72.36l-.37.66a1.15,1.15,0,0,0-.13.53l-.51,5.78c0,.12.47.27,1.13.33s1.15,0,1.16-.13l.51-5.8A1.15,1.15,0,0,0,183.1,98.21Z"/><path class="cls-37" d="M146.71,126.16c-1.65-1.76,2.91-8.37,5.36-11.27,2.13-2.53,4.32-5.14,7-4.81a6,6,0,0,1,4.8,5.18C164.26,121.69,149.05,128.66,146.71,126.16Z"/><path class="cls-38" d="M166.51,194.13c.31.25.36.88.4,1.29a.73.73,0,0,1,0,.34c-.15.48-1.06.52-2.51.67-2.27.23-3,.41-3.13.08s.24-.84.28-.9a2.11,2.11,0,0,1,1.13-.61c1.07-.36,1.8-.55,2-.61C166.07,194,166.3,194,166.51,194.13Z"/><path class="cls-39" d="M165.15,192l-.23,2.6a1.41,1.41,0,0,0,1.45.18l.59-2.55Z"/><path class="cls-40" d="M148.44,193.79a1.28,1.28,0,0,1,.13,1.54c-.32.37-.79.09-2.15.13s-1.83.39-2.82.12c-.4-.11-1.1-.38-1.09-.66s.37-.31,1.57-.71a15.55,15.55,0,0,1,2-.66C147,193.4,148,193.25,148.44,193.79Z"/><path class="cls-39" d="M147.51,191.42l-.73,2.43a1.42,1.42,0,0,0,1.43.29l1.08-2.36Z"/><path class="cls-41" d="M154,138.35a226.86,226.86,0,0,1-2,27.25,228.44,228.44,0,0,1-5.18,26.53l2.79.75a23.77,23.77,0,0,0,6.77-10.55c.89-3,.59-4.6,1.15-8.33.9-5.95,2.73-9.06,4.61-13.86a79.35,79.35,0,0,0,4.77-19.08Z"/><path class="cls-42" d="M162.37,137.57q.85,15.54,1.39,31.65.41,12.08.59,23.86l2.85.35a32.75,32.75,0,0,0,3-7.66c1-4.07.78-6.48,1.23-10.7.5-4.72,1.22-5.75,2.51-11.71,2.6-12.1,3.9-18.15,1-21.91C174,140.22,171,137.16,162.37,137.57Z"/><path class="cls-43" d="M176.21,111.53a44.8,44.8,0,0,0-9.47-1.58c-5.7-.32-8.54-.48-10.56.88-4.66,3.13-1.05,10.35-3,28.27-.27,2.55-.33,5.13-.53,7.69-.32,4.25-.4,4.48-.1,4.91,1.85,2.7,8.76-1.37,18.9.24,5.67.9,8.24,3,9.79,1.48,1.81-1.75.26-6.44-1.08-10.48-1.53-4.63-2.48-4.69-3.35-8.19-.92-3.65-.36-5.53-.22-11.28A101.77,101.77,0,0,0,176.21,111.53Z"/><g class="cls-44"><path class="cls-45" d="M162.43,145.16c2.65-.2,4.37,1.29,6.65.13,3.14-1.6,4.15-6.58,3.95-10.11-.31-5.35-3.36-6.76-2.84-10.22.29-1.87,1.62-4.36,6.42-6.9.06,2.14,0,4,0,5.41-.14,5.75-.7,7.63.22,11.28.87,3.5,1.82,3.56,3.35,8.19,1.34,4,2.89,8.73,1.08,10.48-1.55,1.49-4.12-.58-9.79-1.48-8.74-1.39-15.07,1.44-17.85.52C157,146.93,160,145.35,162.43,145.16Z"/></g><path class="cls-46" d="M172.6,111.9c1.89-1.55,5.69.21,6.71.68,5.67,2.62,10.76,9.69,9.5,17.16-.19,1.12-1.07,6.35-5.5,8.89-4,2.29-9.41,1.7-13.74-1.54l-1.78-1.58-1.74-1.88a14.09,14.09,0,0,1,4.65-2.57c2.88-.93,5,.74,6.31-.53a3.64,3.64,0,0,0,.7-3.35c-.46-1.89-2.12-2.42-3.51-3.76C170.93,120.27,170.33,113.76,172.6,111.9Z"/><polygon class="cls-47" points="145.41 136.28 170.77 135.91 164.03 139.16 145.35 137.94 145.41 136.28"/><path class="cls-48" d="M171.66,136.58h0a1.12,1.12,0,0,1-.74,1.06l-8.1,3.17,0-2.2,8-2.71A.7.7,0,0,1,171.66,136.58Z"/><path class="cls-5" d="M167.76,135.08c.15,0-.76-1.86-1.48-1.65s-4.22,2.25-4.54,3.08l-.32.84a7.83,7.83,0,0,0,2.48-.2C164.85,136.83,166.49,135.36,167.76,135.08Z"/><path class="cls-49" d="M162.11,123.16l1.79,16.28a1.55,1.55,0,0,1-1.29,1.37l-26.22-1.61a.92.92,0,0,1-.86-.76l-3.29-15.72c-.1-.57.93-1.16,1.51-1.15l27.47.78A.92.92,0,0,1,162.11,123.16Z"/><path class="cls-50" d="M161.51,123.64l1.79,16.27a.92.92,0,0,1-1,1l-26.55-1.26a.92.92,0,0,1-.86-.76l-2.71-15.79a.91.91,0,0,1,.93-1.07l27.47.77A.92.92,0,0,1,161.51,123.64Z"/><path class="cls-51" d="M145.92,135.86c2.32-1,1.5-2.86,4.24-5.19,3.61-3.08,7.29-1.75,8.58-4.13.4-.75.59-1.9-.11-3.78l2,.06a.92.92,0,0,1,.89.82l1.79,16.27a.92.92,0,0,1-1,1l-26.55-1.26a.92.92,0,0,1-.86-.76l-.37-2.18a9.9,9.9,0,0,1,2.89-1.08C141.34,134.86,143.25,137,145.92,135.86Z"/><path class="cls-5" d="M134.12,137.4a.22.22,0,0,1,.19-.28,5.23,5.23,0,0,1,2.58.4c.93.57,2.14,1.62,1.12,2.14l-.95.5a.17.17,0,0,1-.14,0c-.33-.07-1.75-.38-1.91-.46A14.63,14.63,0,0,1,134.12,137.4Z"/><path class="cls-5" d="M166.31,103.73a20.82,20.82,0,0,0,.35,4c.21,1,.35,1.32.54,1.54s.71.61,3.13,1.21c1.32.32,1.49.31,1.52.44.14.64-3.45,2.81-7.16,2.29-2.27-.32-4.33-1.62-4.2-2.29s2.39-.32,3.06-1.56c.47-.86-.05-2.08-.67-3.1C163.48,105.08,165.71,104.86,166.31,103.73Z"/><path class="cls-52" d="M162.1,104.4a2.39,2.39,0,0,1,.05-2.74,2.64,2.64,0,0,1,1.87-.83,4,4,0,0,1,3.91,1.77c.38.8-.44,2.44-.57,2.73s-.4.45-.65.7-.86.91-1.72,1.84a4.9,4.9,0,0,0-.33-1,5.4,5.4,0,0,0-.68-1.16C163.22,104.81,162.61,105.07,162.1,104.4Z"/><path class="cls-5" d="M166.22,107.09a3.24,3.24,0,0,1-2.85,1.44c-1.7-.11-2-3.92-.86-4.73a2.15,2.15,0,0,1,1.67-.22,10.11,10.11,0,0,0,1,.39c.53.14.68.08.84.22s.34.58,0,1.69a.92.92,0,0,1,1-.32.56.56,0,0,1,.22.22C167.52,106.21,167.12,106.77,166.22,107.09Z"/><path class="cls-53" d="M166.13,104c-.08.06.17.37.19.8a2.06,2.06,0,0,1-1.68,1.93c-.51,0-.65-.26-1.5-.35a4,4,0,0,0-1.24.08,2.06,2.06,0,0,0,.6,2.26,2.12,2.12,0,0,0,1.87.06,2.4,2.4,0,0,0,1.39-1c.41-.72,0-1.16.48-1.65.24-.25.55-.35.86-.83a2.1,2.1,0,0,0,.17-.33C166.83,104.45,166.25,103.87,166.13,104Z"/><path class="cls-5" d="M162.52,106.76a2.06,2.06,0,0,0,1,.15s.07,0,.07,0a.78.78,0,0,1-.77.22c-.26-.07-.47-.33-.44-.39S162.46,106.75,162.52,106.76Z"/><path class="cls-54" d="M29.88,113.45c-.45.17-7.32,2.9-8.74,10.07-.11.58-1.21,6.74,3,11.09,4.69,4.88,13.71,4.76,17.29.68a7.44,7.44,0,0,0,1.52-2.89h0L42,129.89A6.09,6.09,0,0,0,38.41,128c-2.06-.51-3.62.41-4.8-.59a3.14,3.14,0,0,1-.9-2c-.4-2.41,1-3.89,1.06-5.38.08-1.11.47-3.55-1-5.14A4.66,4.66,0,0,0,29.88,113.45Z"/><path class="cls-55" d="M27.2,193.36c-.08-.44-1.51-.84-2.21-.25-.35.29-.59.89-.39,1.15.07.1-.23.27.06.28C25.62,194.55,27.28,193.8,27.2,193.36Z"/><path class="cls-56" d="M25.7,193.52l-1.46-.21c.68-.82.55-3.42.55-3.42l1.56.35s-.18.71-.48,1.77A7.25,7.25,0,0,0,25.7,193.52Z"/><path class="cls-57" d="M25.83,193.34s-1.76-.41-1.95-.06-.34,1.29.78,1.26S25.93,193.63,25.83,193.34Z"/><path class="cls-58" d="M47.32,195c-.15-.42-1.61-.62-2.23.06-.31.34-.46,1-.22,1.2.08.09-.19.3.1.27C45.92,196.41,47.46,195.43,47.32,195Z"/><path class="cls-59" d="M45.86,195.38H44.38c.56-.9.07-3.47.07-3.47L46,192s-.08.73-.23,1.82A6.77,6.77,0,0,0,45.86,195.38Z"/><path class="cls-60" d="M49.7,139.39A69.12,69.12,0,0,1,52,149.9c1.8,13.08-2,13.49-1.31,28,.23,4.63-4,15.3-4.38,15.54l-.59,0a5.8,5.8,0,0,1-1.49-.25c-.67-.12-3.09-6.67-2.53-10.57.4-2.75.28-5.71.05-11.63,0-1-2.49-18.67-2.49-18.67h0c-.75,6.56-1.6,12.12-2.35,16.44-2.39,13.87-10.16,22.26-10.57,22.4a1.68,1.68,0,0,1-1.41-.1,1,1,0,0,1-.35-.4c-.21-.16.06-13.85,2.43-24.14,3.44-14.95,1.94-18.45,3-25.12C31,135.63,49.7,139.39,49.7,139.39Z"/><path class="cls-61" d="M50.62,141.65a24.06,24.06,0,0,1-13.74,2,21.2,21.2,0,0,1-6.7-2.18l-.15-.07c1.65-5,.36-7.65-.25-10.11-.87-3.51-.88-3.24-1.6-6C27,120.68,26.81,116,27.62,115c2.19-2.59,6.13-2.68,8.17-2.74,2.29-.07,7.54-.87,10.43,1.73.05,0-.54.36-.25.7a19.1,19.1,0,0,1,2,2.93,19.49,19.49,0,0,1,1.72,4.25,37,37,0,0,1,1.36,7.41c0,.41.06.81.08,1.19C51.55,136.63,51.07,139.59,50.62,141.65Z"/><path class="cls-62" d="M46,195.18s-1.8-.15-1.94.22-.16,1.32.95,1.14S46.1,195.46,46,195.18Z"/><path class="cls-63" d="M42.37,109.36a4,4,0,0,0,.12-2.88c-.38-1.21-.51-1.39-.75-1.64l-.35-.32,0,0a4.68,4.68,0,0,0-1.27-.33c-.58,0-1.62,2.17-2.07,5.42l-.14.36c-.28.75-.52,1.49-.72,2.2-3.89.61-4.41,1.11-4.41,1.37,0,.56,2.29,1,4,1.18,3.7.28,7.4-1,7.33-1.63,0-.3-.78-.63-3.91-.82,0-.52.07-1,.11-1.56C40.49,110.62,41.91,110.27,42.37,109.36Z"/><path class="cls-64" d="M42.72,103.83a3.78,3.78,0,0,1-1.14,2.1,1.73,1.73,0,0,0-.44.32,1,1,0,0,0-.08.11c-.34.59.52,1.52.27,1.76s-.8-.22-.92-.06.39.6.27.78-.42-.06-.68.12-.12.19-.3.52a3.42,3.42,0,0,1-.33.49c-.46.52-1.48.55-1.62.28,0-.08,0-.12,0-.35a1.9,1.9,0,0,0-.1-.48,4.85,4.85,0,0,0-1-1.16,3.31,3.31,0,0,1-1-1.64,1.37,1.37,0,0,1,0-.16,3.74,3.74,0,0,1,.57-2.46c.77-1,1.92-.24,3.15-1.15,1.43-1,1.06-2.91,1.74-3S43.08,102,42.72,103.83Z"/><path class="cls-65" d="M41,107.82c-.18-.38-.67-.15-.76.28s.25,1,.67,1S41.26,108.34,41,107.82Z"/><path class="cls-66" d="M30.76,138.32h0a.13.13,0,0,1-.12-.15,13.62,13.62,0,0,0-.68-5.73c-.1-.38-.21-.75-.3-1.11-.49-2-.71-2.75-.94-3.56-.15-.54-.3-1.08-.54-2a.13.13,0,0,1,.1-.16.13.13,0,0,1,.16.09c.24.92.39,1.46.54,2,.23.82.45,1.59.94,3.58.09.36.19.72.3,1.1a13.88,13.88,0,0,1,.68,5.83A.12.12,0,0,1,30.76,138.32Z"/><path class="cls-67" d="M50.62,141.65a24.06,24.06,0,0,1-13.74,2,21.2,21.2,0,0,1-6.7-2.18,30.34,30.34,0,0,0,3.14-3.16c1.82-2,4-1.24,5.2-.49A3,3,0,0,0,43,135.36a14.16,14.16,0,0,0-.07-1.65c-.43-4.49,5.79-4.87,5.79-4.87.88-.45,1.71.28,2.47,1.65C51.55,136.63,51.07,139.59,50.62,141.65Z"/><path class="cls-68" d="M72.36,121.65a2.36,2.36,0,0,0-.77.4l-.91.5a4,4,0,0,1-1.91.53,1.4,1.4,0,0,1,.09-.29c.11-.27.27-.5.18-.58s-.71.12-1.23.63a3.31,3.31,0,0,0-.59.73c-.27.46-.22.71-.45,1.06a1.5,1.5,0,0,1-.58.36v.1l0,.12a3.07,3.07,0,0,1-.91.45l1.39.38.32.54a11.13,11.13,0,0,0,2.82-1,1.42,1.42,0,0,0,.71-1,1.22,1.22,0,0,0,0-.49.63.63,0,0,0,0-.13,4.25,4.25,0,0,0,2-1.91C72.59,121.86,72.6,121.63,72.36,121.65Z"/><path class="cls-69" d="M66.22,124.45a4.58,4.58,0,0,1,1.5,1.87,13.8,13.8,0,0,1-4.83,6A14.26,14.26,0,0,1,46.57,132c-5.7-4.36-6.66-12.72-4.26-16.3a4,4,0,0,1,2.59-1.92c.89-.1,2.1.27,4,2.51,4,4.66,2.57,7.58,4.93,8.94C57.38,127.28,62.62,121.93,66.22,124.45Z"/><path class="cls-70" d="M125.51,34.92c-1.46-.43-3.42,2.26-5.05,4.5-2.43,3.34-5.28,7.25-4.51,11.94s4.71,8.22,5.84,7.7c1-.44-.89-3.54.53-7.7,1.15-3.35,3.05-3.35,4.32-6.63C128.22,40.65,127.31,35.45,125.51,34.92Z"/><path class="cls-71" d="M124.79,56.19A43.74,43.74,0,0,0,109.37,63c-1.57,1.13-2.3,1.83-2.69,2.86-2.24,5.84,9.25,14.66,10.47,15.59.53-1.25,1.07-2.49,1.6-3.74-1.18-6.51-3.16-8.56-4.81-9.16-.47-.17-1.24-.36-1.23-.57,0-.52,4.4.22,8.57-1.31s8.33-5.37,7.58-7.91C128.73,58.33,128.16,57,124.79,56.19Z"/><path class="cls-72" d="M117.47,98.87s.7.25.71.81a9.51,9.51,0,0,1-1.49,3.87c-.78.87-.85-.43-.8-1.26a15.36,15.36,0,0,1,.44-3.07C116.53,98.86,117.47,98.87,117.47,98.87Z"/><path class="cls-73" d="M115.22,64.73c-1.38,0-4.59-.29-5.44,1.3-.72,1.33.53,3.33,1.3,4.57,2.09,3.36,4.12,3.7,5.55,5.76a7.34,7.34,0,0,1,1.21,3.51c.31-.71.61-1.41.91-2.12-1.18-6.51-3.16-8.56-4.81-9.16-.47-.17-1.24-.36-1.23-.57,0-.52,4.4.22,8.57-1.31,3.79-1.39,7.58-4.7,7.66-7.21C122.94,63.81,118.42,64.79,115.22,64.73Z"/><path class="cls-74" d="M117.88,96.51c0,.86-.12,1.57-.18,2.11a7.23,7.23,0,0,1-.46,2.06c-.16.37-.56,1.17-.75,1.12s0-1,.15-3.43c0-.36.09-1.51.09-1.51h0Z"/><path class="cls-75" d="M129.14,56.68a33.89,33.89,0,0,0-8.81,7.61c-1.94,2.38-4.89,6-6,11.38-.57,2.87-.29,5.45.29,10.48A106.14,106.14,0,0,0,116.73,98l1,.4a21.44,21.44,0,0,0,2.49-7.58c.69-5.45-1.35-7.18-.37-11,.84-3.35,3.3-5.4,8.21-9.51,4-3.37,7.75-5.37,9.14-9.58a3.23,3.23,0,0,0,.05-2.39C136.42,56.58,133.27,56,129.14,56.68Z"/><path class="cls-76" d="M132.61,35.23c-1.13-.24-3-.19-4.76-1.59-.53-.42-2.42-1.9-2.19-4a4.27,4.27,0,0,1,2.2-3,5.82,5.82,0,0,1,3.89-.35,19.85,19.85,0,0,1,3.65,1.07c3.1.84,4.14-.9,7.26-.76,4,.19,4.33,3.13,7.68,3.21,3.76.08,4.48-3.6,8.19-4.23,5.16-.86,13,4.69,12.8,11.08-.09,3.7-2.84,7.93-6.36,9.2-2,.75-4.25.51-4.89,1.84-.44,1,.56,1.68.47,3.33a5.91,5.91,0,0,1-2.25,3.87c-2.75,2.24-8.91,1.11-13.12-2.06C137.59,47.1,138.74,36.55,132.61,35.23Z"/><path class="cls-77" d="M141.32,34.47a83.25,83.25,0,0,0-8.78-.6c-6.92-.09-7.91.79-8.16,1.44-.47,1.21.34,1.81-.12,3.93-.28,1.26,0,1.83-.55,3.19s-.11,2,.35,5.13c.58,4,.85,6-.26,7.58-.77,1.11-1.63,1.2-1.55,1.73.18,1.13,4.06.51,9,2.66a38.22,38.22,0,0,1,3.83,2c2.58,1.51,3.05,2.09,4.25,2.78,3.77,2.16,9.43,2.37,12.39-.25,1.11-1,1.92-2.41,1.55-2.94-.49-.71-2.7.91-4.73-.08-1.34-.65-1.08-1.72-2.64-3-1.87-1.5-3.17-.71-4.44-1.69-2-1.53-1.08-5.19-.52-11.33A102.29,102.29,0,0,0,141.32,34.47Z"/><path class="cls-78" d="M133.83,33.05c.95.58,2.47,1.35,2.64,1.55s-4.62,1-7.6-.47c0,0-.47-.26,1.33-.62.38-.07.31-.82.26-1.59l.36-.67S132.89,32.46,133.83,33.05Z"/><path class="cls-79" d="M131.45,30.8a2.19,2.19,0,0,1-1,2.35c-1.24.69-3.34-2.16-3-3.22a1.94,1.94,0,0,1,1.09-1,2.1,2.1,0,0,1,2.2,1c.14-.32.4-.49.58-.43s.25.47.26.56A1.13,1.13,0,0,1,131.45,30.8Z"/><path class="cls-80" d="M129.31,56c1.42.59,1.61,1.87,3.58,2.59s2.51-.17,4.39.4c2.82.86,3.89,3.58,4.32,3.32s0-2.83-1.8-4.52c-2.07-1.93-4.31-1-5.64-3.05a3.28,3.28,0,0,1-.47-3c.61-1.3,2.21-.85,3.06-1.93,1.52-1.93-2-5.42-1.07-8.37.39-1.18,1.63-2.65,5.63-3.64-.05,3-.22,5.43-.39,7.3-.56,6.14-1.46,9.8.52,11.33,1.27,1,2.57.19,4.44,1.69,1.56,1.25,1.3,2.32,2.64,3,2,1,4.24-.63,4.73.08.37.53-.44,2-1.55,2.94-3,2.62-8.62,2.41-12.39.25-1.2-.69-1.67-1.27-4.25-2.78a38.22,38.22,0,0,0-3.83-2,32.43,32.43,0,0,0-7.9-2C126.32,55.53,128.15,55.5,129.31,56Z"/><path class="cls-81" d="M115.55,58l18.08.88a.75.75,0,0,1,.61.35l.5.81a.58.58,0,0,1-.52.89l-19.15-.73Z"/><path class="cls-82" d="M99,48l18.68.36a1.56,1.56,0,0,1,1.33.79l6.47,11.38-19.73-.78a1.64,1.64,0,0,1-1.31-.78l-6-10A.62.62,0,0,1,99,48Z"/><path class="cls-83" d="M119,49.15a1.56,1.56,0,0,0-1.33-.79h-.41a2.91,2.91,0,0,1-.61,1.6c-1.16,1.39-3.07.53-4.5,2s-.11,3.54-1.52,5-3.85.29-6.59,1.31l.39.66a1.64,1.64,0,0,0,1.31.78l19.73.78Z"/><path class="cls-84" d="M130.67,58c-.2-.53-.41-1.07-.61-1.61,2.25-.62,5.36-1.53,8.56-2.67a2.43,2.43,0,0,0,1.29-.93c1.64-2.17-2.53-6-2.46-11,.05-3.45,2.14-7.39,4-7.44,3.75-.09,12,15.79,5,22.57C143,60.3,136.58,60.69,130.67,58Z"/><path class="cls-85" d="M130.06,56.38a4,4,0,0,0-3.22.07,4.32,4.32,0,0,0-1.22.88c-.05.07-.66.92-.44,1.19s.87,0,1.71-.48a6.23,6.23,0,0,1,1.49,0c1.14.11,1.67.47,2.08.16a1,1,0,0,0,.3-1.08A1.26,1.26,0,0,0,130.06,56.38Z"/><path class="cls-86" d="M72.18,192.16a32.27,32.27,0,0,1-.13-12.53c.61-3.22,1.85-9.78,7.06-13.43.41-.28,4.48-3.09,6.31-1.7.94.72,1.16,2.46.75,3.82-1.07,3.54-5.87,3.14-7.47,7.16-.53,1.34-.63,3-.26,3.13s1.76-1.81,1.89-2c1.16-1.78,1.17-2.79,2-3.06A1.52,1.52,0,0,1,84,174c.73,1-.71,3.2-1.11,3.82-1.06,1.63-1.94,2-2.15,3.39-.09.59-.08,1.48.28,1.61s1.39-1.06,2-1.86c1.57-2.15,1.74-3.4,2.52-3.49s1.56.9,1.77,1.49C87.83,180.56,85.51,184,72.18,192.16Z"/><path class="cls-87" d="M72.34,191.22a38.63,38.63,0,0,1,1.41-11.77c1-3.4,2.76-9.79,7.82-12.56.36-.2,3-1.65,3.74-.87.49.52.06,1.93-.67,2.87-1.24,1.61-2.66,1-4.68,2.54a7.87,7.87,0,0,0-2.6,3.81,8.38,8.38,0,0,0-.21,4C77.47,181.47,76.82,185.09,72.34,191.22Z"/><path class="cls-87" d="M74.15,190c2.83-2.54,3.49-4.62,3.54-6.08,0-1.14-.27-2.49.6-3.75.56-.8,1-.67,1.94-1.54,2-1.8,2.26-4.23,2.67-4.14.23.05.35.85.2,1.6-.31,1.56-1.52,1.72-2.74,3.61a9.75,9.75,0,0,0-1.27,3.21c-.37,1.62-.12,2.18-.33,3.08C78.48,187.1,77.47,188.6,74.15,190Z"/><path class="cls-88" d="M73.88,193c4.92.28,6.38.58,8.7-.21S87,190.62,86.79,190c-.14-.48-1.51-.47-2.32-.47a11.69,11.69,0,0,0-5.27,1.33l3.28-2.22a8.25,8.25,0,0,0,3.2-2.08c.72-.77,2.36-2.84,1.75-3.84s-3.72-.83-5.49.64c-.85.71-.85,1.26-2,2.49a12.26,12.26,0,0,1-2.85,2.28A16.71,16.71,0,0,0,79.5,184c1.13-2.81,2-7.26.54-8.07-1-.53-2.84.57-3.78,1.88-.77,1.06-.7,2-1.22,5.37-.23,1.48-.46,2.68-.6,3.42a21,21,0,0,1-2-7.89c-.11-2.55.32-4.55-.66-5.08s-2.42.45-3.21,1.32c-3.18,3.51,1,11.74,1.47,12.59a23.24,23.24,0,0,1-4.34-4.27c-1.67-2.14-2.38-3.73-3.22-3.59s-1.4,1.94-1.34,3.33c.18,3.87,5.24,6.14,5.78,6.38a5.8,5.8,0,0,1-2,0c-1.89-.36-2.48-1.51-4.39-1.89-.73-.15-2.23-.31-2.41.15-.34.81,3.44,3.86,8,5C67.85,193.06,67.45,192.67,73.88,193Z"/><path class="cls-87" d="M77.13,190.24c2.23-1,1.93-2.35,4.38-4,1.57-1.07,1.93-.68,3.61-1.7a11.71,11.71,0,0,0,2.3-1.86v0c.61,1-1,3.07-1.75,3.84a8.25,8.25,0,0,1-3.2,2.08l-3.28,2.22a11.69,11.69,0,0,1,5.27-1.33,4.58,4.58,0,0,1,2.21.31,5,5,0,0,1-1.73.7c-1.1.23-1.79,0-2.74.55-.76.46-.7.85-1.37,1.1s-1,0-2.51-.27-2.29-.36-2.9,0a2.13,2.13,0,0,0-.85,1.19l-.48,0a3.75,3.75,0,0,1,.77-1.53A5.14,5.14,0,0,1,77.13,190.24Z"/><path class="cls-87" d="M70.75,192c-.36-.09-.53.17-1,.23-.91.12-1.25-.63-2.33-1-1.27-.43-1.59.36-2.85,0-1-.31-.88-.83-2.18-1.58s-2-.47-3-1.14a3.82,3.82,0,0,1-1.06-1,4.63,4.63,0,0,1,2.25,0c1.91.38,2.5,1.53,4.39,1.89a5.8,5.8,0,0,0,2,0c-.54-.24-5.6-2.51-5.78-6.38-.06-1.29.41-2.93,1.16-3.27a19.13,19.13,0,0,0-.09,2.26c0,1.4.06,2.11.5,2.69.77,1,1.7.49,3,1.54s.76,1.7,2,2.66c1,.83,1.67.53,2.65,1.2A4.75,4.75,0,0,1,72.15,193l-.59,0A1.36,1.36,0,0,0,70.75,192Z"/><path class="cls-87" d="M71.85,186.68c-.61-1.67-1.68-1.5-2.12-3s.52-1.91.28-4c-.19-1.58-.78-1.82-.82-2.9a4.44,4.44,0,0,1,1.55-3.24,1.46,1.46,0,0,1,1.06.06c1,.53.55,2.53.66,5.08a21,21,0,0,0,2,7.89c.14-.74.37-1.94.6-3.42.52-3.41.45-4.31,1.22-5.37.94-1.31,2.83-2.41,3.78-1.88a.91.91,0,0,1,.16.11,5.31,5.31,0,0,0-1.29,1.22c-1.25,1.67-.54,2.87-1.68,6.18s-2.21,3.37-3.09,6.12a13.08,13.08,0,0,0-.6,3.49l-.91-.05a13.12,13.12,0,0,1-.55-2.87C71.93,188.3,72.26,187.81,71.85,186.68Z"/><path class="cls-89" d="M84.13,8.18c7.09.22,13.05,4.55,14.21,10v0c.06.3.11.6.15.91v.06c0,.14,0,.29,0,.43v.08c0,.15,0,.3,0,.45,0,6.36-6.5,11.19-14.41,10.78l-.63,0h-.06l-.59-.06h-.09l-.56-.08-.1,0-.55-.1-.11,0-.53-.12-.1,0-.53-.13-.09,0-.46-.14-.12,0L79.15,30l-.1,0h0c-5.26-1.9-9-6.17-9-10.95C70.09,12.78,76.33,7.94,84.13,8.18Z"/><path class="cls-90" d="M68.59,19c0,6.21,6.24,11.56,14,12S97,26.52,97,20.16s-6.5-11.73-14.41-12S68.59,12.78,68.59,19Z"/><g class="cls-44"><path class="cls-91" d="M79.19,27.87c1.71-3.27,0-6.48,2.29-8.55s5.43.07,8.77-1.6a8.22,8.22,0,0,0,3.81-4.66,10.41,10.41,0,0,1,3,7.1c0,6.36-6.5,11.19-14.41,10.78a17.77,17.77,0,0,1-5.08-1A7.06,7.06,0,0,0,79.19,27.87Z"/></g><path class="cls-5" d="M75.49,16.48a1.64,1.64,0,0,0-1.41.7,3.43,3.43,0,0,0-.49,2c0,1.76.63,2.65,1.9,2.67a6,6,0,0,0,2-.38v1.41a5.29,5.29,0,0,1-2.11.37,3.19,3.19,0,0,1-2.53-1.09,4.63,4.63,0,0,1-.87-3A5,5,0,0,1,72.37,17a3.12,3.12,0,0,1,1.23-1.42,3.55,3.55,0,0,1,1.89-.49,5.05,5.05,0,0,1,2.25.56L77.22,17a8.1,8.1,0,0,0-.87-.37A2.42,2.42,0,0,0,75.49,16.48Z"/><path class="cls-5" d="M84.3,21.05a2.06,2.06,0,0,1-.78,1.71,3.23,3.23,0,0,1-2.14.59,4.87,4.87,0,0,1-2.21-.53V21.25a9.55,9.55,0,0,0,1.33.53,4,4,0,0,0,1,.16,1.34,1.34,0,0,0,.84-.2.72.72,0,0,0,.3-.63.73.73,0,0,0-.13-.43,1.66,1.66,0,0,0-.38-.36c-.17-.11-.51-.3-1-.56A4.86,4.86,0,0,1,80,19.09a2.45,2.45,0,0,1-.57-.75,2.17,2.17,0,0,1-.21-1,2.08,2.08,0,0,1,.7-1.67,2.87,2.87,0,0,1,2-.61,4.47,4.47,0,0,1,1.17.15,8,8,0,0,1,1.18.42L83.72,17a8,8,0,0,0-1-.37,3.36,3.36,0,0,0-.82-.11,1.05,1.05,0,0,0-.72.22.75.75,0,0,0-.25.59.71.71,0,0,0,.1.39,1.1,1.1,0,0,0,.32.33,8.41,8.41,0,0,0,1.06.57,4.49,4.49,0,0,1,1.53,1.1A2.23,2.23,0,0,1,84.3,21.05Z"/><path class="cls-5" d="M91.12,21.14a2.11,2.11,0,0,1-.8,1.75,3.43,3.43,0,0,1-2.22.59A5,5,0,0,1,85.82,23v-1.6a10.07,10.07,0,0,0,1.38.54,4.12,4.12,0,0,0,1,.16,1.44,1.44,0,0,0,.87-.2.74.74,0,0,0,.3-.65.73.73,0,0,0-.13-.43,1.53,1.53,0,0,0-.39-.36,10.76,10.76,0,0,0-1.06-.57,5.13,5.13,0,0,1-1.11-.69,2.51,2.51,0,0,1-.59-.75,2.18,2.18,0,0,1-.22-1,2.1,2.1,0,0,1,.72-1.69,3,3,0,0,1,2-.62,4.78,4.78,0,0,1,1.21.15,7.45,7.45,0,0,1,1.22.43L90.52,17a8.05,8.05,0,0,0-1.09-.38,3.46,3.46,0,0,0-.84-.11,1.14,1.14,0,0,0-.75.23.76.76,0,0,0-.26.6.77.77,0,0,0,.11.4,1.28,1.28,0,0,0,.33.33,10.5,10.5,0,0,0,1.1.58,4.4,4.4,0,0,1,1.57,1.12A2.15,2.15,0,0,1,91.12,21.14Z"/><path class="cls-92" d="M53.1,26.55c7.89.25,14.52,5.06,15.81,11.16v0c.07.34.12.68.16,1v.06l0,.48s0,.06,0,.09,0,.33,0,.5c0,7.08-7.23,12.45-16,12l-.69-.05h-.07l-.66-.07h-.1L51,51.65l-.12,0-.6-.11-.13,0-.59-.13-.11,0c-.2,0-.39-.09-.59-.15l-.1,0L48.21,51l-.13,0-.52-.18-.11,0h0c-5.85-2.12-10-6.87-10-12.18C37.49,31.67,44.43,26.29,53.1,26.55Z"/><path class="cls-93" d="M35.81,38.57c0,6.9,6.95,12.86,15.62,13.31s16-4.92,16-12-7.23-13.06-16-13.33S35.81,31.67,35.81,38.57Z"/><g class="cls-44"><path class="cls-94" d="M47.6,48.46c1.9-3.64,0-7.21,2.55-9.51s6.05.07,9.76-1.79c1.44-.72,3-2.15,4.24-5.18a11.59,11.59,0,0,1,3.32,7.9c0,7.08-7.23,12.45-16,12a20,20,0,0,1-5.65-1.13A7.78,7.78,0,0,0,47.6,48.46Z"/></g><path class="cls-5" d="M46.19,42.83l-6.32-3.08v-1l6.32-3.27v1.62l-4.38,2.09,4.38,2Z"/><path class="cls-5" d="M53,34.29l-3.64,10-1.82-.06,3.6-10Z"/><path class="cls-5" d="M54.34,41.37l4.72-1.88-4.72-2.27V35.56l6.9,3.53v1L54.34,43Z"/><path class="cls-95" d="M81.51,50.67c7.09.22,13,4.55,14.2,10v0a9.07,9.07,0,0,1,.14.91v.06l0,.43v.08c0,.15,0,.29,0,.44,0,6.37-6.5,11.2-14.41,10.79l-.63-.05h-.06l-.59-.07h-.09l-.56-.08h-.11l-.54-.1-.11,0L78.28,73l-.1,0-.52-.14-.09,0-.47-.14-.11,0-.47-.15-.1,0h0c-5.26-1.9-9-6.17-9-10.94C67.47,55.27,73.71,50.43,81.51,50.67Z"/><path class="cls-96" d="M66,61.47c0,6.2,6.24,11.55,14,12S94.42,69,94.42,62.64s-6.5-11.73-14.42-12S66,55.27,66,61.47Z"/><g class="cls-44"><path class="cls-97" d="M76.56,70.36c1.71-3.27,0-6.48,2.29-8.55s5.44.07,8.77-1.61a8.15,8.15,0,0,0,3.81-4.66,10.44,10.44,0,0,1,3,7.1c0,6.37-6.5,11.2-14.42,10.79a17.91,17.91,0,0,1-5.08-1A6.87,6.87,0,0,0,76.56,70.36Z"/></g><path class="cls-5" d="M73.23,59.37a1.46,1.46,0,0,0-1.29.73,3.79,3.79,0,0,0-.44,2c0,1.77.57,2.69,1.73,2.74a5,5,0,0,0,1.82-.36V66a4.35,4.35,0,0,1-2,.31,2.85,2.85,0,0,1-2.29-1.18,5.15,5.15,0,0,1-.76-3,5.7,5.7,0,0,1,.37-2.15,3.17,3.17,0,0,1,1.1-1.44,3.06,3.06,0,0,1,1.72-.54,4.26,4.26,0,0,1,2.09.54l-.49,1.42a7.27,7.27,0,0,0-.81-.37A2.1,2.1,0,0,0,73.23,59.37Z"/><path class="cls-5" d="M78.67,62.9l-2,0V61.6l2,0V59.35h1.17v2.3l2.14,0V63l-2.14,0V65.2l-1.17,0Z"/><path class="cls-5" d="M85.85,63.07,83.57,63V61.68l2.28,0V59.28h1.34v2.45l2.43,0v1.4l-2.43,0v2.42l-1.34-.06Z"/><path class="cls-98" d="M48.18,101.39A9.46,9.46,0,0,1,46,95.46C46,89.14,52.73,84,61,84s15,5.12,15,11.44-6.72,11.43-15,11.43a18.46,18.46,0,0,1-8.39-2c-1.58.27-4,.73-5.34,1a.51.51,0,0,1-.56-.67Z"/><g class="cls-99"><path class="cls-100" d="M52.81,97.88c3.36-1.42,7.07,1.57,9.38-.51s-.19-6.26,2-9.22a6.87,6.87,0,0,1,4.9-2.31c4.15,2,6.9,5.58,6.9,9.62,0,6.31-6.72,11.43-15,11.43a18.46,18.46,0,0,1-8.39-2c-1.25.21-3,.54-4.38.79C49.24,100.61,51.05,98.61,52.81,97.88Z"/></g><rect class="cls-5" x="51.03" y="91.22" width="19.73" height="1.2" rx="0.56"/><rect class="cls-5" x="51.03" y="94.59" width="19.73" height="1.2" rx="0.56"/><rect class="cls-5" x="51.03" y="97.96" width="10.35" height="1.2" rx="0.57"/></g></g></g></svg>